<svg width="42" height="45" viewBox="0 0 42 45" fill="none" xmlns="http://www.w3.org/2000/svg">
<path d="M1.27202 41H0.223722L2.57919 34.4545H3.72017L6.07564 41H5.02734L3.17685 35.6435H3.12571L1.27202 41ZM1.4478 38.4368H4.84837V39.2678H1.4478V38.4368ZM8.70277 41.0959C8.30646 41.0959 7.95277 40.9947 7.64169 40.7923C7.33274 40.5877 7.08984 40.2969 6.913 39.9197C6.73828 39.5405 6.65092 39.0856 6.65092 38.555C6.65092 38.0245 6.73935 37.5707 6.91619 37.1935C7.09517 36.8164 7.3402 36.5277 7.65128 36.3274C7.96236 36.1271 8.31499 36.027 8.70916 36.027C9.01385 36.027 9.25888 36.0781 9.44425 36.1804C9.63175 36.2805 9.77663 36.3977 9.87891 36.532C9.98331 36.6662 10.0643 36.7844 10.1218 36.8867H10.1793V34.4545H11.1349V41H10.2017V40.2362H10.1218C10.0643 40.3406 9.98118 40.4599 9.87251 40.5941C9.76598 40.7283 9.61896 40.8455 9.43146 40.9457C9.24396 41.0458 9.00107 41.0959 8.70277 41.0959ZM8.91371 40.2809C9.18857 40.2809 9.42081 40.2085 9.61044 40.0636C9.8022 39.9165 9.94709 39.7131 10.0451 39.4531C10.1452 39.1932 10.1953 38.8906 10.1953 38.5455C10.1953 38.2045 10.1463 37.9062 10.0483 37.6506C9.95028 37.3949 9.80646 37.1957 9.61683 37.0529C9.4272 36.9102 9.19283 36.8388 8.91371 36.8388C8.62607 36.8388 8.38636 36.9134 8.1946 37.0625C8.00284 37.2116 7.85795 37.4151 7.75994 37.6729C7.66406 37.9308 7.61612 38.2216 7.61612 38.5455C7.61612 38.8736 7.66513 39.1687 7.76314 39.4308C7.86115 39.6928 8.00604 39.9006 8.1978 40.054C8.39169 40.2053 8.63033 40.2809 8.91371 40.2809ZM14.3366 41.0959C13.9403 41.0959 13.5866 40.9947 13.2755 40.7923C12.9665 40.5877 12.7236 40.2969 12.5468 39.9197C12.3721 39.5405 12.2847 39.0856 12.2847 38.555C12.2847 38.0245 12.3731 37.5707 12.55 37.1935C12.729 36.8164 12.974 36.5277 13.2851 36.3274C13.5961 36.1271 13.9488 36.027 14.343 36.027C14.6476 36.027 14.8927 36.0781 15.078 36.1804C15.2655 36.2805 15.4104 36.3977 15.5127 36.532C15.6171 36.6662 15.6981 36.7844 15.7556 36.8867H15.8131V34.4545H16.7687V41H15.8355V40.2362H15.7556C15.6981 40.3406 15.615 40.4599 15.5063 40.5941C15.3998 40.7283 15.2528 40.8455 15.0653 40.9457C14.8778 41.0458 14.6349 41.0959 14.3366 41.0959ZM14.5475 40.2809C14.8224 40.2809 15.0546 40.2085 15.2442 40.0636C15.436 39.9165 15.5809 39.7131 15.6789 39.4531C15.779 39.1932 15.8291 38.8906 15.8291 38.5455C15.8291 38.2045 15.7801 37.9062 15.6821 37.6506C15.5841 37.3949 15.4403 37.1957 15.2506 37.0529C15.061 36.9102 14.8266 36.8388 14.5475 36.8388C14.2599 36.8388 14.0202 36.9134 13.8284 37.0625C13.6366 37.2116 13.4917 37.4151 13.3937 37.6729C13.2979 37.9308 13.2499 38.2216 13.2499 38.5455C13.2499 38.8736 13.2989 39.1687 13.3969 39.4308C13.4949 39.6928 13.6398 39.9006 13.8316 40.054C14.0255 40.2053 14.2641 40.2809 14.5475 40.2809ZM20.5912 34.4545H21.7897L23.8735 39.5426H23.9502L26.034 34.4545H27.2325V41H26.2929V36.2635H26.2322L24.3018 40.9904H23.5219L21.5915 36.2603H21.5308V41H20.5912V34.4545ZM30.6594 41.0991C30.1992 41.0991 29.7976 40.9936 29.4545 40.7827C29.1115 40.5717 28.8452 40.2766 28.6555 39.8974C28.4659 39.5181 28.3711 39.0749 28.3711 38.5678C28.3711 38.0586 28.4659 37.6133 28.6555 37.2319C28.8452 36.8505 29.1115 36.5543 29.4545 36.3434C29.7976 36.1325 30.1992 36.027 30.6594 36.027C31.1197 36.027 31.5213 36.1325 31.8643 36.3434C32.2074 36.5543 32.4737 36.8505 32.6634 37.2319C32.853 37.6133 32.9478 38.0586 32.9478 38.5678C32.9478 39.0749 32.853 39.5181 32.6634 39.8974C32.4737 40.2766 32.2074 40.5717 31.8643 40.7827C31.5213 40.9936 31.1197 41.0991 30.6594 41.0991ZM30.6626 40.2969C30.9609 40.2969 31.2081 40.218 31.4041 40.0604C31.6001 39.9027 31.745 39.6928 31.8388 39.4308C31.9347 39.1687 31.9826 38.88 31.9826 38.5646C31.9826 38.2514 31.9347 37.9638 31.8388 37.7017C31.745 37.4375 31.6001 37.2255 31.4041 37.0657C31.2081 36.9059 30.9609 36.826 30.6626 36.826C30.3622 36.826 30.1129 36.9059 29.9148 37.0657C29.7188 37.2255 29.5728 37.4375 29.4769 37.7017C29.3832 37.9638 29.3363 38.2514 29.3363 38.5646C29.3363 38.88 29.3832 39.1687 29.4769 39.4308C29.5728 39.6928 29.7188 39.9027 29.9148 40.0604C30.1129 40.218 30.3622 40.2969 30.6626 40.2969ZM34.0145 41V36.0909H34.9381V36.8707H34.9893C35.0787 36.6065 35.2364 36.3988 35.4623 36.2475C35.6903 36.0941 35.9481 36.0174 36.2357 36.0174C36.2954 36.0174 36.3657 36.0195 36.4466 36.0238C36.5297 36.0281 36.5947 36.0334 36.6416 36.0398V36.9538C36.6032 36.9432 36.5351 36.9315 36.4371 36.9187C36.339 36.9038 36.241 36.8963 36.143 36.8963C35.9172 36.8963 35.7158 36.9442 35.539 37.0401C35.3643 37.1339 35.2258 37.2649 35.1235 37.4332C35.0212 37.5994 34.9701 37.7891 34.9701 38.0021V41H34.0145ZM39.4086 41.0991C38.9249 41.0991 38.5083 40.9957 38.1589 40.7891C37.8116 40.5803 37.5431 40.2873 37.3535 39.9102C37.166 39.5309 37.0723 39.0866 37.0723 38.5774C37.0723 38.0746 37.166 37.6314 37.3535 37.2479C37.5431 36.8643 37.8074 36.565 38.1461 36.3498C38.487 36.1346 38.8855 36.027 39.3414 36.027C39.6184 36.027 39.8869 36.0728 40.1468 36.1644C40.4068 36.256 40.6401 36.3999 40.8468 36.5959C41.0534 36.7919 41.2164 37.0465 41.3358 37.3597C41.4551 37.6708 41.5147 38.049 41.5147 38.4943V38.8331H37.6124V38.1172H40.5783C40.5783 37.8658 40.5272 37.6431 40.4249 37.4492C40.3226 37.2532 40.1788 37.0987 39.9934 36.9858C39.8102 36.8729 39.595 36.8164 39.3478 36.8164C39.0794 36.8164 38.845 36.8825 38.6447 37.0146C38.4466 37.1445 38.2931 37.315 38.1845 37.5259C38.0779 37.7347 38.0247 37.9616 38.0247 38.2067V38.766C38.0247 39.0941 38.0822 39.3732 38.1973 39.6033C38.3145 39.8335 38.4775 40.0092 38.6863 40.1307C38.8951 40.25 39.139 40.3097 39.4181 40.3097C39.5993 40.3097 39.7644 40.2841 39.9135 40.233C40.0627 40.1797 40.1916 40.1009 40.3002 39.9964C40.4089 39.892 40.492 39.7631 40.5495 39.6097L41.454 39.7727C41.3816 40.0391 41.2516 40.2724 41.0641 40.4727C40.8787 40.6708 40.6454 40.8253 40.3642 40.9361C40.085 41.0447 39.7665 41.0991 39.4086 41.0991Z" fill="#888E9D"/>
<g clip-path="url(#clip0_57_151)">
<path d="M19.5001 10.4767C17.2804 10.4767 15.4768 12.2802 15.4768 14.5C15.4768 16.7197 17.2804 18.5233 19.5001 18.5233C21.7199 18.5233 23.5234 16.7197 23.5234 14.5C23.5234 12.2802 21.7199 10.4767 19.5001 10.4767ZM19.1949 13.3069C18.6955 13.3069 18.2792 13.7231 18.2792 14.2225H16.9474C16.9751 12.9739 17.974 11.975 19.1949 11.975V13.3069Z" fill="#888E9D"/>
<path d="M31.7087 13.6676C30.3491 11.975 25.4933 6.45338 19.5 6.45338C13.5067 6.45338 8.65094 11.975 7.29134 13.6676C6.90289 14.1393 6.90289 14.833 7.29134 15.3324C8.65094 17.025 13.5067 22.5466 19.5 22.5466C25.4933 22.5466 30.3491 17.025 31.7087 15.3324C32.0971 14.8607 32.0971 14.167 31.7087 13.6676ZM19.5 20.3269C16.2814 20.3269 13.6731 17.7186 13.6731 14.5C13.6731 11.2814 16.2814 8.67314 19.5 8.67314C22.7186 8.67314 25.3269 11.2814 25.3269 14.5C25.3269 17.7186 22.7186 20.3269 19.5 20.3269Z" fill="#888E9D"/>
</g>
<g clip-path="url(#clip1_57_151)">
<path d="M35.1211 4.12109H31.8789V0.878906C31.8789 0.393496 31.4854 0 31 0C30.5146 0 30.1211 0.393496 30.1211 0.878906V4.12109H26.8789C26.3935 4.12109 26 4.51459 26 5C26 5.48541 26.3935 5.87891 26.8789 5.87891H30.1211V9.12109C30.1211 9.6065 30.5146 10 31 10C31.4854 10 31.8789 9.6065 31.8789 9.12109V5.87891H35.1211C35.6065 5.87891 36 5.48541 36 5C36 4.51459 35.6065 4.12109 35.1211 4.12109Z" fill="#888E9D"/>
</g>
<defs>
<clipPath id="clip0_57_151">
<rect width="25" height="25" fill="white" transform="translate(7 2)"/>
</clipPath>
<clipPath id="clip1_57_151">
<rect width="10" height="10" fill="white" transform="translate(26)"/>
</clipPath>
</defs>
</svg>
