<svg width="18" height="20" viewBox="0 0 18 20" fill="none" xmlns="http://www.w3.org/2000/svg">
<path d="M9.56494 10.7821C8.59568 10.7821 7.80713 11.5707 7.80713 12.5401V14.6887H11.3228V12.5401C11.3228 11.5707 10.5342 10.7821 9.56494 10.7821Z" fill="#008541"/>
<path d="M7.80713 17.6187C7.80713 18.588 8.59568 19.3767 9.56494 19.3767C10.5342 19.3767 11.3228 18.588 11.3228 17.6187V15.8607H7.80713V17.6187Z" fill="#008541"/>
<path d="M15.4243 11.9364V4.68789H11.3228C10.9992 4.68789 10.7368 4.42555 10.7368 4.10191V0H0.775879C0.452285 0 0.189941 0.262344 0.189941 0.585977V18.2046C0.189941 18.5282 0.452285 18.7906 0.775879 18.7906H6.88061C6.72322 18.4314 6.63525 18.0352 6.63525 17.6186V12.5401C6.63525 10.9246 7.94951 9.61019 9.56494 9.61019C11.0531 9.61019 12.2848 10.726 12.4697 12.1648C13.4132 11.7676 14.4603 11.6987 15.4243 11.9364ZM5.46338 15.2747H3.11963C2.79604 15.2747 2.53369 15.0123 2.53369 14.6887C2.53369 14.3651 2.79604 14.1027 3.11963 14.1027H5.46338C5.78697 14.1027 6.04932 14.3651 6.04932 14.6887C6.04932 15.0123 5.78697 15.2747 5.46338 15.2747ZM6.65479 10.6064H3.13916C2.81557 10.6064 2.55322 10.344 2.55322 10.0204C2.55322 9.69676 2.81557 9.43441 3.13916 9.43441H6.65479C6.97838 9.43441 7.24072 9.69676 7.24072 10.0204C7.24072 10.344 6.97838 10.6064 6.65479 10.6064ZM8.979 8.24289H3.11963C2.79604 8.24289 2.53369 7.98055 2.53369 7.65691C2.53369 7.33328 2.79604 7.07094 3.11963 7.07094H8.979C9.3026 7.07094 9.56494 7.33328 9.56494 7.65691C9.56494 7.98055 9.3026 8.24289 8.979 8.24289ZM8.979 5.89894H3.11963C2.79604 5.89894 2.53369 5.6366 2.53369 5.31297C2.53369 4.98934 2.79604 4.72699 3.11963 4.72699H8.979C9.3026 4.72699 9.56494 4.98934 9.56494 5.31297C9.56494 5.6366 9.3026 5.89894 8.979 5.89894Z" fill="#008541"/>
<path d="M11.9087 0.343262V3.51588H15.0811L11.9087 0.343262Z" fill="#008541"/>
<path d="M12.4946 13.4636V17.4541L16.3284 13.6201C15.1922 12.8115 13.6794 12.7593 12.4946 13.4636Z" fill="#008541"/>
<path d="M17.1564 14.4491L12.2554 19.3506C12.8625 19.7827 13.5766 20 14.2914 20C17.1504 20 18.8032 16.7638 17.1564 14.4491Z" fill="#008541"/>
</svg>
