<svg width="20" height="20" viewBox="0 0 20 20" fill="none" xmlns="http://www.w3.org/2000/svg">
<g clip-path="url(#clip0_302_638)">
<path d="M2.93823 4.39819H11.8582V5.84403H2.93823V4.39819ZM16.2271 15.2691C16.5656 14.6687 16.6986 13.9741 16.6056 13.2912C16.5127 12.6083 16.199 11.9745 15.7123 11.4865C15.4201 11.1927 15.0725 10.9597 14.6896 10.8012C14.3067 10.6427 13.8962 10.5618 13.4818 10.563C12.6375 10.563 11.8452 10.8914 11.2502 11.4865C10.6551 12.0815 10.3267 12.8727 10.3267 13.7181C10.3259 14.1326 10.4071 14.5431 10.5656 14.9261C10.724 15.3091 10.9567 15.657 11.2502 15.9497C11.8452 16.5426 12.6364 16.871 13.4796 16.871C14.0241 16.8719 14.5595 16.7319 15.0338 16.4645L18.5693 20L19.7626 18.8056L16.2271 15.2691ZM14.8095 15.0447C14.1028 15.7514 12.8629 15.7514 12.1562 15.0447C11.8049 14.6924 11.6075 14.2151 11.6075 13.7175C11.6075 13.22 11.8049 12.7427 12.1562 12.3904C12.5096 12.0371 12.9821 11.842 13.4839 11.842C13.9858 11.842 14.4561 12.0371 14.8106 12.3904C15.165 12.7437 15.3601 13.2163 15.3601 13.7181C15.3601 14.2199 15.1639 14.6903 14.8095 15.0447Z" fill="#008541"/>
<path d="M14.4496 17.6665H2.01263C1.91824 17.6665 1.82771 17.6291 1.76087 17.5624C1.69403 17.4958 1.65633 17.4054 1.65604 17.311V1.77532C1.65604 1.57806 1.81537 1.41874 2.01263 1.41874H14.4496C14.6469 1.41874 14.8051 1.57806 14.8051 1.77532V9.70032C15.3188 9.81314 15.8028 10.0337 16.2249 10.3474V1.77532C16.2244 1.30465 16.0371 0.853426 15.7043 0.520613C15.3715 0.1878 14.9203 0.000573637 14.4496 0L2.01263 0C1.54196 0.000573637 1.09073 0.1878 0.757918 0.520613C0.425105 0.853426 0.237878 1.30465 0.237305 1.77532V17.311C0.238165 17.7815 0.425518 18.2324 0.7583 18.565C1.09108 18.8976 1.54215 19.0847 2.01263 19.0852H14.4496C15.1921 19.0852 15.5432 18.9097 15.8077 18.2615L15.1639 17.6177C14.9265 17.7174 14.5515 17.6665 14.4496 17.6665Z" fill="#008541"/>
<path d="M2.93823 8.47339H11.8582V9.91922H2.93823V8.47339Z" fill="#008541"/>
</g>
<defs>
<clipPath id="clip0_302_638">
<rect width="20" height="20" fill="white"/>
</clipPath>
</defs>
</svg>
