<svg width="12" height="8" viewBox="0 0 12 8" fill="none" xmlns="http://www.w3.org/2000/svg">
<path d="M0.166665 1.5C0.165703 1.33448 0.214054 1.17242 0.305555 1.03449C0.397056 0.896555 0.52756 0.788995 0.68043 0.725523C0.8333 0.662051 1.00161 0.645541 1.1639 0.678099C1.32619 0.710657 1.47511 0.790808 1.59166 0.908332L6 5.325L10.4083 0.908333C10.5653 0.751413 10.7781 0.663256 11 0.663256C11.1099 0.663256 11.2187 0.684899 11.3202 0.726949C11.4217 0.769 11.514 0.830634 11.5917 0.908333C11.6694 0.986031 11.731 1.07827 11.773 1.17979C11.8151 1.28131 11.8367 1.39012 11.8367 1.5C11.8367 1.72192 11.7486 1.93475 11.5917 2.09167L6.59166 7.09167C6.43553 7.24688 6.22432 7.33399 6.00416 7.33399C5.78401 7.33399 5.5728 7.24688 5.41667 7.09167L0.416664 2.09167C0.337924 2.01449 0.275284 1.92245 0.23237 1.82089C0.189456 1.71932 0.167123 1.61025 0.166665 1.5Z" fill="#008541"/>
</svg>
