<svg width="20" height="20" viewBox="0 0 20 20" fill="none" xmlns="http://www.w3.org/2000/svg">
<path d="M19.3825 13.5L17.2158 5.69081C16.7532 4.02033 15.745 2.5526 14.3519 1.52122C12.9588 0.489841 11.2607 -0.045916 9.52789 -0.000782941C7.7951 0.0443501 6.1272 0.66778 4.78965 1.77028C3.45209 2.87279 2.52173 4.39101 2.14666 6.08331L0.470824 13.625C0.389734 13.9904 0.391712 14.3693 0.476612 14.7338C0.561511 15.0983 0.727165 15.4391 0.961353 15.731C1.19554 16.0229 1.49229 16.2586 1.82969 16.4205C2.1671 16.5824 2.53657 16.6666 2.91083 16.6666H5.91666C6.10792 17.6086 6.61894 18.4554 7.36311 19.0636C8.10729 19.6719 9.03887 20.0042 10 20.0042C10.9611 20.0042 11.8927 19.6719 12.6369 19.0636C13.3811 18.4554 13.8921 17.6086 14.0833 16.6666H16.975C17.3601 16.6665 17.7399 16.5773 18.0849 16.4062C18.4299 16.2351 18.7307 15.9865 18.9638 15.68C19.1969 15.3735 19.356 15.0173 19.4288 14.6391C19.5016 14.261 19.486 13.8711 19.3833 13.5H19.3825ZM10 18.3333C9.48478 18.3312 8.9828 18.1699 8.56275 17.8716C8.14269 17.5732 7.82506 17.1524 7.65333 16.6666H12.3467C12.1749 17.1524 11.8573 17.5732 11.4372 17.8716C11.0172 18.1699 10.5152 18.3312 10 18.3333ZM17.6375 14.6708C17.5598 14.7739 17.459 14.8573 17.3432 14.9145C17.2275 14.9716 17.0999 15.0009 16.9708 15H2.91083C2.78604 15 2.66286 14.9719 2.55036 14.9179C2.43787 14.8639 2.33894 14.7854 2.26087 14.688C2.1828 14.5907 2.12759 14.477 2.09931 14.3555C2.07104 14.234 2.07041 14.1076 2.09749 13.9858L3.77333 6.44415C4.06862 5.11599 4.79942 3.92465 5.84954 3.05952C6.89967 2.19439 8.20885 1.70512 9.56897 1.66949C10.9291 1.63386 12.2621 2.05391 13.3561 2.86287C14.4501 3.67183 15.2422 4.82327 15.6067 6.13415L17.7733 13.9433C17.8087 14.0668 17.8149 14.1968 17.7913 14.3231C17.7677 14.4494 17.7151 14.5684 17.6375 14.6708Z" fill="#888E9D"/>
</svg>
