<svg width="82" height="36" viewBox="0 0 82 36" fill="none" xmlns="http://www.w3.org/2000/svg">
<path d="M55.7197 17.2667L57.9378 27L72.3886 19.8667L55.7197 17.2667Z" fill="#E2136E"/>
<path d="M59.8197 2.53333L55.9214 16.6667L72.0525 19.2L59.8197 2.53333Z" fill="#E2136E"/>
<path d="M42.21 0.4L59.3493 2.46667L55.3165 17L42.21 0.4Z" fill="#E2136E"/>
<path d="M42.0083 3.2H44.0247L49.4017 10.0667L42.0083 3.2Z" fill="#E2136E"/>
<path d="M72.8593 19.7333L67.8184 12.8667L75.8839 11.3333L72.8593 19.7333Z" fill="#E2136E"/>
<path d="M72.0525 21.6667L72.523 20.2L59.9541 26.6L72.0525 21.6667Z" fill="#E2136E"/>
<path d="M55.3837 17.5333L58.005 29.3333L50.2083 35.6L55.3837 17.5333Z" fill="#E2136E"/>
<path d="M75.1445 14.8667H79.8494L76.4216 11.4667L75.1445 14.8667Z" fill="#E2136E"/>
<path d="M3.62957 14.1333H13.846V15.6H3.49514V27.4667C3.49514 27.4667 3.02465 27.4 2.7558 27.4C2.48694 27.4 2.15088 27.4667 2.15088 27.4667V15.6V14.1333V14.0667C2.15088 10.6 3.49514 8.6 6.8558 8.4C9.88039 8.2 12.2328 9.93333 13.846 10.8V12.5333L13.6443 12.6C13.3755 11.9333 9.74596 8.93333 7.3935 9.2C4.97383 9.46667 3.49514 11.1333 3.49514 13.3333C3.49514 13.3333 3.49514 13.9333 3.62957 14.1333Z" fill="#E2136E"/>
<path d="M24.6 16.6C27.1541 16.5333 28.4311 17.4 28.4984 19.3333C28.5656 20.4 28.0951 21.4 27.3557 22.2667L26.0787 22.3333V22.1333C26.5492 22 27.6246 21.2667 27.5574 19.9333C27.4902 18.6 26.482 17.5333 24.8689 17.6C24.8689 17.6 24.6 17.6 24.4656 17.6667L24.6 16.6Z" fill="#E2136E"/>
<path d="M12.4346 15.3333H13.846V27.4667L12.4346 27V15.3333Z" fill="#E2136E"/>
<path d="M38.5133 17C37.9756 15.2 36.4297 14.1333 35.287 14.1333H32.2625V15.6H34.2788C35.1526 15.6 36.0264 15.5333 36.8329 16.2667C37.169 16.6 37.3034 16.9333 37.4379 17.4C37.7067 18.5333 37.169 19.9333 35.8247 19.9333C35.4215 19.9333 34.951 19.9333 34.5477 19.8V19.8667C34.8838 20.2667 35.0854 20.8 35.3543 21.2667C36.1608 21.1333 36.9674 20.6667 37.5051 20.1333C38.2444 19.2667 38.7149 18.2 38.5133 17Z" fill="#E2136E"/>
<path d="M40.7312 14.3333C39.8575 14.4667 38.5132 15.2 38.0427 17.0667C37.9083 18.2667 38.2444 19.3333 39.0509 20.1333C39.5214 20.6667 40.2608 21.1333 40.9329 21.2667C41.1345 20.8 41.4034 20.3333 41.6722 19.8667L41.605 19.8C41.269 19.9333 40.8657 19.9333 40.4624 19.9333C39.0509 19.8667 38.8493 18.4667 39.0509 17.4C39.2526 16.4667 40.0591 15.5333 40.9329 15.4667C41.8739 15.4 43.0165 16.1333 43.2181 17.1333C43.3526 17.6667 43.3526 18.2 43.3526 18.7333V27.5333C43.3526 27.5333 43.7558 27.4667 44.0247 27.4667C44.2935 27.4667 44.6968 27.5333 44.6968 27.5333V14.2667H43.2181V15.7333C43.2181 15.6667 43.2853 15.6667 43.2181 15.5333C42.7476 14.6667 41.5378 14.2 40.7312 14.3333Z" fill="#E2136E"/>
<path d="M31.9936 14.1333V15.6V27.4667C31.9936 27.4667 31.5903 27.4 31.3215 27.4C31.0526 27.4 30.6493 27.4667 30.6493 27.4667V15.6H14.1821V14.1333H31.9936Z" fill="#E2136E"/>
<path d="M13.846 27.4667H13.6443C8.40171 27.4667 5.44434 24.6 5.44434 21.7333C5.44434 19.3333 7.66237 16.5333 12.7706 16.5333L13.6443 17.2C10.082 17.2 7.19188 19.4667 7.19188 21.7333C7.19188 23.7333 9.74598 26.9333 13.846 26.9333V27.4667Z" fill="#E2136E"/>
<path d="M23.3901 15.3333H24.8016V27.4667L23.3901 27V15.3333Z" fill="#E2136E"/>
<path d="M24.8018 27.4667H24.6001C19.3575 27.4667 16.4001 24.6 16.4001 21.7333C16.4001 19.3333 18.6182 16.5333 23.7264 16.5333L24.6001 17.2C21.0379 17.2 18.1477 19.4667 18.1477 21.7333C18.1477 23.7333 20.7018 26.9333 24.8018 26.9333V27.4667Z" fill="#E2136E"/>
</svg>
