<svg width="20" height="20" viewBox="0 0 20 20" fill="none" xmlns="http://www.w3.org/2000/svg">
<path d="M3.02222 20H16.9778C18.4407 20 19.6296 18.8111 19.6296 17.3481V4.13331C19.6296 2.67035 18.4407 1.48145 16.9778 1.48145H15.9259V0.740727C15.9259 0.333315 15.5926 0 15.1852 0C14.7777 0 14.4444 0.333315 14.4444 0.740727V1.48145H5.55558V0.740727C5.55558 0.333315 5.2222 0 4.81479 0C4.40738 0 4.07406 0.333315 4.07406 0.740727V1.48145H3.02222C1.55926 1.48145 0.370365 2.67035 0.370365 4.13331V17.3481C0.370365 18.8111 1.55926 20 3.02222 20ZM1.85188 4.13331C1.85188 3.48889 2.3778 2.96297 3.02222 2.96297H4.07406V3.7037C4.07406 4.11111 4.40738 4.44442 4.81479 4.44442C5.2222 4.44442 5.55552 4.11111 5.55552 3.7037V2.96297H14.4444V3.7037C14.4444 4.11111 14.7777 4.44442 15.1852 4.44442C15.5926 4.44442 15.9259 4.11111 15.9259 3.7037V2.96297H16.9777C17.6221 2.96297 18.1481 3.48889 18.1481 4.13331V17.3481C18.1481 17.9926 17.6221 18.5185 16.9777 18.5185H3.02222C2.3778 18.5185 1.85188 17.9926 1.85188 17.3481V4.13331Z" fill="#008541"/>
<path d="M5.74076 8.51849C6.25212 8.51849 6.66667 8.10395 6.66667 7.59258C6.66667 7.08121 6.25212 6.66667 5.74076 6.66667C5.22939 6.66667 4.81485 7.08121 4.81485 7.59258C4.81485 8.10395 5.22939 8.51849 5.74076 8.51849Z" fill="#008541"/>
<path d="M9.81482 8.51849C10.3262 8.51849 10.7407 8.10395 10.7407 7.59258C10.7407 7.08121 10.3262 6.66667 9.81482 6.66667C9.30345 6.66667 8.88891 7.08121 8.88891 7.59258C8.88891 8.10395 9.30345 8.51849 9.81482 8.51849Z" fill="#008541"/>
<path d="M13.8889 8.51849C14.4002 8.51849 14.8148 8.10395 14.8148 7.59258C14.8148 7.08121 14.4002 6.66667 13.8889 6.66667C13.3775 6.66667 12.963 7.08121 12.963 7.59258C12.963 8.10395 13.3775 8.51849 13.8889 8.51849Z" fill="#008541"/>
<path d="M5.74076 12.2222C6.25212 12.2222 6.66667 11.8076 6.66667 11.2963C6.66667 10.7849 6.25212 10.3704 5.74076 10.3704C5.22939 10.3704 4.81485 10.7849 4.81485 11.2963C4.81485 11.8076 5.22939 12.2222 5.74076 12.2222Z" fill="#008541"/>
<path d="M9.81482 12.2222C10.3262 12.2222 10.7407 11.8076 10.7407 11.2963C10.7407 10.7849 10.3262 10.3704 9.81482 10.3704C9.30345 10.3704 8.88891 10.7849 8.88891 11.2963C8.88891 11.8076 9.30345 12.2222 9.81482 12.2222Z" fill="#008541"/>
<path d="M13.8889 12.2222C14.4002 12.2222 14.8148 11.8076 14.8148 11.2963C14.8148 10.7849 14.4002 10.3704 13.8889 10.3704C13.3775 10.3704 12.963 10.7849 12.963 11.2963C12.963 11.8076 13.3775 12.2222 13.8889 12.2222Z" fill="#008541"/>
<path d="M5.74076 15.9259C6.25212 15.9259 6.66667 15.5113 6.66667 15C6.66667 14.4886 6.25212 14.0741 5.74076 14.0741C5.22939 14.0741 4.81485 14.4886 4.81485 15C4.81485 15.5113 5.22939 15.9259 5.74076 15.9259Z" fill="#008541"/>
<path d="M9.81482 15.9259C10.3262 15.9259 10.7407 15.5113 10.7407 15C10.7407 14.4886 10.3262 14.0741 9.81482 14.0741C9.30345 14.0741 8.88891 14.4886 8.88891 15C8.88891 15.5113 9.30345 15.9259 9.81482 15.9259Z" fill="#008541"/>
<path d="M13.8889 15.9259C14.4002 15.9259 14.8148 15.5113 14.8148 15C14.8148 14.4886 14.4002 14.0741 13.8889 14.0741C13.3775 14.0741 12.963 14.4886 12.963 15C12.963 15.5113 13.3775 15.9259 13.8889 15.9259Z" fill="#008541"/>
</svg>
