<svg width="20" height="20" viewBox="0 0 20 20" fill="none" xmlns="http://www.w3.org/2000/svg">
<g clip-path="url(#clip0_64_261)">
<path d="M11.6227 0.732372C11.3907 0.621705 11.1173 0.651038 10.9173 0.812372L4.432 6.00037H1.33333C0.598667 6.00037 0 6.59904 0 7.33371V12.667C0 13.4017 0.598667 14.0004 1.33333 14.0004H4.432L10.916 19.1884C11.0373 19.2844 11.1853 19.3337 11.3333 19.3337C11.432 19.3337 11.5307 19.3124 11.6227 19.2684C11.8533 19.1564 12 18.923 12 18.667V1.33371C12 1.07771 11.8533 0.844372 11.6227 0.732372ZM4 12.667H1.33333V7.33371H4V12.667ZM10.6667 17.279L5.33333 13.0124V6.98837L10.6667 2.72171V17.279Z" fill="#008541"/>
<path d="M15.3762 5.28571C15.1136 5.02571 14.6922 5.02971 14.4336 5.29104C14.1749 5.55371 14.1776 5.97504 14.4389 6.23371C15.4456 7.22971 16.0002 8.56704 16.0002 10.0004C16.0002 11.4337 15.4456 12.771 14.4389 13.767C14.1762 14.0257 14.1736 14.447 14.4336 14.7097C14.5642 14.8417 14.7362 14.907 14.9069 14.907C15.0762 14.907 15.2456 14.843 15.3762 14.7137C16.6389 13.467 17.3336 11.7937 17.3336 10.0004C17.3336 8.20704 16.6389 6.53371 15.3762 5.28571Z" fill="#008541"/>
<path d="M17.2558 3.40704C16.9945 3.14837 16.5718 3.14971 16.3131 3.41104C16.0545 3.67237 16.0558 4.09504 16.3171 4.35371C17.8318 5.85637 18.6665 7.86171 18.6665 10.0004C18.6665 12.139 17.8318 14.1444 16.3171 15.647C16.0558 15.9057 16.0545 16.3284 16.3131 16.5897C16.4438 16.7217 16.6145 16.787 16.7865 16.787C16.9558 16.787 17.1251 16.723 17.2558 16.5937C19.0251 14.839 19.9998 12.4977 19.9998 10.0004C19.9998 7.50304 19.0251 5.16171 17.2558 3.40704Z" fill="#008541"/>
</g>
<defs>
<clipPath id="clip0_64_261">
<rect width="20" height="20" fill="white"/>
</clipPath>
</defs>
</svg>
