<svg width="14" height="20" viewBox="0 0 14 20" fill="none" xmlns="http://www.w3.org/2000/svg">
<path d="M13.7174 10.7454C13.7174 10.4161 13.4503 10.1491 13.1209 10.1491C12.7915 10.1491 12.5244 10.4161 12.5244 10.7454C12.5244 13.6629 10.1511 16.0362 7.23361 16.0362C4.31628 16.0362 1.94293 13.6629 1.94293 10.7454C1.94293 10.4161 1.6759 10.1491 1.34647 10.1491C1.01703 10.1491 0.75 10.4161 0.75 10.7454C0.75 14.1196 3.34064 16.8993 6.63715 17.2014V18.8071H4.42371C4.09427 18.8071 3.82724 19.0741 3.82724 19.4035C3.82724 19.733 4.09427 20 4.42371 20H10.0437C10.373 20 10.64 19.733 10.64 19.4035C10.64 19.0741 10.373 18.8071 10.0437 18.8071H7.83008V17.2014C11.1267 16.8994 13.7174 14.1196 13.7174 10.7454Z" fill="black"/>
<path d="M7.23352 14.5645C9.33939 14.5645 11.0526 12.8513 11.0526 10.7454V3.81897C11.0526 1.71326 9.33939 0 7.23352 0C5.12781 0 3.41455 1.71326 3.41455 3.81897V10.7454C3.41455 12.8513 5.12781 14.5645 7.23352 14.5645ZM4.60733 3.81897C4.60733 2.37091 5.78546 1.19293 7.23352 1.19293C8.68158 1.19293 9.85971 2.37091 9.85971 3.81897V10.7454C9.85971 12.1935 8.68158 13.3716 7.23352 13.3716C5.78546 13.3716 4.60733 12.1935 4.60733 10.7454V3.81897Z" fill="black"/>
</svg>
