<svg width="20" height="20" viewBox="0 0 20 20" fill="none" xmlns="http://www.w3.org/2000/svg">
<path d="M9.59402 1.3435L8.42215 0.171621C8.19332 -0.057207 7.82234 -0.057207 7.59352 0.171621C7.36469 0.400449 7.36469 0.771426 7.59352 1.00025L7.76512 1.17189H5.66406C4.6948 1.17189 3.90625 1.96045 3.90625 2.92971V3.71096C3.90625 4.03455 4.16859 4.29689 4.49219 4.29689C4.81578 4.29689 5.07812 4.03455 5.07812 3.71096V2.92971C5.07812 2.60662 5.34098 2.34377 5.66406 2.34377H7.76512L7.59352 2.51537C7.36469 2.7442 7.36469 3.11518 7.59352 3.344C7.82234 3.57283 8.19332 3.57283 8.42215 3.344L9.59402 2.17213C9.82285 1.94334 9.82285 1.57232 9.59402 1.3435Z" fill="#008541"/>
<path d="M18.2422 0H12.7734C11.8042 0 11.0156 0.788555 11.0156 1.75781V12.6953C11.0156 13.6646 11.8042 14.4531 12.7734 14.4531H18.2422C19.2114 14.4531 20 13.6646 20 12.6953V1.75781C20 0.788555 19.2115 0 18.2422 0ZM16.2891 12.6953H14.7266C14.403 12.6953 14.1406 12.433 14.1406 12.1094C14.1406 11.7858 14.403 11.5234 14.7266 11.5234H16.2891C16.6127 11.5234 16.875 11.7858 16.875 12.1094C16.875 12.433 16.6127 12.6953 16.2891 12.6953Z" fill="#008541"/>
<path d="M7.22656 5.54688H1.75781C0.788555 5.54688 0 6.33543 0 7.30469V18.2422C0 19.2114 0.788555 20 1.75781 20H7.22656C8.19582 20 8.98438 19.2114 8.98438 18.2422V7.30469C8.98438 6.33543 8.19586 5.54688 7.22656 5.54688ZM5.27344 18.2422H3.71094C3.38734 18.2422 3.125 17.9798 3.125 17.6562C3.125 17.3327 3.38734 17.0703 3.71094 17.0703H5.27344C5.59703 17.0703 5.85938 17.3327 5.85938 17.6562C5.85938 17.9798 5.59703 18.2422 5.27344 18.2422Z" fill="#008541"/>
<path d="M10.406 18.6565L11.5779 19.8284C11.8067 20.0572 12.1777 20.0572 12.4065 19.8284C12.6353 19.5996 12.6353 19.2286 12.4065 18.9998L12.2349 18.8281H14.336C15.3052 18.8281 16.0938 18.0396 16.0938 17.0703V16.2891C16.0938 15.9655 15.8314 15.7031 15.5078 15.7031C15.1842 15.7031 14.9219 15.9655 14.9219 16.2891V17.0703C14.9219 17.3934 14.659 17.6562 14.336 17.6562H12.2349L12.4065 17.4846C12.6353 17.2558 12.6353 16.8848 12.4065 16.656C12.1777 16.4272 11.8067 16.4272 11.5779 16.656L10.406 17.8279C10.1772 18.0567 10.1772 18.4277 10.406 18.6565Z" fill="#008541"/>
</svg>
