<svg width="50" height="50" viewBox="0 0 50 50" fill="none" xmlns="http://www.w3.org/2000/svg">
<g clip-path="url(#clip0_134_275)">
<path d="M39.5833 0H10.4167C4.6666 0.00693359 0.00693359 4.6666 0 10.4167V39.5834C0.00693359 45.3334 4.6666 49.9932 10.4167 50H39.5834C45.3334 49.9932 49.9932 45.3334 50 39.5833V10.4167C49.9932 4.6666 45.3334 0.00693359 39.5833 0ZM41.6667 16.8313L22.3875 36.1105C20.7606 37.738 18.1225 37.7385 16.4949 36.1116L16.4937 36.1105L8.3333 27.9522C7.51807 27.1369 7.51807 25.8152 8.3333 25.0001C9.14853 24.185 10.4702 24.1849 11.2854 25.0001L19.4437 33.1584L38.7249 13.8792C39.5401 13.0669 40.8595 13.0692 41.6718 13.8844C42.4842 14.6996 42.4818 16.0189 41.6667 16.8313Z" fill="#008541"/>
</g>
<defs>
<clipPath id="clip0_134_275">
<rect width="50" height="50" fill="white"/>
</clipPath>
</defs>
</svg>
