<svg width="11" height="12" viewBox="0 0 11 12" fill="none" xmlns="http://www.w3.org/2000/svg">
<circle cx="5.5" cy="6" r="5.5" fill="white"/>
<g clip-path="url(#clip0_317_621)">
<path d="M3.76788 7.36136L5.0937 6.03553L3.76788 4.70971C3.64584 4.58767 3.64584 4.3898 3.76788 4.26777C3.88992 4.14573 4.08778 4.14573 4.20982 4.26777L5.53564 5.59359L6.86147 4.26777C6.98351 4.14573 7.18137 4.14573 7.30341 4.26777C7.42545 4.3898 7.42545 4.58767 7.30341 4.70971L5.97759 6.03553L7.30341 7.36136C7.42545 7.4834 7.42545 7.68126 7.30341 7.8033C7.18137 7.92534 6.98351 7.92534 6.86147 7.8033L5.53564 6.47748L4.20982 7.8033C4.08778 7.92534 3.88992 7.92534 3.76788 7.8033C3.64584 7.68126 3.64584 7.4834 3.76788 7.36136Z" fill="#008541"/>
</g>
<defs>
<clipPath id="clip0_317_621">
<rect width="5" height="5" fill="white" transform="matrix(-0.707107 0.707107 0.707107 0.707107 5.53564 2.5)"/>
</clipPath>
</defs>
</svg>
