<svg width="21" height="18" viewBox="0 0 21 18" fill="none" xmlns="http://www.w3.org/2000/svg">
<path d="M18.5292 2.54153C18.4214 1.15029 17.2557 0.0510254 15.8374 0.0510254H3.20086C1.7116 0.0510254 0.5 1.26263 0.5 2.75188V15.2481C0.5 16.7374 1.7116 17.949 3.20086 17.949H17.7992C19.2884 17.949 20.5 16.7374 20.5 15.2481V5.1413C20.5 3.90505 19.6648 2.8609 18.5292 2.54153ZM3.20086 1.31274H15.8374C16.524 1.31274 17.0994 1.79617 17.2422 2.44048H3.20086C2.67208 2.44048 2.17871 2.59382 1.76172 2.85751V2.75188C1.76172 1.95834 2.40732 1.31274 3.20086 1.31274ZM17.7991 16.6873H3.20086C2.40732 16.6873 1.76172 16.0417 1.76172 15.2481V5.1413C1.76172 4.34776 2.40732 3.70215 3.20086 3.70215H17.7992C18.5927 3.70215 19.2383 4.34776 19.2383 5.1413V7.34291H15.2156C13.6215 7.34291 12.3246 8.63984 12.3246 10.2339C12.3246 11.828 13.6215 13.125 15.2156 13.125H19.2383V15.2481C19.2383 16.0417 18.5927 16.6873 17.7991 16.6873ZM19.2383 11.8632H15.2156C14.3172 11.8632 13.5863 11.1324 13.5863 10.2339C13.5863 9.33551 14.3172 8.60463 15.2156 8.60463H19.2383V11.8632Z" fill="#888E9D"/>
</svg>
