<svg width="18" height="20" viewBox="0 0 18 20" fill="none" xmlns="http://www.w3.org/2000/svg">
<path d="M15.5075 0H2.49288C2.06157 0.000492083 1.64806 0.172048 1.34308 0.477031C1.0381 0.782013 0.866541 1.19552 0.866049 1.62683V17.8561C0.863996 18.1611 0.948958 18.4605 1.11097 18.719C1.27299 18.9775 1.50534 19.1844 1.78079 19.3156C2.06117 19.4504 2.37411 19.5026 2.68307 19.4662C2.99204 19.4299 3.28428 19.3063 3.52568 19.1101C3.66888 18.9836 3.85529 18.917 4.04627 18.9242C4.37349 18.9242 4.51107 19.0395 4.80483 19.3249C5.01838 19.5725 5.2828 19.7711 5.58006 19.9073C5.87732 20.0434 6.20045 20.1139 6.52741 20.1139C6.85438 20.1139 7.1775 20.0434 7.47476 19.9073C7.77203 19.7711 8.03644 19.5725 8.24999 19.3249C8.54747 19.0395 8.6804 18.9242 9.0067 18.9242C9.33299 18.9242 9.46593 19.0395 9.76248 19.3249C9.97576 19.5719 10.2398 19.7701 10.5365 19.906C10.8333 20.0419 11.1559 20.1122 11.4823 20.1122C11.8087 20.1122 12.1312 20.0419 12.428 19.906C12.7248 19.7701 12.9888 19.5719 13.2021 19.3249C13.4995 19.0395 13.6325 18.9242 13.9588 18.9242C14.1458 18.9166 14.3287 18.9808 14.4701 19.1036C14.7124 19.2996 15.0054 19.4227 15.315 19.4586C15.6245 19.4945 15.9379 19.4417 16.2187 19.3063C16.4934 19.1752 16.725 18.9686 16.8866 18.7106C17.0481 18.4526 17.1327 18.1539 17.1306 17.8496V1.62683C17.1301 1.19616 16.9591 0.783217 16.6549 0.47834C16.3507 0.173464 15.9382 0.00147461 15.5075 0ZM5.28173 14.6415C5.09787 14.6415 4.91813 14.5869 4.76526 14.4848C4.61238 14.3826 4.49323 14.2375 4.42287 14.0676C4.35251 13.8977 4.3341 13.7108 4.36997 13.5305C4.40584 13.3502 4.49438 13.1845 4.62439 13.0545C4.7544 12.9245 4.92004 12.836 5.10037 12.8001C5.28069 12.7642 5.46761 12.7826 5.63747 12.853C5.80734 12.9233 5.95253 13.0425 6.05467 13.1954C6.15682 13.3482 6.21134 13.528 6.21134 13.7118C6.21134 13.9584 6.1134 14.1948 5.93906 14.3692C5.76473 14.5435 5.52828 14.6415 5.28173 14.6415ZM5.28173 9.99337C5.09787 9.99337 4.91813 9.93885 4.76526 9.83671C4.61238 9.73456 4.49323 9.58937 4.42287 9.41951C4.35251 9.24964 4.3341 9.06273 4.36997 8.8824C4.40584 8.70207 4.49438 8.53643 4.62439 8.40642C4.7544 8.27641 4.92004 8.18787 5.10037 8.152C5.28069 8.11613 5.46761 8.13454 5.63747 8.2049C5.80734 8.27526 5.95253 8.39442 6.05467 8.54729C6.15682 8.70016 6.21134 8.8799 6.21134 9.06376C6.21134 9.31031 6.1134 9.54676 5.93906 9.7211C5.76473 9.89543 5.52828 9.99337 5.28173 9.99337ZM5.28173 5.34529C5.09787 5.34529 4.91813 5.29077 4.76526 5.18862C4.61238 5.08648 4.49323 4.94129 4.42287 4.77143C4.35251 4.60156 4.3341 4.41465 4.36997 4.23432C4.40584 4.05399 4.49438 3.88835 4.62439 3.75834C4.7544 3.62833 4.92004 3.53979 5.10037 3.50392C5.28069 3.46805 5.46761 3.48646 5.63747 3.55682C5.80734 3.62718 5.95253 3.74634 6.05467 3.89921C6.15682 4.05208 6.21134 4.23182 6.21134 4.41568C6.21134 4.66223 6.1134 4.89868 5.93906 5.07301C5.76473 5.24735 5.52828 5.34529 5.28173 5.34529ZM12.7187 14.409H7.60577C7.42085 14.409 7.24352 14.3356 7.11276 14.2048C6.98201 14.0741 6.90855 13.8968 6.90855 13.7118C6.90855 13.5269 6.98201 13.3496 7.11276 13.2188C7.24352 13.0881 7.42085 13.0146 7.60577 13.0146H12.7187C12.9036 13.0146 13.0809 13.0881 13.2117 13.2188C13.3424 13.3496 13.4159 13.5269 13.4159 13.7118C13.4159 13.8968 13.3424 14.0741 13.2117 14.2048C13.0809 14.3356 12.9036 14.409 12.7187 14.409ZM12.7187 9.76097H7.60577C7.42085 9.76097 7.24352 9.68751 7.11276 9.55676C6.98201 9.42601 6.90855 9.24867 6.90855 9.06376C6.90855 8.87885 6.98201 8.70151 7.11276 8.57075C7.24352 8.44 7.42085 8.36655 7.60577 8.36655H12.7187C12.9036 8.36655 13.0809 8.44 13.2117 8.57075C13.3424 8.70151 13.4159 8.87885 13.4159 9.06376C13.4159 9.24867 13.3424 9.42601 13.2117 9.55676C13.0809 9.68751 12.9036 9.76097 12.7187 9.76097ZM12.7187 5.11289H7.60577C7.42085 5.11289 7.24352 5.03943 7.11276 4.90868C6.98201 4.77793 6.90855 4.60059 6.90855 4.41568C6.90855 4.23076 6.98201 4.05343 7.11276 3.92267C7.24352 3.79192 7.42085 3.71846 7.60577 3.71846H12.7187C12.9036 3.71846 13.0809 3.79192 13.2117 3.92267C13.3424 4.05343 13.4159 4.23076 13.4159 4.41568C13.4159 4.60059 13.3424 4.77793 13.2117 4.90868C13.0809 5.03943 12.9036 5.11289 12.7187 5.11289Z" fill="#008541"/>
</svg>
