<svg width="21" height="20" viewBox="0 0 21 20" fill="none" xmlns="http://www.w3.org/2000/svg">
<g clip-path="url(#clip0_1263_862)">
<path d="M13.5863 11.4306C13.5863 12.329 14.3172 13.0599 15.2156 13.0599H20.5V9.80127H15.2156C14.3172 9.80131 13.5863 10.5322 13.5863 11.4306ZM16.1066 11.4784C16.1066 11.8412 15.8125 12.1352 15.4498 12.1352C15.087 12.1352 14.793 11.8412 14.793 11.4784C14.793 11.1157 15.087 10.8216 15.4498 10.8216C15.8125 10.8217 16.1066 11.1157 16.1066 11.4784Z" fill="#008541"/>
<path d="M15.2156 14.3216C13.6215 14.3216 12.3246 13.0247 12.3246 11.4306C12.3246 9.83646 13.6215 8.53954 15.2156 8.53954H20.5V6.33792C20.5 4.84866 19.2884 3.63706 17.7991 3.63706H3.20086C1.7116 3.63706 0.5 4.84866 0.5 6.33792V16.4448C0.5 17.934 1.7116 19.1456 3.20086 19.1456H17.7992C19.2884 19.1456 20.5 17.934 20.5 16.4448V14.3216H15.2156ZM3.20086 2.37539C19.0691 2.37539 17.9319 2.3623 18.2802 2.40464C17.8474 1.48927 16.9153 0.854309 15.8374 0.854309H3.20086C1.75071 0.854309 0.564347 2.00322 0.502997 3.4385C1.2109 2.77933 2.15951 2.37539 3.20086 2.37539Z" fill="#008541"/>
</g>
<defs>
<clipPath id="clip0_1263_862">
<rect width="20" height="20" fill="white" transform="translate(0.5)"/>
</clipPath>
</defs>
</svg>
