<svg width="20" height="20" viewBox="0 0 20 20" fill="none" xmlns="http://www.w3.org/2000/svg">
<path d="M14.3809 14.2414C13.6104 13.471 12.357 13.4711 11.5867 14.2414L10.8621 14.966C10.8596 14.9685 10.583 15.2104 10.0283 15.2104C9.3798 15.2104 8.27566 14.8793 6.69816 13.3018C5.17784 11.7815 4.82234 10.703 4.79183 10.0661C4.76331 9.47 5.01222 9.16418 5.0412 9.13066L5.75855 8.41332C6.13175 8.04015 6.33726 7.54398 6.33726 7.01621C6.33726 6.48847 6.13171 5.9923 5.75855 5.61914L4.3957 4.25625C3.62538 3.48589 2.37191 3.48585 1.60155 4.25625L0.876945 4.98085C0.862765 4.99503 0.849328 5.00992 0.836672 5.02546C0.800617 5.0698 -0.0457894 6.13304 0.00194497 8.03468C0.0289762 9.11136 0.33464 10.2489 0.910422 11.4157C1.6112 12.8358 2.7198 14.3091 4.20538 15.7946C5.69097 17.2802 7.16421 18.3888 8.58433 19.0896C9.75112 19.6654 10.8887 19.971 11.9653 19.998C12.0175 19.9994 12.0689 20 12.1198 20C13.9244 20 14.9314 19.1984 14.9746 19.1633C14.9901 19.1507 15.005 19.1372 15.0192 19.123L15.7437 18.3985C16.1169 18.0253 16.3225 17.5291 16.3224 17.0014C16.3224 16.4736 16.1169 15.9775 15.7437 15.6043L14.3809 14.2414Z" fill="#008541"/>
<path d="M14.8642 0C12.0323 0 9.72827 2.30395 9.72827 5.1359C9.72827 7.18066 10.9414 9.01867 12.7874 9.8343V11.1768C12.7874 11.3866 12.8996 11.5804 13.0816 11.6849C13.1719 11.7368 13.2726 11.7627 13.3733 11.7627C13.4754 11.7627 13.5775 11.736 13.6687 11.6828L16.6026 9.96969C18.6374 9.23816 20.0001 7.3032 20.0001 5.1359C20.0001 2.30398 17.6962 0 14.8642 0ZM15.4501 5.72184V6.40461C15.4501 6.7282 15.1878 6.99055 14.8642 6.99055C14.5406 6.99055 14.2782 6.7282 14.2782 6.40461V5.72184H13.5955C13.2719 5.72184 13.0095 5.45949 13.0095 5.1359C13.0095 4.8123 13.2719 4.54996 13.5955 4.54996H14.2782V3.86719C14.2782 3.54359 14.5406 3.28125 14.8642 3.28125C15.1878 3.28125 15.4501 3.54359 15.4501 3.86719V4.54996H16.1329C16.4565 4.54996 16.7189 4.8123 16.7189 5.1359C16.7189 5.45949 16.4565 5.72184 16.1329 5.72184H15.4501Z" fill="#008541"/>
</svg>
