<svg width="18" height="18" viewBox="0 0 18 18" fill="none" xmlns="http://www.w3.org/2000/svg">
<path d="M5.4015 17.9999C5.6789 17.9999 5.9629 17.9983 6.2531 17.9983H11.7465C12.0363 17.9983 12.3203 17.9999 12.5977 17.9999C15.1395 17.9999 17.0817 17.8699 17.0817 15.2127C17.0817 12.4315 14.9547 10.1483 12.2383 9.90015C12.2167 10.8731 9.0007 13.2743 9.0007 13.2743C9.0007 13.2743 5.7839 10.8733 5.7621 9.90035C3.0461 10.1483 0.918701 12.4315 0.918701 15.2127C0.918701 17.8699 2.8601 17.9999 5.4015 17.9999ZM11.4001 14.3713C11.4001 14.2921 11.4715 14.2283 11.5603 14.2283H12.4291V13.3599C12.4291 13.2719 12.4925 13.1997 12.5717 13.1997H13.4291C13.5079 13.1997 13.5717 13.2713 13.5717 13.3599V14.2285H14.4401C14.5281 14.2285 14.6001 14.2923 14.6001 14.3715V15.2285C14.6001 15.3077 14.5287 15.3715 14.4401 15.3715H13.5715V16.2399C13.5715 16.3283 13.5075 16.3999 13.4285 16.3999H12.5715C12.4923 16.3999 12.4285 16.3285 12.4285 16.2399V15.3713H11.5601C11.4717 15.3713 11.3999 15.3075 11.3999 15.2283L11.4001 14.3713Z" fill="#008541"/>
<path d="M9.00175 10.5984C11.4586 10.5984 13.45 6.9042 13.45 4.4476C13.45 1.9914 11.4586 0 9.00175 0C6.54536 0 4.55396 1.9914 4.55396 4.4476C4.55396 6.9042 6.54536 10.5984 9.00175 10.5984Z" fill="#008541"/>
</svg>
