<svg width="21" height="20" viewBox="0 0 21 20" fill="none" xmlns="http://www.w3.org/2000/svg">
<g clip-path="url(#clip0_1263_840)">
<path d="M10.5 12.4938C9.1193 12.4938 8 13.6131 8 14.9938V19.9938H13V14.9938C13 13.6131 11.8807 12.4938 10.5 12.4938Z" fill="#008541"/>
<path d="M14.6667 14.9938V19.9938H18C19.3807 19.9938 20.5 18.8745 20.5 17.4938V9.89295C20.5002 9.46002 20.332 9.04401 20.0308 8.73295L12.9492 1.07709C11.6996 -0.27486 9.59074 -0.357868 8.23879 0.891663C8.17457 0.951038 8.1127 1.01287 8.05336 1.07709L0.98418 8.73045C0.673945 9.0428 0.499883 9.46522 0.5 9.90545V17.4938C0.5 18.8745 1.6193 19.9938 3 19.9938H6.33332V14.9938C6.34891 12.7214 8.18355 10.8658 10.3987 10.8124C12.6879 10.7571 14.6492 12.6444 14.6667 14.9938Z" fill="#008541"/>
<path d="M10.5 12.4938C9.1193 12.4938 8 13.6131 8 14.9938V19.9938H13V14.9938C13 13.6131 11.8807 12.4938 10.5 12.4938Z" fill="#008541"/>
</g>
<defs>
<clipPath id="clip0_1263_840">
<rect width="20" height="20" fill="white" transform="translate(0.5)"/>
</clipPath>
</defs>
</svg>
