<svg width="18" height="12" viewBox="0 0 18 12" fill="none" xmlns="http://www.w3.org/2000/svg">
<path d="M0.118608 11V0.818182H1.65483V5.6804H1.77912L6.04972 0.818182H7.98367L3.87713 5.40199L7.99858 11H6.14915L2.85795 6.45099L1.65483 7.8331V11H0.118608ZM15.8002 4.0348C15.7041 3.73319 15.5749 3.46307 15.4125 3.22443C15.2534 2.98248 15.0628 2.77699 14.8407 2.60795C14.6187 2.43561 14.3651 2.30469 14.0801 2.2152C13.7984 2.12571 13.4885 2.08097 13.1504 2.08097C12.577 2.08097 12.06 2.22846 11.5993 2.52344C11.1386 2.81842 10.774 3.25095 10.5055 3.82102C10.2404 4.38778 10.1078 5.08215 10.1078 5.90412C10.1078 6.7294 10.242 7.42708 10.5105 7.99716C10.7789 8.56723 11.1468 8.99976 11.6142 9.29474C12.0815 9.58973 12.6135 9.73722 13.21 9.73722C13.7636 9.73722 14.2458 9.62453 14.6568 9.39915C15.0711 9.17377 15.3909 8.85559 15.6163 8.4446C15.845 8.0303 15.9593 7.54309 15.9593 6.98295L16.3571 7.05753H13.4437V5.78977H17.4458V6.94815C17.4458 7.80327 17.2636 8.54569 16.899 9.17543C16.5377 9.80185 16.0372 10.2857 15.3975 10.6271C14.7612 10.9685 14.032 11.1392 13.21 11.1392C12.2886 11.1392 11.4799 10.9271 10.7839 10.5028C10.0912 10.0786 9.55096 9.47704 9.16317 8.69815C8.77539 7.91596 8.5815 6.98793 8.5815 5.91406C8.5815 5.10204 8.69419 4.37287 8.91957 3.72656C9.14495 3.08026 9.46147 2.53172 9.86914 2.08097C10.2801 1.62689 10.7624 1.28054 11.3159 1.0419C11.8727 0.799952 12.4809 0.678977 13.1404 0.678977C13.6906 0.678977 14.2027 0.76018 14.6767 0.922585C15.1539 1.08499 15.5782 1.31534 15.9494 1.61364C16.3239 1.91193 16.6338 2.26657 16.8791 2.67756C17.1243 3.08523 17.2901 3.53764 17.3762 4.0348H15.8002Z" fill="#008541"/>
</svg>
