<svg width="13" height="11" viewBox="0 0 13 11" fill="none" xmlns="http://www.w3.org/2000/svg">
<path d="M0.878906 8V-2.38419e-07H2.08594V3.82031H2.18359L5.53906 -2.38419e-07H7.05859L3.83203 3.60156L7.07031 8H5.61719L3.03125 4.42578L2.08594 5.51172V8H0.878906ZM10.165 10.375C9.68848 10.375 9.27832 10.3125 8.93457 10.1875C8.59342 10.0625 8.31478 9.89714 8.09863 9.69141C7.88249 9.48568 7.72103 9.26042 7.61426 9.01563L8.61816 8.60156C8.68848 8.71615 8.78223 8.83724 8.89941 8.96484C9.01921 9.09505 9.18066 9.20573 9.38379 9.29688C9.58952 9.38802 9.85384 9.43359 10.1768 9.43359C10.6195 9.43359 10.9854 9.32552 11.2744 9.10938C11.5635 8.89583 11.708 8.55469 11.708 8.08594V6.90625H11.6338C11.5635 7.03385 11.4619 7.17578 11.3291 7.33203C11.1989 7.48828 11.0192 7.6237 10.79 7.73828C10.5609 7.85286 10.2627 7.91016 9.89551 7.91016C9.42155 7.91016 8.99447 7.79948 8.61426 7.57812C8.23665 7.35417 7.93717 7.02474 7.71582 6.58984C7.49707 6.15234 7.3877 5.61458 7.3877 4.97656C7.3877 4.33854 7.49577 3.79167 7.71191 3.33594C7.93066 2.88021 8.23014 2.53125 8.61035 2.28906C8.99056 2.04427 9.42155 1.92188 9.90332 1.92188C10.2757 1.92188 10.5765 1.98438 10.8057 2.10937C11.0348 2.23177 11.2132 2.375 11.3408 2.53906C11.471 2.70312 11.5713 2.84766 11.6416 2.97266H11.7275V2H12.8721V8.13281C12.8721 8.64844 12.7523 9.07161 12.5127 9.40234C12.2731 9.73307 11.9489 9.97786 11.54 10.1367C11.1338 10.2956 10.6755 10.375 10.165 10.375ZM10.1533 6.94141C10.4893 6.94141 10.7731 6.86328 11.0049 6.70703C11.2393 6.54818 11.4163 6.32161 11.5361 6.02734C11.6585 5.73047 11.7197 5.375 11.7197 4.96094C11.7197 4.55729 11.6598 4.20182 11.54 3.89453C11.4202 3.58724 11.2445 3.34766 11.0127 3.17578C10.7809 3.0013 10.4945 2.91406 10.1533 2.91406C9.80176 2.91406 9.50879 3.00521 9.27441 3.1875C9.04004 3.36719 8.86296 3.61198 8.74316 3.92187C8.62598 4.23177 8.56738 4.57812 8.56738 4.96094C8.56738 5.35417 8.62728 5.69922 8.74707 5.99609C8.86686 6.29297 9.04395 6.52474 9.27832 6.69141C9.5153 6.85807 9.80697 6.94141 10.1533 6.94141Z" fill="#888E9D"/>
</svg>
