<svg width="20" height="20" viewBox="0 0 20 20" fill="none" xmlns="http://www.w3.org/2000/svg">
<path d="M13.0153 4.49349C11.8863 2.18804 9.52441 0.663818 6.87514 0.663818C3.08433 0.663818 0.000301026 3.73035 0.000301026 7.4996C0.000301026 8.52395 0.220218 9.50576 0.65427 10.4212L0.0116679 13.6346C-0.070127 14.0436 0.290724 14.4052 0.699855 14.3242L3.95286 13.6811C4.39086 13.8889 4.84398 14.0469 5.30955 14.1557C4.26594 9.21284 8.01257 4.5731 13.0153 4.49349Z" fill="#008541"/>
<path d="M19.346 15.4212C19.4582 15.1844 19.5558 14.9432 19.6393 14.698H19.6179C21.0807 10.4044 18.0045 5.89189 13.4631 5.67217C13.463 5.67193 13.463 5.6717 13.4629 5.67147C9.55532 5.49139 6.30884 8.62007 6.30884 12.4996C6.30884 16.2657 9.36974 19.3298 13.1346 19.3352C14.1558 19.3339 15.1346 19.114 16.0473 18.6811C19.61 19.3854 19.3322 19.3354 19.414 19.3354C19.7843 19.3354 20.0609 18.9961 19.9886 18.6346L19.346 15.4212Z" fill="#008541"/>
</svg>
