<svg width="10" height="9" viewBox="0 0 10 9" fill="none" xmlns="http://www.w3.org/2000/svg">
<path d="M4.99999 8.89702C4.85763 8.89702 4.72037 8.84544 4.61341 8.75175C4.20943 8.39851 3.81995 8.06656 3.47633 7.77374L3.47457 7.77222C2.46711 6.91368 1.59713 6.17226 0.991819 5.4419C0.31517 4.6254 0 3.85125 0 3.00553C0 2.18385 0.281753 1.42579 0.793303 0.870909C1.31096 0.309463 2.02125 0.000244141 2.79357 0.000244141C3.37081 0.000244141 3.89945 0.182739 4.36477 0.542617C4.5996 0.724272 4.81246 0.946592 4.99999 1.20592C5.1876 0.946592 5.40038 0.724272 5.63529 0.542617C6.1006 0.182739 6.62924 0.000244141 7.20648 0.000244141C7.97873 0.000244141 8.6891 0.309463 9.20675 0.870909C9.7183 1.42579 9.99998 2.18385 9.99998 3.00553C9.99998 3.85125 9.68489 4.6254 9.00824 5.44182C8.40292 6.17226 7.53302 6.91361 6.52571 7.77206C6.18148 8.06534 5.79139 8.39783 5.38649 8.75191C5.27961 8.84544 5.14228 8.89702 4.99999 8.89702ZM2.79357 0.586028C2.18681 0.586028 1.62941 0.828184 1.2239 1.26794C0.812376 1.71434 0.585707 2.3314 0.585707 3.00553C0.585707 3.71682 0.850065 4.35296 1.44279 5.06814C2.01568 5.75943 2.86781 6.4856 3.85444 7.32643L3.85627 7.32796C4.20119 7.62192 4.5922 7.95517 4.99915 8.311C5.40854 7.95448 5.80016 7.6207 6.14577 7.32628C7.13233 6.48545 7.98437 5.75943 8.55726 5.06814C9.14991 4.35296 9.41427 3.71682 9.41427 3.00553C9.41427 2.3314 9.1876 1.71434 8.77608 1.26794C8.37065 0.828184 7.81317 0.586028 7.20648 0.586028C6.762 0.586028 6.3539 0.727324 5.99356 1.00595C5.67244 1.25436 5.44875 1.56839 5.3176 1.78811C5.25016 1.9011 5.13144 1.96855 4.99999 1.96855C4.86854 1.96855 4.74982 1.9011 4.68238 1.78811C4.55131 1.56839 4.32761 1.25436 4.00642 1.00595C3.64608 0.727324 3.23798 0.586028 2.79357 0.586028Z" fill="#008541"/>
</svg>
