<svg width="23" height="9" viewBox="0 0 23 9" fill="none" xmlns="http://www.w3.org/2000/svg">
<path d="M0.789062 -2.38419e-07H2.5625L4.9375 5.79687H5.03125L7.40625 -2.38419e-07H9.17969V8H7.78906V2.50391H7.71484L5.50391 7.97656H4.46484L2.25391 2.49219H2.17969V8H0.789062V-2.38419e-07ZM12.4219 8.12109C12.0417 8.12109 11.6992 8.05339 11.3945 7.91797C11.0924 7.77995 10.8529 7.57682 10.6758 7.30859C10.5013 7.04036 10.4141 6.70964 10.4141 6.31641C10.4141 5.97786 10.4766 5.69792 10.6016 5.47656C10.7266 5.25521 10.8971 5.07812 11.1133 4.94531C11.3294 4.8125 11.5729 4.71224 11.8438 4.64453C12.1172 4.57422 12.3997 4.52344 12.6914 4.49219C13.043 4.45573 13.3281 4.42318 13.5469 4.39453C13.7656 4.36328 13.9245 4.31641 14.0234 4.25391C14.125 4.1888 14.1758 4.08854 14.1758 3.95312V3.92969C14.1758 3.63542 14.0885 3.40755 13.9141 3.24609C13.7396 3.08464 13.4883 3.00391 13.1602 3.00391C12.8138 3.00391 12.5391 3.07943 12.3359 3.23047C12.1354 3.38151 12 3.5599 11.9297 3.76562L10.6094 3.57812C10.7135 3.21354 10.8854 2.90885 11.125 2.66406C11.3646 2.41667 11.6576 2.23177 12.0039 2.10937C12.3503 1.98438 12.7331 1.92188 13.1523 1.92188C13.4414 1.92188 13.7292 1.95573 14.0156 2.02344C14.3021 2.09115 14.5638 2.20312 14.8008 2.35937C15.0378 2.51302 15.2279 2.72266 15.3711 2.98828C15.5169 3.25391 15.5898 3.58594 15.5898 3.98437V8H14.2305V7.17578H14.1836C14.0977 7.34245 13.9766 7.4987 13.8203 7.64453C13.6667 7.78776 13.4727 7.90365 13.2383 7.99219C13.0065 8.07813 12.7344 8.12109 12.4219 8.12109ZM12.7891 7.08203C13.0729 7.08203 13.319 7.02604 13.5273 6.91406C13.7357 6.79948 13.8958 6.64844 14.0078 6.46094C14.1224 6.27344 14.1797 6.06901 14.1797 5.84766V5.14062C14.1354 5.17708 14.0599 5.21094 13.9531 5.24219C13.849 5.27344 13.7318 5.30078 13.6016 5.32422C13.4714 5.34766 13.3424 5.36849 13.2148 5.38672C13.0872 5.40495 12.9766 5.42057 12.8828 5.43359C12.6719 5.46224 12.4831 5.50911 12.3164 5.57422C12.1497 5.63932 12.0182 5.73047 11.9219 5.84766C11.8255 5.96224 11.7773 6.11068 11.7773 6.29297C11.7773 6.55339 11.8724 6.75 12.0625 6.88281C12.2526 7.01562 12.4948 7.08203 12.7891 7.08203ZM18.168 2L19.3789 4.21484L20.6094 2H22.1055L20.2969 5L22.1367 8H20.6484L19.3789 5.83984L18.1211 8H16.6211L18.4492 5L16.668 2H18.168Z" fill="#008541"/>
</svg>
