<svg width="15" height="15" viewBox="0 0 15 15" fill="none" xmlns="http://www.w3.org/2000/svg">
<g clip-path="url(#clip0_6_261)">
<path d="M14.4506 5.66813L9.71001 0.926883C9.12329 0.341876 8.32855 0.0133667 7.50001 0.0133667C6.67147 0.0133667 5.87673 0.341876 5.29001 0.926883L0.549383 5.66813C0.374648 5.84175 0.236114 6.04832 0.141809 6.27587C0.0475045 6.50343 -0.000694 6.74744 7.54968e-06 6.99376V13.1294C7.54968e-06 13.6267 0.197552 14.1036 0.549182 14.4552C0.900813 14.8068 1.37773 15.0044 1.87501 15.0044H13.125C13.6223 15.0044 14.0992 14.8068 14.4508 14.4552C14.8025 14.1036 15 13.6267 15 13.1294V6.99376C15.0007 6.74744 14.9525 6.50343 14.8582 6.27587C14.7639 6.04832 14.6254 5.84175 14.4506 5.66813ZM9.37501 13.7544H5.62501V11.2956C5.62501 10.7984 5.82255 10.3214 6.17418 9.96981C6.52581 9.61818 7.00273 9.42063 7.50001 9.42063C7.99729 9.42063 8.4742 9.61818 8.82583 9.96981C9.17746 10.3214 9.37501 10.7984 9.37501 11.2956V13.7544ZM13.75 13.1294C13.75 13.2951 13.6842 13.4541 13.5669 13.5713C13.4497 13.6885 13.2908 13.7544 13.125 13.7544H10.625V11.2956C10.625 10.4668 10.2958 9.67198 9.70972 9.08592C9.12366 8.49987 8.32881 8.17063 7.50001 8.17063C6.67121 8.17063 5.87635 8.49987 5.2903 9.08592C4.70425 9.67198 4.37501 10.4668 4.37501 11.2956V13.7544H1.87501C1.70925 13.7544 1.55028 13.6885 1.43307 13.5713C1.31586 13.4541 1.25001 13.2951 1.25001 13.1294V6.99376C1.25059 6.82812 1.31638 6.66937 1.43313 6.55188L6.17376 1.81251C6.52607 1.46184 7.00292 1.26497 7.50001 1.26497C7.99709 1.26497 8.47395 1.46184 8.82626 1.81251L13.5669 6.55376C13.6832 6.67079 13.7489 6.82877 13.75 6.99376V13.1294Z" fill="#888E9D"/>
</g>
<defs>
<clipPath id="clip0_6_261">
<rect width="15" height="15" fill="white"/>
</clipPath>
</defs>
</svg>
