<svg width="15" height="15" viewBox="0 0 15 15" fill="none" xmlns="http://www.w3.org/2000/svg">
<path d="M10.125 4H5.125C4.77982 4 4.5 4.27982 4.5 4.625C4.5 4.97018 4.77982 5.25 5.125 5.25H10.125C10.4702 5.25 10.75 4.97018 10.75 4.625C10.75 4.27982 10.4702 4 10.125 4Z" fill="#BBBBBB"/>
<path d="M10.125 6.75H5.125C4.77982 6.75 4.5 7.02982 4.5 7.375C4.5 7.72018 4.77982 8 5.125 8H10.125C10.4702 8 10.75 7.72018 10.75 7.375C10.75 7.02982 10.4702 6.75 10.125 6.75Z" fill="#BBBBBB"/>
<path d="M10.125 9.5H5.125C4.77982 9.5 4.5 9.77982 4.5 10.125C4.5 10.4702 4.77982 10.75 5.125 10.75H10.125C10.4702 10.75 10.75 10.4702 10.75 10.125C10.75 9.77982 10.4702 9.5 10.125 9.5Z" fill="#BBBBBB"/>
<rect x="0.5" y="0.5" width="14" height="14" rx="2.5" stroke="#BBBBBB"/>
</svg>
