<svg width="250" height="250" viewBox="0 0 250 250" fill="none" xmlns="http://www.w3.org/2000/svg">
<path d="M97.6454 25.69C97.9054 23.825 95.2654 22.29 93.2854 22.13C92.3404 22.05 91.3604 22.195 90.4654 21.885C88.5304 21.21 87.7554 18.705 85.8604 17.885C84.4454 17.29 82.8204 17.82 81.4504 18.51C80.0804 19.2 78.7204 20.07 77.1904 20.17C75.8604 20.255 74.4104 19.76 73.2454 20.41C72.3754 20.91 71.9204 21.91 71.1204 22.485C70.2879 22.9998 69.3239 23.262 68.3454 23.24C67.3696 23.2135 66.3977 23.3713 65.4804 23.705C64.5954 24.11 63.8654 25.05 64.0504 26.005L97.6454 25.69Z" fill="#F5F5F5"/>
<path d="M230.401 136.045C230.831 132.94 226.446 130.385 223.151 130.12C221.581 129.99 219.951 130.23 218.461 129.71C215.241 128.59 213.961 124.425 210.806 123.095C208.456 122.095 205.746 122.99 203.466 124.135C201.186 125.28 198.936 126.725 196.386 126.89C194.171 127.03 191.766 126.21 189.826 127.295C188.381 128.1 187.626 129.765 186.296 130.745C184.966 131.725 183.296 131.91 181.676 132C180.056 132.09 178.386 132.1 176.916 132.775C175.446 133.45 174.226 135.005 174.531 136.595L230.401 136.045Z" fill="#EBEBEB"/>
<path d="M63.7001 60.265C64.0251 57.89 60.6701 55.935 58.1501 55.73C56.9501 55.635 55.7051 55.82 54.5651 55.42C52.1001 54.56 51.1151 51.375 48.7051 50.36C46.9101 49.6 44.8351 50.28 43.0901 51.155C41.3451 52.03 39.6251 53.155 37.6751 53.265C35.9801 53.37 34.1401 52.765 32.6751 53.57C31.5701 54.19 30.9951 55.46 29.9751 56.21C28.9551 56.96 27.6801 57.105 26.4401 57.17C25.2001 57.235 23.9401 57.25 22.8001 57.765C21.6601 58.28 20.7451 59.47 20.9751 60.685L63.7001 60.265Z" fill="#F5F5F5"/>
<path d="M196.436 189.69L185.311 237.99L190.016 237.975L201.161 190.145L196.436 189.69Z" fill="#E0E0E0"/>
<path d="M216.725 189.69L227.89 237.99H232.36L221.56 189.69H216.725Z" fill="#E0E0E0"/>
<path d="M188.925 153.415L195.26 186.67H202.455L195.69 153.415H188.925Z" fill="#E0E0E0"/>
<path d="M78.6102 189.69L69.5352 237.99H74.1552L83.6352 189.69H78.6102Z" fill="#E0E0E0"/>
<path d="M97.6904 189.69L108.06 237.725H112.625L102.61 189.69H97.6904Z" fill="#E0E0E0"/>
<path d="M71.1006 153.415L77.4356 186.67H84.6306L77.8656 153.415H71.1006Z" fill="#E0E0E0"/>
<path d="M56.8496 150.395L58.1446 156.44H202.67L200.985 150.395H56.8496Z" fill="#EBEBEB"/>
<path d="M59.6104 162.135L61.1404 168.18H204.685L203.38 162.135H59.6104Z" fill="#EBEBEB"/>
<path d="M62.4648 174.29L63.8848 180.335H206.99L205.635 174.29H62.4648Z" fill="#EBEBEB"/>
<path d="M227.72 186.67H73.4053V192.715H227.72V186.67Z" fill="#EBEBEB"/>
<path d="M165.19 111.8C163.998 111.8 162.826 111.487 161.793 110.892C160.76 110.297 159.901 109.44 159.304 108.408C158.706 107.377 158.39 106.206 158.388 105.014C158.385 103.821 158.697 102.649 159.29 101.615L178.79 67.6149C179.378 66.5746 180.233 65.7098 181.267 65.1095C182.3 64.5093 183.475 64.1953 184.67 64.1999C185.862 64.1929 187.034 64.502 188.067 65.0958C189.1 65.6896 189.957 66.5468 190.55 67.58L210.25 101.465C210.849 102.497 211.166 103.669 211.169 104.863C211.172 106.056 210.861 107.23 210.267 108.265C209.674 109.3 208.818 110.161 207.787 110.762C206.755 111.362 205.584 111.68 204.39 111.685L165.195 111.805L165.19 111.8ZM184.69 66.225C183.851 66.2224 183.027 66.4434 182.302 66.8652C181.577 67.287 180.977 67.8945 180.565 68.625L161.065 102.625C160.649 103.35 160.43 104.172 160.432 105.008C160.433 105.844 160.654 106.665 161.073 107.389C161.492 108.113 162.094 108.714 162.818 109.132C163.542 109.55 164.364 109.77 165.2 109.77L204.395 109.65C205.229 109.645 206.048 109.421 206.769 109.001C207.49 108.581 208.088 107.979 208.503 107.255C208.918 106.531 209.137 105.711 209.136 104.877C209.136 104.043 208.916 103.223 208.5 102.5L188.8 68.62C188.388 67.8919 187.79 67.2864 187.067 66.8656C186.344 66.4447 185.522 66.2236 184.685 66.225H184.69Z" fill="#EBEBEB"/>
<path d="M180.86 80.935L181.775 93.62C181.809 94.1205 182.027 94.5909 182.385 94.942C182.744 95.2931 183.218 95.5005 183.72 95.525C184.247 95.5521 184.764 95.3759 185.165 95.0325C185.566 94.6892 185.82 94.2051 185.875 93.68L187.175 80.915C187.197 80.6871 187.171 80.4569 187.099 80.2398C187.026 80.0226 186.908 79.8233 186.752 79.6551C186.597 79.4869 186.407 79.3536 186.197 79.2639C185.986 79.1743 185.759 79.1303 185.53 79.135L182.435 79.205C182.216 79.2098 182 79.2591 181.801 79.3497C181.602 79.4404 181.424 79.5706 181.276 79.7324C181.129 79.8941 181.016 80.0842 180.944 80.2909C180.873 80.4976 180.844 80.7167 180.86 80.935Z" fill="#EBEBEB"/>
<path d="M187.145 102.635C186.957 103.217 186.6 103.73 186.12 104.11C185.641 104.489 185.059 104.718 184.449 104.767C183.839 104.816 183.229 104.684 182.694 104.386C182.16 104.088 181.726 103.639 181.446 103.095C181.167 102.55 181.056 101.935 181.126 101.328C181.196 100.72 181.445 100.147 181.84 99.68C182.236 99.2135 182.761 98.8747 183.35 98.7065C183.938 98.5384 184.563 98.5483 185.145 98.735C185.533 98.8593 185.892 99.0588 186.203 99.3222C186.513 99.5856 186.769 99.9077 186.954 100.27C187.14 100.632 187.253 101.028 187.285 101.433C187.318 101.839 187.271 102.248 187.145 102.635Z" fill="#EBEBEB"/>
<path d="M234.905 237.93C234.905 238 185.695 238.06 125.005 238.06C64.3147 238.06 15.0947 238 15.0947 237.93C15.0947 237.86 64.2947 237.8 125.005 237.8C185.715 237.8 234.905 237.855 234.905 237.93Z" fill="#282828"/>
<path d="M158.76 184.29L108.26 184.255C102.19 184.255 97.2598 179.08 97.2598 172.7V39.7C97.2598 33.32 102.19 28.145 108.26 28.15L158.735 28.18C164.81 28.18 169.735 33.355 169.735 39.735L169.71 172.735C169.76 179.12 164.835 184.29 158.76 184.29Z" fill="#282828"/>
<path d="M158.745 32.89H148.955C148.294 32.9224 147.673 33.2153 147.228 33.7045C146.783 34.1936 146.55 34.8393 146.58 35.5V37.365C146.61 38.0266 146.376 38.6729 145.93 39.1623C145.484 39.6516 144.861 39.9439 144.2 39.975H125.125C124.463 39.9426 123.842 39.6491 123.396 39.1588C122.951 38.6685 122.719 38.0216 122.75 37.36V35.5C122.78 34.8393 122.547 34.1936 122.102 33.7045C121.656 33.2153 121.036 32.9224 120.375 32.89H108.375C104.12 32.89 100.67 36.515 100.67 40.985V170.795C100.67 175.26 104.115 178.885 108.365 178.89L158.745 178.92C163 178.92 166.45 175.3 166.45 170.83L166.44 41C166.44 36.5 163 32.89 158.745 32.89Z" fill="white"/>
<path d="M114.4 166.635V169.81C114.399 169.872 114.382 169.933 114.351 169.987C114.319 170.04 114.273 170.084 114.219 170.114C114.164 170.144 114.103 170.159 114.041 170.158C113.978 170.156 113.918 170.138 113.865 170.105L111.365 168.515C111.315 168.483 111.274 168.44 111.246 168.388C111.218 168.337 111.203 168.279 111.203 168.22C111.203 168.161 111.218 168.103 111.246 168.052C111.274 168 111.315 167.957 111.365 167.925L113.865 166.335C113.918 166.302 113.979 166.284 114.042 166.282C114.104 166.281 114.166 166.296 114.221 166.327C114.276 166.357 114.321 166.402 114.353 166.456C114.384 166.511 114.4 166.572 114.4 166.635Z" fill="#E0E0E0"/>
<path d="M134.93 168.19C134.929 168.623 134.8 169.046 134.558 169.405C134.317 169.765 133.975 170.045 133.574 170.21C133.174 170.375 132.734 170.417 132.309 170.332C131.885 170.247 131.495 170.038 131.189 169.732C130.884 169.425 130.676 169.035 130.592 168.61C130.507 168.186 130.551 167.746 130.717 167.346C130.883 166.946 131.164 166.604 131.524 166.364C131.884 166.123 132.307 165.995 132.74 165.995C133.321 165.996 133.878 166.228 134.289 166.64C134.699 167.051 134.93 167.609 134.93 168.19Z" fill="#E0E0E0"/>
<path d="M153.765 166.28H151.595C151.079 166.28 150.66 166.699 150.66 167.215V169.395C150.66 169.911 151.079 170.33 151.595 170.33H153.765C154.282 170.33 154.7 169.911 154.7 169.395V167.215C154.7 166.699 154.282 166.28 153.765 166.28Z" fill="#E0E0E0"/>
<path d="M157.9 96.0804C161.125 82.7291 152.916 69.2913 139.565 66.0662C126.213 62.8411 112.776 71.05 109.55 84.4013C106.325 97.7527 114.534 111.191 127.886 114.416C141.237 117.641 154.675 109.432 157.9 96.0804Z" fill="#F5F5F5"/>
<path d="M134.835 101.19C134.834 101.597 134.712 101.994 134.485 102.331C134.258 102.669 133.936 102.931 133.56 103.086C133.184 103.24 132.771 103.28 132.372 103.199C131.973 103.118 131.608 102.921 131.321 102.633C131.035 102.344 130.84 101.977 130.763 101.578C130.685 101.179 130.727 100.766 130.884 100.391C131.042 100.015 131.307 99.6955 131.646 99.4711C131.985 99.2468 132.383 99.1281 132.79 99.13C133.333 99.134 133.853 99.3528 134.237 99.7387C134.62 100.125 134.835 100.646 134.835 101.19Z" fill="#4A4949"/>
<path d="M128.675 98.55C129.199 97.9856 129.833 97.5334 130.537 97.2209C131.241 96.9083 132.001 96.7418 132.771 96.7316C133.542 96.7213 134.306 96.8674 135.018 97.161C135.73 97.4547 136.376 97.8898 136.915 98.44C137.965 99.5 139.605 97.875 138.555 96.815C137.8 96.0544 136.901 95.4524 135.91 95.0444C134.919 94.6365 133.856 94.4309 132.785 94.4398C131.713 94.4486 130.654 94.6718 129.67 95.096C128.686 95.5202 127.797 96.137 127.055 96.91C126.03 97.985 127.655 99.63 128.685 98.55H128.675Z" fill="#4A4949"/>
<path d="M121.695 89C124.82 86.3 128.55 84.6 132.725 84.59C136.893 84.5306 140.926 86.0651 144 88.88C145.08 89.88 146.725 88.275 145.64 87.255C142.136 84.0094 137.526 82.2214 132.75 82.255C127.945 82.255 123.675 84.255 120.08 87.34C118.955 88.315 120.58 89.95 121.71 88.98L121.695 89Z" fill="#4A4949"/>
<path d="M124.449 94.285C125.491 93.1223 126.763 92.188 128.184 91.5412C129.605 90.8944 131.144 90.5491 132.705 90.527C134.267 90.5049 135.815 90.8065 137.254 91.4129C138.693 92.0193 139.99 92.9172 141.064 94.05C142.104 95.115 143.744 93.49 142.704 92.42C141.415 91.0729 139.864 90.0049 138.145 89.2821C136.426 88.5594 134.577 88.1974 132.713 88.2185C130.849 88.2396 129.009 88.6433 127.307 89.4048C125.605 90.1662 124.078 91.2691 122.819 92.645C121.819 93.735 123.434 95.38 124.449 94.285Z" fill="#4A4949"/>
<path d="M152.196 84.6438C152.803 81.2149 150.514 77.9435 147.086 77.3371C143.657 76.7306 140.385 79.0187 139.779 82.4476C139.172 85.8766 141.46 89.1479 144.889 89.7544C148.318 90.3608 151.59 88.0728 152.196 84.6438Z" fill="#FE9DA1"/>
<path d="M148.586 81.7827L147.691 80.8882L143.686 84.894L144.58 85.7885L148.586 81.7827Z" fill="white"/>
<path d="M144.582 80.8836L143.688 81.7781L147.693 85.7838L148.588 84.8893L144.582 80.8836Z" fill="white"/>
<path d="M132.055 46.7751C132.367 46.587 132.704 46.4408 133.055 46.3401L133.26 45.3401L134.925 45.3101L135.165 46.3101C135.514 46.3987 135.85 46.5332 136.165 46.7101L137 46.1501L138.2 47.3101L137.675 48.1701C137.863 48.483 138.009 48.8192 138.11 49.1701L139.11 49.3751L139.14 51.0451L138.14 51.2801C138.053 51.6294 137.92 51.9657 137.745 52.2801L138.295 53.1201L137.14 54.3201L136.28 53.8201C135.966 54.0062 135.63 54.1508 135.28 54.2501L135.075 55.2501L133.41 55.2801L133.17 54.2801C132.82 54.1905 132.484 54.0561 132.17 53.8801L131.325 54.4301L130.125 53.2751L130.65 52.4151C130.461 52.1024 130.315 51.7662 130.215 51.4151L129.215 51.2101L129.185 49.5451L130.185 49.3051C130.272 48.956 130.405 48.6199 130.58 48.3051L130.03 47.4601L131.19 46.2651L132.05 46.7651L132.055 46.7751ZM132.94 49.0001C132.694 49.2547 132.529 49.5767 132.466 49.9251C132.403 50.2736 132.444 50.6329 132.586 50.9576C132.727 51.2823 132.961 51.5578 133.259 51.7493C133.557 51.9408 133.905 52.0396 134.259 52.0333C134.613 52.027 134.957 51.9159 135.248 51.7139C135.539 51.5119 135.763 51.2283 135.893 50.8987C136.022 50.5692 136.051 50.2087 135.976 49.8627C135.901 49.5167 135.724 49.2008 135.47 48.9551C135.128 48.6257 134.67 48.4454 134.195 48.4539C133.721 48.4623 133.269 48.6588 132.94 49.0001Z" fill="#E0E0E0"/>
<path d="M110.909 50.5001C110.409 50.5001 109.714 50.5001 109.049 50.5001C108.254 50.5001 107.459 50.5001 106.904 50.5001C106.838 50.5001 106.774 50.4737 106.728 50.4268C106.681 50.3799 106.654 50.3164 106.654 50.2501C106.654 50.2175 106.66 50.1851 106.672 50.1548C106.684 50.1245 106.702 50.0969 106.724 50.0736C106.747 50.0503 106.774 50.0318 106.804 50.0192C106.834 50.0065 106.867 50 106.899 50.0001C107.454 50.0001 108.259 50.0001 109.059 50.0001C109.859 50.0001 110.649 50.0301 111.204 50.0001C111.237 49.9994 111.269 50.0052 111.3 50.0172C111.33 50.0293 111.358 50.0472 111.381 50.07C111.404 50.0928 111.423 50.1201 111.435 50.1501C111.448 50.1802 111.454 50.2125 111.454 50.245C111.455 50.2779 111.449 50.3105 111.437 50.3411C111.425 50.3717 111.407 50.3996 111.385 50.4233C111.362 50.447 111.335 50.466 111.305 50.4791C111.275 50.4923 111.242 50.4994 111.209 50.5001H110.909Z" fill="#282828"/>
<path d="M108.425 52.18C108.39 52.1793 108.356 52.1714 108.324 52.1568C108.292 52.1422 108.263 52.1212 108.24 52.095L106.74 50.38C106.699 50.3328 106.677 50.2725 106.677 50.21C106.677 50.1476 106.699 50.0873 106.74 50.04L108.24 48.48C108.262 48.4535 108.289 48.4318 108.32 48.4162C108.35 48.4007 108.384 48.3916 108.418 48.3896C108.453 48.3876 108.487 48.3927 108.519 48.4046C108.552 48.4164 108.581 48.4349 108.606 48.4587C108.631 48.4825 108.65 48.5111 108.664 48.5429C108.677 48.5746 108.683 48.6087 108.683 48.6431C108.682 48.6775 108.675 48.7114 108.66 48.7427C108.646 48.774 108.626 48.802 108.6 48.825L107.275 50.22L108.645 51.765C108.677 51.8013 108.698 51.846 108.705 51.8937C108.712 51.9415 108.705 51.9902 108.685 52.0341C108.664 52.078 108.632 52.1151 108.591 52.141C108.551 52.1669 108.503 52.1805 108.455 52.18H108.425Z" fill="#282828"/>
<path d="M159.964 49.0451C160.392 49.0451 160.739 48.6981 160.739 48.2701C160.739 47.842 160.392 47.4951 159.964 47.4951C159.536 47.4951 159.189 47.842 159.189 48.2701C159.189 48.6981 159.536 49.0451 159.964 49.0451Z" fill="#282828"/>
<path d="M160.74 50.72C160.741 50.8747 160.696 51.0262 160.61 51.1552C160.525 51.2843 160.403 51.385 160.26 51.4447C160.118 51.5043 159.961 51.5202 159.809 51.4903C159.657 51.4603 159.518 51.3859 159.408 51.2766C159.299 51.1672 159.224 51.0277 159.194 50.876C159.164 50.7242 159.18 50.5669 159.24 50.4242C159.3 50.2815 159.4 50.1597 159.529 50.0744C159.658 49.9891 159.81 49.944 159.965 49.945C160.17 49.945 160.367 50.0267 160.513 50.172C160.658 50.3174 160.74 50.5145 160.74 50.72Z" fill="#282828"/>
<path d="M159.964 53.945C160.392 53.945 160.739 53.598 160.739 53.17C160.739 52.742 160.392 52.395 159.964 52.395C159.536 52.395 159.189 52.742 159.189 53.17C159.189 53.598 159.536 53.945 159.964 53.945Z" fill="#282828"/>
<path d="M116.88 124.445C115.701 124.574 114.515 124.617 113.33 124.575C112.147 124.617 110.962 124.574 109.785 124.445C110.962 124.316 112.147 124.273 113.33 124.315C114.515 124.273 115.701 124.316 116.88 124.445Z" fill="#282828"/>
<path d="M129.615 132.745C129.615 132.815 125.255 132.875 119.88 132.875C114.505 132.875 110.145 132.815 110.145 132.745C110.145 132.675 114.5 132.615 119.88 132.615C125.26 132.615 129.615 132.675 129.615 132.745Z" fill="#282828"/>
<path d="M129.615 141C129.615 141.07 125.255 141.13 119.88 141.13C114.505 141.13 110.145 141.07 110.145 141C110.145 140.93 114.5 140.87 119.88 140.87C125.26 140.87 129.615 140.92 129.615 141Z" fill="#282828"/>
<path d="M155.35 129.63H148.23C146.51 129.63 145.115 131.024 145.115 132.742C145.115 134.461 146.51 135.855 148.23 135.855H155.35C157.071 135.855 158.465 134.461 158.465 132.742C158.465 131.024 157.071 129.63 155.35 129.63Z" fill="#EBEBEB"/>
<path d="M150.8 132.745C150.8 133.261 150.647 133.766 150.36 134.195C150.073 134.624 149.666 134.959 149.189 135.156C148.712 135.354 148.187 135.406 147.681 135.305C147.175 135.204 146.71 134.956 146.345 134.591C145.98 134.226 145.731 133.76 145.63 133.254C145.53 132.748 145.581 132.223 145.779 131.746C145.976 131.269 146.311 130.862 146.74 130.575C147.169 130.288 147.674 130.135 148.19 130.135C148.533 130.135 148.872 130.203 149.189 130.334C149.506 130.465 149.793 130.657 150.036 130.899C150.278 131.142 150.47 131.43 150.601 131.746C150.733 132.063 150.8 132.402 150.8 132.745Z" fill="#E0E0E0"/>
<path d="M155.355 144.105H148.23C147.404 144.105 146.612 143.777 146.028 143.193C145.443 142.608 145.115 141.816 145.115 140.99C145.115 140.164 145.443 139.372 146.028 138.787C146.612 138.203 147.404 137.875 148.23 137.875H155.355C156.181 137.875 156.974 138.203 157.558 138.787C158.142 139.372 158.47 140.164 158.47 140.99C158.47 141.816 158.142 142.608 157.558 143.193C156.974 143.777 156.181 144.105 155.355 144.105Z" fill="#EBEBEB"/>
<path d="M148.19 143.6C149.632 143.6 150.8 142.431 150.8 140.99C150.8 139.549 149.632 138.38 148.19 138.38C146.749 138.38 145.58 139.549 145.58 140.99C145.58 142.431 146.749 143.6 148.19 143.6Z" fill="#E0E0E0"/>
<path d="M129.615 149.29C129.615 149.365 125.255 149.42 119.88 149.42C114.505 149.42 110.145 149.365 110.145 149.29C110.145 149.215 114.5 149.16 119.88 149.16C125.26 149.16 129.615 149.22 129.615 149.29Z" fill="#282828"/>
<path d="M155.355 153.325H148.23C147.821 153.326 147.416 153.246 147.039 153.09C146.661 152.934 146.317 152.705 146.028 152.416C145.739 152.127 145.509 151.784 145.352 151.406C145.196 151.029 145.115 150.624 145.115 150.215C145.115 149.389 145.443 148.597 146.028 148.012C146.612 147.428 147.404 147.1 148.23 147.1H155.355C156.181 147.1 156.974 147.428 157.558 148.012C158.142 148.597 158.47 149.389 158.47 150.215C158.47 150.624 158.39 151.029 158.233 151.406C158.076 151.784 157.847 152.127 157.558 152.416C157.268 152.705 156.925 152.934 156.547 153.09C156.169 153.246 155.764 153.326 155.355 153.325Z" fill="#EBEBEB"/>
<path d="M148.19 152.825C149.632 152.825 150.8 151.657 150.8 150.215C150.8 148.774 149.632 147.605 148.19 147.605C146.749 147.605 145.58 148.774 145.58 150.215C145.58 151.657 146.749 152.825 148.19 152.825Z" fill="#E0E0E0"/>
<path d="M214.836 41.6288C215.553 37.1852 212.532 33.0014 208.089 32.2841C203.645 31.5668 199.461 34.5875 198.744 39.0311C198.027 43.4747 201.048 47.6585 205.491 48.3758C209.935 49.0931 214.118 46.0724 214.836 41.6288Z" fill="#FE9DA1"/>
<path d="M205.63 58.555C205.585 58.555 205.545 57.055 205.545 55.19C205.545 53.325 205.585 51.83 205.63 51.83C205.717 52.9477 205.745 54.0692 205.715 55.19C205.745 56.3123 205.717 57.4355 205.63 58.555Z" fill="#FE9DA1"/>
<path d="M200.935 49.935C200.975 49.935 200.21 51.365 199.225 53.07C198.24 54.775 197.405 56.145 197.365 56.12C197.325 56.095 198.09 54.695 199.075 52.985C200.06 51.275 200.895 49.91 200.935 49.935Z" fill="#FE9DA1"/>
<path d="M196.115 46.935C195.52 47.5185 194.885 48.0598 194.215 48.555C193.581 49.0968 192.913 49.5978 192.215 50.055C192.81 49.4715 193.445 48.9302 194.115 48.435C194.747 47.8905 195.415 47.3893 196.115 46.935Z" fill="#FE9DA1"/>
<path d="M213.76 55.24C213.663 54.9724 213.591 54.6962 213.545 54.415C213.43 53.915 213.26 53.195 213.045 52.415C212.83 51.635 212.625 50.945 212.47 50.445C212.366 50.1784 212.289 49.902 212.24 49.62C212.383 49.8687 212.498 50.1319 212.585 50.405C212.77 50.905 213 51.59 213.21 52.37C213.42 53.15 213.565 53.87 213.655 54.37C213.721 54.6554 213.756 54.9471 213.76 55.24Z" fill="#FE9DA1"/>
<path d="M222.025 49.375C221.186 48.7524 220.382 48.0848 219.615 47.375C218.812 46.7107 218.046 46.003 217.32 45.255C218.159 45.8776 218.964 46.5452 219.73 47.255C220.533 47.9193 221.3 48.627 222.025 49.375Z" fill="#FE9DA1"/>
<path d="M225.19 41.315C224.854 41.2943 224.52 41.2475 224.19 41.175C223.585 41.075 222.75 40.945 221.825 40.84C220.9 40.735 220.055 40.67 219.445 40.63C219.11 40.6293 218.776 40.6008 218.445 40.545C218.777 40.4999 219.112 40.4882 219.445 40.51C220.06 40.51 220.91 40.565 221.84 40.67C222.77 40.775 223.61 40.925 224.21 41.055C224.544 41.1113 224.872 41.1983 225.19 41.315Z" fill="#FE9DA1"/>
<path d="M225.2 33.39C225.2 33.44 223.45 33.89 221.26 34.44C219.07 34.99 217.29 35.365 217.26 35.32C217.23 35.275 219.015 34.82 221.2 34.275C223.385 33.73 225.19 33.345 225.2 33.39Z" fill="#FE9DA1"/>
<path d="M216 24.16C216.035 24.16 215.195 25.53 214.115 27.16C213.035 28.79 212.115 30.1 212.085 30.07C212.055 30.04 212.89 28.7 213.97 27.07C214.597 26.0662 215.274 25.0949 216 24.16Z" fill="#FE9DA1"/>
<path d="M206.855 22.23C206.881 22.6029 206.881 22.9771 206.855 23.35C206.855 24.04 206.855 24.99 206.855 26.04C206.855 27.09 206.855 28.04 206.885 28.74C206.912 29.1112 206.912 29.4838 206.885 29.855C206.814 29.4891 206.776 29.1177 206.77 28.745C206.73 28.055 206.695 27.1 206.695 26.045C206.695 24.99 206.725 24.045 206.765 23.345C206.762 22.9714 206.792 22.5982 206.855 22.23Z" fill="#FE9DA1"/>
<path d="M199.936 30.845C199.896 30.87 199.036 29.54 198.021 27.875C197.006 26.21 196.206 24.835 196.246 24.81C196.286 24.785 197.146 26.12 198.166 27.81C199.186 29.5 200.001 30.825 199.936 30.845Z" fill="#FE9DA1"/>
<path d="M195.8 34.36C195.508 34.348 195.217 34.3027 194.935 34.2249C194.405 34.1099 193.68 33.9349 192.885 33.7249C192.09 33.5149 191.385 33.2249 190.885 33.0499C190.605 32.9611 190.336 32.8438 190.08 32.7C190.369 32.7525 190.652 32.8329 190.925 32.9399C191.425 33.0999 192.15 33.33 192.925 33.56C193.7 33.79 194.425 33.99 194.955 34.13C195.243 34.1797 195.526 34.2568 195.8 34.36Z" fill="#FE9DA1"/>
<path d="M194 40.62C193.142 40.7915 192.274 40.9035 191.4 40.955C190.533 41.0665 189.66 41.1233 188.785 41.125C189.643 40.9527 190.512 40.8391 191.385 40.785C192.253 40.6763 193.126 40.6212 194 40.62Z" fill="#FE9DA1"/>
<path d="M188.439 185.87L195.729 237.805L197.629 237.865C196.419 220.225 195.129 202.235 188.439 185.87Z" fill="#4A4949"/>
<path d="M208.695 183.435C203.6 189 201.55 196.695 200.26 204.14C198.43 214.695 198.26 227.165 198.815 237.865L201.475 237.925C200.42 219.469 202.87 200.98 208.695 183.435Z" fill="#4A4949"/>
<path d="M189.78 216.595C189.195 214.02 188.525 211.405 187.055 209.21C185.055 206.25 181.84 204.38 178.585 202.92C175.33 201.46 171.915 200.3 168.975 198.28C172.255 203.655 179.695 205.085 183.475 210.115C185.36 212.615 186.145 215.755 186.88 218.8C188.495 225.44 189.485 231.185 191.095 237.8H193.255C192.544 230.666 191.383 223.583 189.78 216.595Z" fill="#4A4949"/>
<path d="M203.42 237.865C203.42 237.865 205.245 217.24 206.6 213.45C207.955 209.66 220.755 199.2 220.635 199.695C220.515 200.19 211.03 211.635 209.675 214C208.32 216.365 206 237.865 206 237.865H203.42Z" fill="#4A4949"/>
<path d="M142.91 216.295C143.416 216.497 143.875 216.799 144.261 217.183C144.647 217.567 144.951 218.025 145.155 218.53C145.563 219.543 145.734 220.636 145.655 221.725C145.55 223.825 144.505 226.01 143.335 227.76C141.48 226.34 140.905 223.695 140.695 222.33C140.365 220.18 141.075 216.09 142.92 216.295" fill="#FE9DA1"/>
<path d="M145.59 231.065C145.432 230.476 145.432 229.857 145.591 229.268C145.75 228.68 146.062 228.144 146.495 227.715C146.933 227.294 147.452 226.965 148.019 226.747C148.587 226.528 149.192 226.426 149.8 226.445C150.076 226.427 150.352 226.468 150.611 226.565C150.87 226.663 151.104 226.814 151.3 227.01C151.453 227.226 151.545 227.479 151.566 227.744C151.587 228.008 151.537 228.272 151.42 228.51C151.184 228.982 150.827 229.382 150.385 229.67C148.925 230.725 147.32 231.475 145.565 231.07" fill="#FE9DA1"/>
<path d="M143.755 237.605C143.755 237.461 143.767 237.317 143.79 237.175C143.825 236.87 143.87 236.475 143.925 236.005C144.039 234.702 144.362 233.426 144.88 232.225C145.424 231.023 146.278 229.988 147.355 229.225C147.682 229.003 148.035 228.82 148.405 228.68C148.504 228.64 148.606 228.606 148.71 228.58L148.82 228.555C148.328 228.762 147.857 229.016 147.415 229.315C146.38 230.088 145.556 231.11 145.02 232.285C144.503 233.472 144.166 234.729 144.02 236.015C143.945 236.515 143.885 236.905 143.835 237.18C143.823 237.324 143.796 237.467 143.755 237.605Z" fill="#282828"/>
<path d="M142.64 219.455C142.659 219.515 142.671 219.577 142.675 219.64L142.74 220.175C142.8 220.645 142.87 221.315 142.95 222.15C143.115 223.82 143.305 226.125 143.45 228.675C143.595 231.225 143.695 233.54 143.735 235.215C143.735 236.055 143.765 236.715 143.765 237.215V237.755C143.765 237.88 143.765 237.945 143.765 237.945C143.759 237.882 143.759 237.818 143.765 237.755L143.74 237.215C143.74 236.715 143.695 236.06 143.66 235.215C143.59 233.54 143.49 231.215 143.335 228.68C143.18 226.145 143.005 223.825 142.87 222.155C142.8 221.335 142.75 220.655 142.71 220.18C142.71 219.96 142.68 219.78 142.67 219.64C142.655 219.579 142.645 219.517 142.64 219.455Z" fill="#282828"/>
<path d="M142.635 232.535C142.342 231.285 141.755 230.123 140.923 229.146C140.09 228.168 139.037 227.404 137.85 226.915C137.245 226.67 136.465 226.535 136.01 227.005C135.555 227.475 135.715 228.25 136.01 228.84C136.608 230.066 137.555 231.087 138.732 231.776C139.909 232.465 141.264 232.79 142.625 232.71" fill="#FE9DA1"/>
<path d="M138.26 228.87C138.393 228.903 138.522 228.95 138.645 229.01C138.765 229.06 138.915 229.12 139.08 229.205C139.245 229.29 139.44 229.38 139.64 229.51C139.862 229.637 140.075 229.777 140.28 229.93C140.52 230.101 140.75 230.284 140.97 230.48C141.474 230.928 141.925 231.431 142.315 231.98C142.698 232.539 143.013 233.142 143.255 233.775C143.357 234.05 143.444 234.33 143.515 234.615C143.579 234.864 143.631 235.116 143.67 235.37C143.706 235.578 143.729 235.789 143.74 236C143.753 236.166 143.753 236.334 143.74 236.5C143.753 236.635 143.753 236.77 143.74 236.905C143.705 236.905 143.74 236.325 143.565 235.405C143.522 235.155 143.465 234.908 143.395 234.665C143.318 234.385 143.227 234.11 143.12 233.84C142.876 233.221 142.564 232.63 142.19 232.08C141.807 231.535 141.368 231.033 140.88 230.58C140.665 230.383 140.44 230.198 140.205 230.025C139.995 229.855 139.775 229.725 139.58 229.595C138.79 229.11 138.25 228.9 138.26 228.87Z" fill="#282828"/>
<path d="M55.0347 210.4L40.9697 221.935L55.2347 239.5C56.8297 238.035 52.8197 226.21 52.8197 226.21L62.1347 219.21L55.0347 210.4Z" fill="#4A4949"/>
<g opacity="0.6">
<path d="M49.1693 220.165C48.9811 220.038 48.7528 219.985 48.5278 220.015C48.3029 220.045 48.0969 220.158 47.9493 220.33C47.8146 220.514 47.7557 220.742 47.7845 220.968C47.8133 221.194 47.9278 221.401 48.1043 221.545C48.3063 221.675 48.5484 221.728 48.7862 221.694C49.024 221.66 49.2416 221.541 49.3993 221.36C49.5191 221.153 49.5542 220.908 49.4974 220.676C49.4405 220.444 49.2961 220.243 49.0943 220.115" fill="white"/>
</g>
<g opacity="0.6">
<path d="M41.0244 221.885L42.4394 220.715L55.4994 238.135C55.4994 238.135 55.7894 239.195 55.1644 239.55L41.0244 221.885Z" fill="white"/>
</g>
<path d="M53.1396 226.425C53.0546 226.495 52.6396 226.095 52.0446 225.9C51.4496 225.705 50.8846 225.77 50.8546 225.66C50.8246 225.55 51.4246 225.28 52.1696 225.535C52.9146 225.79 53.2346 226.38 53.1396 226.425Z" fill="#282828"/>
<path d="M53.875 228.89C53.81 228.975 53.375 228.725 52.76 228.725C52.145 228.725 51.71 228.955 51.645 228.87C51.58 228.785 52.02 228.33 52.765 228.34C53.51 228.35 53.955 228.82 53.875 228.89Z" fill="#282828"/>
<path d="M52.4993 231.725C52.4143 231.665 52.7493 231.195 53.3993 231.035C54.0493 230.875 54.5593 231.125 54.5143 231.215C54.4693 231.305 54.0143 231.265 53.5143 231.405C53.0143 231.545 52.5943 231.805 52.4993 231.725Z" fill="#282828"/>
<path d="M55.0849 224.59C54.9799 224.62 54.7799 224.13 54.3499 223.67C53.9199 223.21 53.4649 222.96 53.4999 222.855C53.5349 222.75 54.1399 222.855 54.6349 223.41C55.1299 223.965 55.1899 224.58 55.0849 224.59Z" fill="#282828"/>
<path d="M56.8294 222.5C56.7944 222.53 56.4694 222.235 56.1194 221.615C55.9193 221.251 55.7632 220.865 55.6544 220.465C55.5906 220.229 55.5438 219.988 55.5144 219.745C55.4913 219.601 55.4913 219.454 55.5144 219.31C55.5326 219.205 55.5835 219.109 55.66 219.036C55.7364 218.962 55.8343 218.914 55.9394 218.9C56.0339 218.893 56.1285 218.91 56.2155 218.947C56.3024 218.984 56.3792 219.042 56.4394 219.115C56.5309 219.228 56.6066 219.352 56.6644 219.485C56.7705 219.71 56.8559 219.944 56.9194 220.185C57.0275 220.589 57.0697 221.008 57.0444 221.425C57.0642 221.814 56.961 222.198 56.7494 222.525C56.6944 222.525 56.7994 222.095 56.7494 221.425C56.7338 221.037 56.6683 220.652 56.5544 220.28C56.4859 220.064 56.4006 219.853 56.2994 219.65C56.1994 219.425 56.0694 219.265 55.9494 219.285C55.8294 219.305 55.8894 219.285 55.8644 219.385C55.85 219.489 55.85 219.595 55.8644 219.7C55.8894 219.928 55.9261 220.155 55.9744 220.38C56.0614 220.762 56.1836 221.135 56.3394 221.495C56.5283 221.817 56.6921 222.153 56.8294 222.5Z" fill="#282828"/>
<path d="M56.6198 222.47C56.5798 222.47 56.7498 222.03 57.2798 221.545C57.5937 221.267 57.952 221.044 58.3398 220.885C58.5708 220.792 58.8103 220.722 59.0549 220.675C59.2095 220.629 59.3733 220.623 59.5309 220.658C59.6884 220.693 59.8344 220.768 59.9549 220.875C60.0171 220.955 60.0553 221.051 60.065 221.152C60.0748 221.253 60.0556 221.355 60.0098 221.445C59.9425 221.572 59.8585 221.69 59.7598 221.795C59.5903 221.991 59.3913 222.16 59.1698 222.295C58.8011 222.515 58.3837 222.64 57.9549 222.66C57.2199 222.685 56.8248 222.41 56.8498 222.38C57.2096 222.399 57.5701 222.399 57.9299 222.38C58.3096 222.331 58.6745 222.202 58.9998 222C59.188 221.884 59.3568 221.739 59.4998 221.57C59.6648 221.39 59.7599 221.2 59.6849 221.145C59.6054 221.095 59.5161 221.062 59.423 221.049C59.3298 221.036 59.235 221.043 59.1449 221.07C58.9224 221.109 58.7034 221.166 58.4899 221.24C58.1328 221.374 57.7962 221.558 57.4899 221.785C56.9149 222.155 56.6698 222.5 56.6198 222.47Z" fill="#282828"/>
<path d="M48.665 219.82L48.835 238L71.465 237.905C71.325 235.745 59.595 231.45 59.595 231.45L59.965 219.795L48.665 219.82Z" fill="#4A4949"/>
<g opacity="0.6">
<path d="M52.5943 230.5C52.3764 230.567 52.1911 230.713 52.0739 230.908C51.9567 231.104 51.9159 231.336 51.9593 231.56C52.0194 231.779 52.1612 231.967 52.3555 232.085C52.5498 232.203 52.782 232.243 53.0043 232.195C53.2307 232.119 53.4222 231.964 53.5442 231.758C53.6662 231.553 53.7106 231.31 53.6693 231.075C53.5838 230.852 53.4152 230.671 53.199 230.569C52.9828 230.467 52.7356 230.453 52.5093 230.53" fill="white"/>
</g>
<g opacity="0.6">
<path d="M48.8301 237.94V236.1L70.5951 236.84C70.5951 236.84 71.5951 237.28 71.4851 237.99L48.8301 237.94Z" fill="white"/>
</g>
<path d="M59.9645 231.345C59.9645 231.455 59.4095 231.51 58.8645 231.845C58.3195 232.18 58.0345 232.67 57.9345 232.625C57.8345 232.58 57.9945 231.945 58.6595 231.52C59.3245 231.095 59.9995 231.245 59.9645 231.345Z" fill="#282828"/>
<path d="M62.3394 232.315C62.3394 232.425 61.8894 232.615 61.5144 233.085C61.1394 233.555 61.0144 234.045 60.9244 234.045C60.8344 234.045 60.7444 233.415 61.2194 232.84C61.6944 232.265 62.3394 232.21 62.3394 232.315Z" fill="#282828"/>
<path d="M63.6995 235.155C63.5995 235.155 63.4445 234.625 63.6995 234.02C63.9545 233.415 64.4995 233.17 64.5445 233.26C64.5895 233.35 64.2745 233.68 64.0445 234.18C63.8145 234.68 63.8095 235.14 63.6995 235.155Z" fill="#282828"/>
<path d="M59.7546 228.68C59.7046 228.78 59.1996 228.63 58.5746 228.68C57.9496 228.73 57.4646 228.925 57.4046 228.83C57.3446 228.735 57.8146 228.33 58.5496 228.295C59.2846 228.26 59.8046 228.59 59.7546 228.68Z" fill="#282828"/>
<path d="M59.1993 226C58.8295 226.102 58.4391 226.102 58.0693 226C57.4173 225.885 56.7931 225.647 56.2293 225.3C56.102 225.229 55.9858 225.14 55.8843 225.035C55.8142 224.955 55.7715 224.854 55.7625 224.748C55.7535 224.642 55.7787 224.536 55.8343 224.445C55.8905 224.365 55.9655 224.3 56.0526 224.255C56.1397 224.211 56.2364 224.189 56.3343 224.19C56.4781 224.19 56.6212 224.21 56.7593 224.25C57.4135 224.401 58.018 224.718 58.5143 225.17C59.0393 225.67 59.2243 226.065 59.1843 226.085C59.1443 226.105 58.8793 225.78 58.3393 225.38C58.0325 225.148 57.6962 224.958 57.3393 224.815C57.1268 224.731 56.9077 224.664 56.6843 224.615C56.4443 224.555 56.2443 224.555 56.1843 224.66C56.1243 224.765 56.1843 224.715 56.2143 224.785C56.2867 224.863 56.3711 224.929 56.4643 224.98C56.6583 225.104 56.8586 225.217 57.0643 225.32C57.4171 225.493 57.7854 225.632 58.1643 225.735C58.5147 225.801 58.8604 225.889 59.1993 226Z" fill="#282828"/>
<path d="M59.0597 226.155C59.0197 226.155 58.7997 225.78 58.7547 225.06C58.7335 224.641 58.7843 224.222 58.9047 223.82C58.9768 223.581 59.0723 223.35 59.1897 223.13C59.2498 222.98 59.3477 222.848 59.4739 222.748C59.6001 222.647 59.7502 222.58 59.9097 222.555C60.0149 222.552 60.1186 222.58 60.2076 222.636C60.2967 222.692 60.367 222.774 60.4097 222.87C60.467 223.003 60.5073 223.142 60.5297 223.285C60.5789 223.625 60.5601 223.971 60.4742 224.303C60.3884 224.635 60.2373 224.947 60.0297 225.22C59.5897 225.81 59.1297 225.945 59.1197 225.905C59.1097 225.865 59.4647 225.635 59.7997 225.07C59.9963 224.746 60.1176 224.382 60.1547 224.005C60.187 223.788 60.187 223.567 60.1547 223.35C60.1147 223.11 60.0247 222.915 59.9347 222.94C59.8447 222.965 59.6297 223.12 59.5397 223.315C59.429 223.512 59.3353 223.717 59.2597 223.93C59.1351 224.295 59.0627 224.675 59.0447 225.06C58.9997 225.725 59.1197 226.14 59.0597 226.155Z" fill="#282828"/>
<path d="M50.6049 114.455C50.6049 114.455 47.4299 117.85 45.8749 121.105C44.3199 124.36 43.3199 132.105 43.3199 132.105C43.3199 132.105 38.9399 141.86 39.6049 146.85C40.2699 151.84 44.7299 186 44.7299 186C44.7299 186 44.5099 219.18 47.6699 225.095L48.3749 228.29L61.1349 226L61.0549 224.085L64.0549 159.025L71.7349 114.73L50.6049 114.455Z" fill="#282828"/>
<path d="M78.7595 124.13C78.7595 124.13 86.3845 166.13 87.0595 173.415C87.7345 180.7 61.7645 219.14 61.7645 219.14L49.8945 206.775L66.9345 175.1L61.3945 143.175L69.0995 114.97L77.1895 115.255L78.7595 124.13Z" fill="#282828"/>
<path d="M45.6895 214.76C45.7024 215.071 45.7324 215.382 45.7795 215.69C45.8595 216.3 46.0095 217.19 46.2195 218.35C46.6445 220.66 47.3345 224.01 48.2595 228.195V228.285H48.3495L61.1145 226.045H61.2095V225.945C61.5645 217.19 61.9895 206.725 62.4445 195.5C62.9145 183.425 63.3495 172.225 63.7095 163.04C64.6645 155.66 65.4545 149.54 66.0095 145.285C66.2745 143.165 66.4845 141.5 66.6295 140.35C66.6945 139.79 66.7495 139.35 66.7845 139.055C66.8195 138.76 66.8245 138.61 66.8245 138.61C66.8245 138.61 66.7945 138.755 66.7495 139.05C66.7045 139.345 66.6395 139.785 66.5595 140.34C66.3995 141.485 66.1695 143.15 65.8745 145.265C65.3145 149.5 64.4995 155.615 63.4995 163C63.1295 172.185 62.6745 183.385 62.1845 195.46C61.7445 206.685 61.3345 217.15 60.9945 225.905L61.0945 225.79L48.3445 228.085L48.4495 228.155C47.4995 223.975 46.7845 220.63 46.3295 218.33C46.1045 217.175 45.9395 216.285 45.8295 215.68C45.7745 215.38 45.7445 215.15 45.7245 214.995C45.7169 214.916 45.7052 214.838 45.6895 214.76Z" fill="#4A4949"/>
<path d="M30.875 97.075C30.875 97.075 38.775 80.045 40.64 79.14C42.505 78.235 47.865 77.93 48.59 78.95L34.43 99.34L30.875 97.075Z" fill="#4A4949"/>
<path d="M31.2847 94.775C30.9358 94.5818 30.5266 94.5282 30.1397 94.625C27.6847 95.235 18.7147 97.625 17.7147 100.19C16.5547 103.145 23.6497 141.545 24.5647 142.585C25.4797 143.625 39.5897 141.88 40.0247 140.24C40.4597 138.6 35.4347 97.2099 35.4347 97.2099L31.2847 94.775Z" fill="#4A4949"/>
<path d="M20.1494 120.93C20.1494 120.93 19.3494 120.98 18.5544 122.745C17.7594 124.51 19.1594 138.84 20.2144 140.305C21.2694 141.77 24.3494 142.08 24.3494 142.08L20.1494 120.93Z" fill="#4A4949"/>
<path d="M35.8744 141.025C35.8459 140.997 35.8223 140.965 35.8044 140.93L35.6144 140.635C35.4494 140.375 35.2294 139.98 34.9694 139.455C34.254 137.967 33.7121 136.402 33.3544 134.79C32.8351 132.403 32.461 129.987 32.2344 127.555C31.9444 124.815 31.6244 121.805 31.2844 118.645C30.6044 112.325 30.0394 106.595 29.9444 102.42C29.8944 100.335 29.9444 98.65 29.9994 97.485C30.0294 96.905 30.0644 96.45 30.0944 96.145C30.0944 96.005 30.1194 95.895 30.1294 95.8C30.1242 95.7602 30.1242 95.7198 30.1294 95.68C30.135 95.7198 30.135 95.7602 30.1294 95.8C30.1294 95.895 30.1294 96.01 30.1294 96.15C30.1294 96.475 30.1294 96.925 30.0844 97.49C30.0544 98.65 30.0394 100.335 30.1144 102.415C30.2544 106.575 30.8494 112.3 31.5294 118.62C31.8594 121.775 32.1744 124.785 32.4594 127.525C32.6727 129.952 33.0266 132.364 33.5194 134.75C33.8587 136.355 34.37 137.919 35.0444 139.415C35.2894 139.94 35.4944 140.34 35.6444 140.61L35.8094 140.915C35.8594 141 35.8794 141 35.8744 141.025Z" fill="#282828"/>
<path d="M31.3747 118.25C30.8224 118.385 30.2633 118.49 29.6997 118.565C28.6697 118.74 27.2447 119.015 25.6997 119.4C24.1547 119.785 22.7596 120.205 21.7646 120.53C21.2334 120.729 20.6908 120.896 20.1396 121.03C20.2632 120.94 20.3997 120.869 20.5446 120.82C20.8146 120.7 21.2096 120.54 21.7046 120.355C24.2881 119.391 26.9715 118.72 29.7046 118.355C30.2046 118.29 30.6496 118.245 30.9446 118.23C31.0882 118.216 31.233 118.223 31.3747 118.25Z" fill="#282828"/>
<path d="M19.965 119.345C19.9968 119.42 20.017 119.499 20.025 119.58C20.06 119.765 20.1 119.99 20.15 120.26L20.565 122.76C20.92 124.875 21.435 127.795 22.065 131.005C22.695 134.215 23.365 137.11 23.855 139.2C24.095 140.2 24.29 141.05 24.44 141.675L24.59 142.35C24.6128 142.428 24.6246 142.509 24.625 142.59C24.5846 142.52 24.5559 142.444 24.54 142.365L24.34 141.7C24.175 141.125 23.945 140.285 23.675 139.245C23.14 137.165 22.455 134.275 21.81 131.06C21.165 127.845 20.68 124.915 20.37 122.785C20.215 121.725 20.1 120.86 20.035 120.285C20.005 120.01 19.98 119.785 19.96 119.595C19.9521 119.512 19.9537 119.428 19.965 119.345Z" fill="#282828"/>
<path d="M29.9994 102.055C29.9778 101.698 30.0047 101.34 30.0794 100.99C30.3327 99.2914 30.7737 97.6263 31.3944 96.025C31.5028 95.6847 31.6558 95.3602 31.8494 95.06C31.9194 95.09 31.3494 96.61 30.8494 98.56C30.3494 100.51 30.0894 102.065 29.9994 102.055Z" fill="#282828"/>
<path d="M79.5699 65.595C79.4899 64.15 79.3099 57.095 79.2249 56.045C79.1352 54.5816 78.5042 53.2039 77.4549 52.18C76.9375 51.673 76.2825 51.3292 75.5714 51.1914C74.8602 51.0536 74.1242 51.1279 73.4549 51.405C73.0322 51.5118 72.6454 51.7286 72.3336 52.0334C72.0219 52.3381 71.7963 52.7199 71.6799 53.14C68.7199 63.64 69.1799 74.875 67.8799 85.755C71.7449 86.385 76.9449 86.13 80.8499 85.925C80.8399 77.235 80.1049 75 79.5699 65.595Z" fill="#282828"/>
<path d="M77.9451 80.43C77.9222 80.3385 77.9121 80.2442 77.9151 80.15C77.9151 79.94 77.8901 79.65 77.8751 79.345C77.8751 78.61 77.8201 77.6 77.7851 76.375C77.7301 73.835 77.6601 70.375 77.5801 66.58C77.5501 64.665 77.5201 62.845 77.4951 61.185C77.4951 60.355 77.4951 59.57 77.4701 58.83C77.4789 58.1606 77.4321 57.4916 77.3301 56.83C77.2709 56.3472 77.1057 55.8836 76.8464 55.4721C76.5871 55.0607 76.24 54.7116 75.8301 54.45C75.521 54.2803 75.1809 54.1748 74.8301 54.14C74.8301 54.14 74.8301 54.14 74.9001 54.14C74.9699 54.1323 75.0403 54.1323 75.1101 54.14C75.3848 54.1654 75.6516 54.2452 75.8951 54.375C76.2798 54.5794 76.6119 54.8704 76.8651 55.225C77.2013 55.6957 77.4285 56.2355 77.5301 56.805C77.6476 57.4836 77.7062 58.1712 77.7051 58.86C77.7051 59.6 77.7351 60.39 77.7551 61.215C77.7851 62.875 77.8201 64.715 77.8601 66.61C77.9101 70.42 77.9551 73.87 77.9901 76.405C77.9901 77.635 77.9901 78.64 77.9901 79.375C77.9901 79.705 77.9901 79.97 77.9901 80.185C77.9819 80.2677 77.9668 80.3497 77.9451 80.43Z" fill="#4A4949"/>
<path d="M74.4294 76.44C74.3957 76.2318 74.3807 76.0209 74.3844 75.81C74.3844 75.4 74.3594 74.81 74.3594 74.08C74.3594 72.62 74.3894 70.58 74.4444 68.375C74.4994 66.17 74.5594 64.185 74.6044 62.675C74.6044 61.985 74.6444 61.405 74.6594 60.95C74.6548 60.737 74.6732 60.5241 74.7144 60.315C74.7481 60.5249 74.7632 60.7374 74.7594 60.95C74.7594 61.355 74.7594 61.95 74.7594 62.68C74.7594 64.14 74.7294 66.18 74.6744 68.38C74.6194 70.58 74.5544 72.57 74.5144 74.08C74.4894 74.77 74.4744 75.35 74.4594 75.81C74.4721 76.0205 74.462 76.2317 74.4294 76.44Z" fill="#4A4949"/>
<path d="M48.9693 79.14C48.4693 79.14 39.0393 79.81 36.8493 89.91C34.6593 100.01 34.0293 114.16 34.0293 114.16L44.2543 113.16L48.9693 79.14Z" fill="#FE9DA1"/>
<path d="M53.5999 76.905L55.2599 73.84L69.7599 73.445L70.7599 76.055L79.3049 79.14L78.5899 117L84.9199 151.955C84.9199 151.955 84.8549 157 67.9999 158.6L66.6649 140.33L58.2399 140.13L58.4699 157.975C58.4699 157.975 43.5999 157.735 38.8849 154.37C38.8849 154.37 37.4549 137.37 41.5149 125.125C45.0699 114.405 46.4549 111.625 46.4549 111.625L46.7449 79.5L53.5999 76.905Z" fill="#FE9DA1"/>
<g opacity="0.3">
<path d="M49.1201 79.575C46.2068 92.045 43.2901 104.52 40.3701 117L43.3351 120.145C44.8543 119.436 46.1414 118.311 47.0468 116.901C47.9522 115.49 48.4388 113.851 48.4501 112.175C48.4501 110.445 47.9001 108.76 47.8301 107.03C47.6701 103.13 49.8301 99.555 50.8301 95.78C52.2051 90.435 51.2001 84.695 49.1201 79.575Z" fill="black"/>
</g>
<path d="M77.4547 78.655C80.9547 79.3 83.6497 83 84.4547 86.97C84.9197 89.295 86.2747 100.505 86.2747 100.505L87.0197 104.615C87.0197 104.615 87.6447 118.74 84.6497 120.32C81.1497 122.16 79.1497 120.14 77.9897 118.66C76.8297 117.18 75.5947 107.55 75.5947 107.55L76.8997 84.5L77.4547 78.655Z" fill="#FE9DA1"/>
<path d="M79.1092 84.325C79.1082 84.4609 79.0949 84.5965 79.0692 84.73C79.0292 85.0133 78.9742 85.3983 78.9042 85.885C78.7442 86.885 78.5242 88.35 78.2492 90.12C77.9742 91.89 77.6192 94.045 77.2492 96.405C77.0542 97.585 76.8542 98.825 76.6442 100.11C76.4342 101.395 76.1742 102.72 76.0642 104.11C75.9968 104.895 75.9968 105.685 76.0642 106.47C77.1492 111.325 78.1642 115.61 78.9292 118.68C79.3142 120.18 79.6242 121.42 79.8492 122.295C79.9542 122.7 80.0392 123.02 80.1042 123.265C80.1431 123.377 80.1682 123.492 80.1792 123.61C80.1278 123.504 80.0876 123.394 80.0592 123.28L79.7592 122.32C79.5092 121.48 79.1592 120.255 78.7592 118.725C77.9492 115.665 76.9042 111.38 75.8142 106.53C75.7468 105.731 75.7468 104.929 75.8142 104.13C75.9242 102.74 76.1842 101.41 76.3992 100.13C76.6142 98.85 76.8242 97.63 77.0192 96.425C77.4192 94.07 77.7792 91.925 78.0792 90.15C78.3792 88.375 78.6392 86.95 78.8192 85.925C78.9092 85.45 78.9792 85.065 79.0342 84.78C79.0423 84.626 79.0675 84.4734 79.1092 84.325Z" fill="#282828"/>
<path d="M42 81.5L44.65 117C44.65 117 49.61 94.385 49.81 88.6C49.9619 85.2821 49.625 81.9598 48.81 78.74C48.81 78.74 44 77.965 42 81.5Z" fill="#4A4949"/>
<path d="M40.47 79.25C40.7974 79.3513 41.0992 79.5218 41.355 79.75C41.6535 79.9887 41.8773 80.308 42 80.67C42.1409 81.0978 42.2299 81.541 42.265 81.99C42.35 82.93 42.345 83.78 42.345 84.395C42.3664 84.7288 42.353 85.064 42.305 85.395C42.2057 85.071 42.1568 84.7338 42.16 84.395C42.11 83.785 42.09 82.935 42.005 82.01C41.92 81.085 41.71 80.255 41.26 79.87C40.81 79.485 40.445 79.29 40.47 79.25Z" fill="#282828"/>
<path d="M58.86 80.535C58.86 80.535 58.745 80.44 58.56 80.225C58.375 80.01 58.115 79.725 57.79 79.3H57.94C57.58 80.345 57.03 81.86 56.405 83.56L56.315 83.8L56.18 83.595C56.105 83.48 56.015 83.365 55.945 83.245C55.5257 82.493 55.1792 81.7028 54.91 80.885C54.645 80.14 54.41 79.47 54.24 78.885C54.07 78.3 53.9 77.885 53.785 77.56C53.7161 77.3987 53.6625 77.2313 53.625 77.06C53.7334 77.1973 53.8195 77.3508 53.88 77.515C54.025 77.815 54.205 78.265 54.415 78.82C54.625 79.375 54.87 80.055 55.135 80.775C55.4133 81.5724 55.7578 82.3451 56.165 83.085C56.235 83.2 56.315 83.305 56.385 83.41L56.16 83.445C56.795 81.75 57.37 80.245 57.78 79.215L57.835 79.07L57.93 79.195C58.2704 79.6198 58.5811 80.0675 58.86 80.535Z" fill="#282828"/>
<path d="M70.3592 78.095C70.3208 78.26 70.2621 78.4195 70.1842 78.57C70.0542 78.87 69.8542 79.295 69.6042 79.82C69.3542 80.345 69.0442 80.965 68.6792 81.65C68.2961 82.4011 67.8583 83.1231 67.3692 83.81L67.2042 84.035L67.1392 83.76L67.1142 83.645C66.7042 81.9 66.3492 80.315 66.1142 79.145L66.2742 79.185C65.9259 79.5178 65.5419 79.8112 65.1292 80.06C64.8592 80.255 64.7342 80.395 64.7192 80.38C64.7042 80.365 64.8042 80.21 65.0642 79.98C65.446 79.7038 65.8039 79.396 66.1342 79.06L66.2492 78.925L66.2992 79.1C66.5892 80.245 66.9742 81.825 67.3842 83.57V83.685L67.1542 83.635C67.6335 82.9583 68.0694 82.2519 68.4592 81.52L69.4292 79.725L70.0842 78.51C70.1583 78.3607 70.2506 78.2213 70.3592 78.095Z" fill="#282828"/>
<path d="M59.1093 80.395C59.1093 80.395 57.7043 98.645 57.3393 100.995C56.9743 103.345 58.2242 140.13 58.2242 140.13L66.4443 140.66C66.4443 140.66 66.5293 110.285 66.4443 110.075C66.3593 109.865 66.4843 88.63 66.4843 88.63L64.6193 80.17L61.4392 83.935L59.1093 80.395Z" fill="white"/>
<path d="M68.2848 97.745C68.2848 97.785 67.9948 97.85 67.8498 98.245C67.8077 98.351 67.789 98.4649 67.795 98.5788C67.801 98.6928 67.8317 98.804 67.8848 98.905C67.9611 99.0162 68.0694 99.1015 68.1953 99.1497C68.3212 99.198 68.4588 99.2068 68.5898 99.175C68.7234 99.1598 68.849 99.1036 68.9493 99.014C69.0496 98.9245 69.1197 98.806 69.1498 98.675C69.1643 98.5618 69.1539 98.4467 69.1194 98.3379C69.0848 98.2291 69.027 98.1292 68.9498 98.045C68.7907 97.8848 68.5867 97.7767 68.3648 97.735C68.3648 97.735 68.4298 97.685 68.5648 97.685C68.7531 97.7051 68.9292 97.7879 69.0648 97.92C69.174 98.0196 69.2585 98.1434 69.3114 98.2814C69.3643 98.4194 69.3844 98.5679 69.3698 98.715C69.3293 98.8958 69.2365 99.0607 69.103 99.1892C68.9695 99.3176 68.8012 99.404 68.6189 99.4376C68.4367 99.4712 68.2486 99.4504 68.0781 99.378C67.9076 99.3055 67.7621 99.1845 67.6598 99.03C67.5926 98.8975 67.5576 98.7511 67.5576 98.6025C67.5576 98.4539 67.5926 98.3075 67.6598 98.175C67.7419 97.9987 67.8835 97.857 68.0598 97.775C68.2048 97.72 68.2798 97.73 68.2848 97.745Z" fill="#282828"/>
<path d="M68.2848 113.675C68.2848 113.715 67.9948 113.785 67.8498 114.175C67.8076 114.281 67.7889 114.395 67.795 114.509C67.801 114.623 67.8316 114.734 67.8848 114.835C67.9655 114.941 68.0742 115.023 68.1986 115.071C68.3231 115.119 68.4585 115.132 68.5897 115.107C68.721 115.083 68.8428 115.023 68.9417 114.933C69.0406 114.843 69.1127 114.728 69.1498 114.6C69.1646 114.487 69.1544 114.372 69.1198 114.263C69.0853 114.154 69.0272 114.054 68.9498 113.97C68.6698 113.655 68.3598 113.7 68.3648 113.655C68.3698 113.61 68.4298 113.605 68.5648 113.61C68.7528 113.628 68.9291 113.709 69.0648 113.84C69.1731 113.94 69.2568 114.064 69.3097 114.202C69.3626 114.34 69.3832 114.488 69.3698 114.635C69.3293 114.816 69.2365 114.981 69.103 115.109C68.9694 115.238 68.8011 115.324 68.6189 115.358C68.4367 115.391 68.2486 115.37 68.0781 115.298C67.9076 115.225 67.7621 115.104 67.6598 114.95C67.5926 114.818 67.5576 114.673 67.5576 114.525C67.5576 114.377 67.5926 114.232 67.6598 114.1C67.7418 113.924 67.8835 113.782 68.0598 113.7C68.2048 113.65 68.2798 113.665 68.2848 113.675Z" fill="#282828"/>
<path d="M68.9998 132.945C68.9998 132.985 68.7098 133.055 68.5648 133.445C68.5226 133.551 68.5039 133.665 68.5099 133.779C68.516 133.893 68.5466 134.004 68.5998 134.105C68.6805 134.211 68.7891 134.293 68.9136 134.341C69.0381 134.389 69.1735 134.402 69.3047 134.377C69.4359 134.353 69.5578 134.293 69.6567 134.203C69.7556 134.113 69.8276 133.998 69.8648 133.87C69.8796 133.757 69.8694 133.642 69.8348 133.533C69.8002 133.424 69.7422 133.324 69.6648 133.24C69.3848 132.925 69.0748 132.97 69.0798 132.925C69.0848 132.88 69.1448 132.875 69.2798 132.88C69.4682 132.896 69.6451 132.977 69.7798 133.11C69.8899 133.209 69.9752 133.333 70.0291 133.471C70.0829 133.609 70.1037 133.757 70.0898 133.905C70.0501 134.087 69.9575 134.253 69.8236 134.383C69.6897 134.513 69.5204 134.6 69.3371 134.633C69.1538 134.667 68.9647 134.646 68.7934 134.572C68.6222 134.499 68.4766 134.376 68.3748 134.22C68.3088 134.088 68.2744 133.943 68.2744 133.795C68.2744 133.647 68.3088 133.502 68.3748 133.37C68.4568 133.194 68.5985 133.052 68.7748 132.97C68.9348 132.92 68.9998 132.935 68.9998 132.945Z" fill="#282828"/>
<g opacity="0.3">
<path d="M79.6696 97.6C79.4896 96.145 79.1046 94.72 79.0096 93.255C78.8896 91.505 79.1946 89.755 78.8496 88.01C77.6596 90.01 77.3896 92.395 77.3846 94.71C77.3796 97.025 77.5946 99.35 77.2646 101.64C77.0396 103.21 76.5296 105.095 76.3396 106.67C76.1496 108.245 76.5996 109.11 77.0596 111.475C78.6446 107 80.2496 102.315 79.6696 97.6Z" fill="black"/>
</g>
<path d="M76.8948 93.88C77.839 96.5788 78.1449 99.4596 77.7883 102.296C77.4318 105.133 76.4225 107.849 74.8398 110.23" fill="#FE9DA1"/>
<path d="M74.8395 110.23C74.7945 110.2 75.3395 109.41 75.9995 108.02C76.38 107.21 76.7041 106.375 76.9695 105.52C77.2837 104.465 77.5144 103.386 77.6595 102.295C77.7874 101.202 77.8309 100.1 77.7895 99C77.7466 98.1021 77.6413 97.2083 77.4745 96.325C77.1795 94.825 76.8445 93.915 76.8945 93.895C77.0032 94.0934 77.0904 94.3029 77.1545 94.52C77.2295 94.725 77.3145 94.975 77.3945 95.27C77.4745 95.565 77.5845 95.905 77.6545 96.27C77.8492 97.1606 77.9746 98.065 78.0295 98.975C78.1622 101.207 77.8808 103.445 77.1995 105.575C76.9179 106.433 76.5719 107.269 76.1645 108.075C75.9995 108.43 75.8145 108.73 75.6645 108.995C75.5345 109.225 75.3926 109.449 75.2395 109.665C75.1266 109.867 74.9925 110.056 74.8395 110.23Z" fill="#282828"/>
<path d="M52.0595 118C51.7084 117.783 51.3859 117.522 51.0995 117.225C49.6384 115.87 48.3563 114.335 47.2845 112.655C47.04 112.319 46.84 111.952 46.6895 111.565C46.9663 111.876 47.2156 112.211 47.4345 112.565C47.8795 113.18 48.5045 114.02 49.2445 114.91C49.9845 115.8 50.6995 116.56 51.2445 117.11C51.5405 117.383 51.8132 117.681 52.0595 118Z" fill="#282828"/>
<path d="M48.7699 118.525C48.5585 118.238 48.3901 117.921 48.2699 117.585C47.5661 116.011 47.0621 114.354 46.7699 112.655C46.6841 112.307 46.6488 111.948 46.6649 111.59C46.7399 111.59 47.0299 113.175 47.6149 115.09C48.1999 117.005 48.8399 118.5 48.7699 118.525Z" fill="#282828"/>
<path d="M64.8496 109C64.8496 109.035 64.5446 108.84 64.0496 108.645C63.4034 108.393 62.7093 108.288 62.0175 108.337C61.3256 108.386 60.6534 108.589 60.0496 108.93C59.5896 109.195 59.3446 109.43 59.3096 109.39C59.4712 109.136 59.6927 108.924 59.9546 108.775C60.5623 108.369 61.2656 108.13 61.9946 108.08C62.7225 108.024 63.4523 108.162 64.1096 108.48C64.3951 108.59 64.6492 108.769 64.8496 109Z" fill="#282828"/>
<path d="M37.0899 107.815C37.0899 107.815 33.4149 111.815 33.6949 114.605C33.9749 117.395 35.2749 123.535 38.6949 123.35C42.1149 123.165 45.2499 117.63 45.6949 113.24C46.1399 108.85 45.6949 98.52 45.6949 98.52L40.7899 99.625L37.0899 107.815Z" fill="#FFBE9D"/>
<path d="M29.7897 82.215C32.3297 85.46 38.6247 93.285 38.6247 93.285L44.5497 91.785C44.7614 91.7321 44.952 91.6164 45.0966 91.453C45.2412 91.2897 45.3329 91.0864 45.3597 90.87C45.3772 90.7284 45.3663 90.5847 45.3277 90.4473C45.289 90.31 45.2234 90.1817 45.1347 90.07L36.8297 79.57C36.5198 79.176 36.0926 78.891 35.6098 78.7561C35.1271 78.6213 34.6139 78.6436 34.1447 78.82L30.3497 80.245C30.1635 80.3153 29.9963 80.4283 29.8616 80.5749C29.7269 80.7215 29.6284 80.8975 29.574 81.089C29.5195 81.2805 29.5107 81.4821 29.5482 81.6776C29.5856 81.8731 29.6684 82.0572 29.7897 82.215Z" fill="#282828"/>
<path d="M44.7301 90.455C44.5259 90.2888 44.3353 90.1065 44.1601 89.91C43.8051 89.54 43.3001 89.005 42.6951 88.33C41.4851 86.975 39.8651 85.05 38.1951 82.83C37.7801 82.275 37.3801 81.73 37.0001 81.195C36.6859 80.6714 36.2631 80.2213 35.7601 79.875C35.5158 79.7614 35.2496 79.7025 34.9801 79.7025C34.7107 79.7025 34.4445 79.7614 34.2001 79.875L32.8001 80.375L30.7551 81.05C30.509 81.1452 30.2546 81.2171 29.9951 81.265C30.2287 81.1436 30.471 81.04 30.7201 80.955L32.7201 80.2L34.1151 79.7C34.3827 79.6001 34.6614 79.5329 34.9451 79.5C35.2621 79.4738 35.5798 79.5398 35.8601 79.69C36.4013 80.0461 36.8571 80.5173 37.1951 81.07L38.3901 82.7C40.0501 84.915 41.6401 86.85 42.8151 88.23C43.3801 88.895 43.8551 89.445 44.2151 89.865C44.4023 90.0476 44.5745 90.2449 44.7301 90.455Z" fill="#4A4949"/>
<path d="M33.1542 81.125C33.2432 81.0812 33.3431 81.0649 33.4413 81.078C33.5395 81.0912 33.6316 81.1332 33.7059 81.1988C33.7802 81.2644 33.8333 81.3505 33.8585 81.4464C33.8838 81.5422 33.8799 81.6434 33.8475 81.737C33.8151 81.8307 33.7557 81.9126 33.6766 81.9724C33.5976 82.0322 33.5026 82.0671 33.4036 82.0728C33.3047 82.0785 33.2063 82.0546 33.1209 82.0043C33.0356 81.9539 32.9671 81.8793 32.9242 81.79C32.8672 81.6712 32.8594 81.5347 32.9025 81.4102C32.9455 81.2857 33.036 81.1832 33.1542 81.125Z" fill="white"/>
<path d="M38.2343 88.22L35.4943 88.675L34.4943 89.575C34.353 89.697 34.2442 89.8523 34.1779 90.0269C34.1115 90.2015 34.0897 90.3898 34.1143 90.575C34.1922 91.0677 34.407 91.5285 34.7343 91.905C35.0873 92.343 35.4862 92.742 35.9243 93.095C35.9243 93.095 34.9643 94.655 36.4543 95.445C36.4543 95.445 36.3543 97.06 37.9193 97.225C37.9193 97.225 38.3743 98.76 39.5543 98.845L40.7693 100.05L40.3993 100.785L45.8343 100.955C45.8619 99.5051 45.79 98.055 45.6193 96.615C45.527 96.0289 45.3848 95.4518 45.1943 94.89C45.4693 93.36 44.3243 92.72 44.1493 92.83C44.1493 92.83 46.7443 92.15 46.4143 90.365L43.9143 91.005L39.3493 91.955L42.2793 90C42.4246 89.8667 42.5522 89.7155 42.6593 89.55C42.9093 89.155 43.2793 88.44 42.9643 88.02C42.8293 87.845 39.2293 89.35 39.2293 89.35L36.9993 91.405L36.2993 90.405C36.2993 90.405 38.5943 89.935 38.2343 88.22Z" fill="#FFBE9D"/>
<path d="M44.5 92.85C44.5 92.93 43.535 93.065 42.38 93.405C41.225 93.745 40.325 94.14 40.29 94.07C40.89 93.6364 41.5697 93.3254 42.29 93.155C42.9988 92.9063 43.7504 92.8026 44.5 92.85Z" fill="#EB996E"/>
<path d="M43.2447 97.555C43.5715 97.2578 43.8741 96.9351 44.1497 96.59L44.2447 96.465L44.3097 96.61C44.3996 96.8012 44.5586 96.9513 44.7547 97.03C44.8578 97.0815 44.9726 97.1049 45.0876 97.0979C45.2026 97.0909 45.3137 97.0536 45.4097 96.99C45.4512 96.9578 45.4821 96.9139 45.4981 96.8639C45.5142 96.8139 45.5147 96.7603 45.4997 96.71L45.4247 96.26C45.3872 95.9473 45.3253 95.638 45.2397 95.335C45.1987 95.2063 45.1171 95.0943 45.0071 95.0159C44.8972 94.9375 44.7648 94.8968 44.6297 94.9C44.3471 94.9122 44.0677 94.9644 43.7997 95.055L42.3347 95.415C41.8889 95.5454 41.432 95.6341 40.9697 95.68C41.3958 95.4933 41.8375 95.3444 42.2897 95.235L43.7297 94.825C44.0216 94.7172 44.3288 94.6564 44.6397 94.645C44.8176 94.6488 44.9909 94.7025 45.1397 94.8C45.2909 94.9129 45.4056 95.0676 45.4697 95.245C45.5601 95.5644 45.6253 95.8904 45.6647 96.22C45.6647 96.375 45.7097 96.53 45.7347 96.68C45.7531 96.7732 45.7445 96.8698 45.71 96.9583C45.6755 97.0469 45.6164 97.1238 45.5397 97.18C45.4093 97.2668 45.258 97.3172 45.1015 97.326C44.9451 97.3348 44.7891 97.3016 44.6497 97.23C44.421 97.1145 44.243 96.9186 44.1497 96.68H44.3047C44.0955 96.9421 43.8496 97.1728 43.5747 97.365C43.3697 97.5 43.2547 97.57 43.2447 97.555Z" fill="#EB996E"/>
<path d="M38.4393 90C38.0776 90.5646 37.6695 91.0981 37.2193 91.595C36.8397 92.1473 36.4131 92.6659 35.9443 93.145C36.1984 92.5233 36.555 91.9486 36.9993 91.445C37.3902 90.882 37.8777 90.3928 38.4393 90Z" fill="#EB996E"/>
<path d="M39.5695 91.885C39.5695 91.96 38.9995 92.14 38.5695 92.725C38.3446 93.0964 38.1761 93.4991 38.0695 93.92C38.0345 93.92 37.9845 93.77 37.9945 93.51C38.0252 93.1711 38.147 92.8469 38.3467 92.5714C38.5465 92.2959 38.8169 92.0795 39.1295 91.945C39.3995 91.855 39.5595 91.855 39.5695 91.885Z" fill="#EB996E"/>
<path d="M68.8999 51.605C68.4799 50.505 68.6449 49.28 68.4799 48.105C68.1199 45.54 66.0549 43.48 63.6649 42.475C61.4399 41.545 58.7249 41.745 56.0449 42.605C54.1833 43.1672 52.5202 44.2476 51.2499 45.72C50.4403 46.7186 49.8817 47.8965 49.6208 49.1552C49.3598 50.414 49.4041 51.7169 49.7499 52.955L62.8799 51.06C64.1049 52.06 65.3799 53.115 66.8549 53.685C67.2846 53.8764 67.7568 53.9523 68.2249 53.905C68.4538 53.8736 68.6692 53.778 68.8461 53.6294C69.0231 53.4807 69.1544 53.2851 69.2249 53.065C69.3749 52.57 69.0849 52.085 68.8999 51.605Z" fill="#282828"/>
<path d="M60.7402 41.82C63.6152 41.32 66.1402 42.445 68.5602 44.07C70.9768 45.7398 72.8246 48.1093 73.8552 50.86C74.9602 53.725 75.2402 57.86 74.3552 60.815C73.9736 62.2024 73.2624 63.4771 72.2822 64.5305C71.3019 65.5838 70.0816 66.3847 68.7252 66.865C64.7752 68.265 60.2252 68.09 56.8652 65.56C53.5052 63.03 51.6152 58.845 51.4602 54.655C51.3128 51.7466 52.0842 48.8656 53.6652 46.42C54.4619 45.2106 55.4989 44.1781 56.7118 43.3867C57.9246 42.5954 59.2873 42.0621 60.7152 41.82" fill="#282828"/>
<path d="M56.1748 73.085L56.2798 75.425L61.4398 84.55L68.9398 74.95L69.1948 50.95C69.1847 50.4137 68.9735 49.9007 68.6031 49.5127C68.2327 49.1247 67.7301 48.89 67.1948 48.855L55.7398 46.41C52.0898 46.165 49.8398 50.73 49.7398 54.41C49.6398 58.475 49.6698 63.44 50.2398 66.445C51.4348 72.49 56.1248 73.09 56.1248 73.09" fill="#FFBE9D"/>
<path d="M51.4102 59.445C51.4141 59.6488 51.4982 59.8428 51.6442 59.9851C51.7902 60.1273 51.9863 60.2064 52.1902 60.205C52.2899 60.209 52.3894 60.1931 52.4829 60.1581C52.5764 60.1232 52.662 60.0699 52.7346 60.0014C52.8073 59.933 52.8655 59.8507 52.906 59.7595C52.9464 59.6682 52.9682 59.5698 52.9702 59.47C52.9624 59.2679 52.877 59.0766 52.7317 58.9359C52.5864 58.7953 52.3924 58.7161 52.1902 58.715C52.0907 58.7103 51.9912 58.7256 51.8978 58.76C51.8043 58.7944 51.7187 58.8472 51.646 58.9152C51.5732 58.9833 51.5149 59.0652 51.4744 59.1562C51.4339 59.2472 51.4121 59.3454 51.4102 59.445Z" fill="#282828"/>
<path d="M50.94 56.75C51.04 56.85 51.615 56.39 52.44 56.36C53.265 56.33 53.91 56.725 53.995 56.62C54.08 56.515 53.935 56.395 53.655 56.21C53.284 55.9695 52.8466 55.8523 52.405 55.875C51.969 55.8889 51.5487 56.0413 51.205 56.31C50.97 56.5 50.89 56.705 50.94 56.75Z" fill="#282828"/>
<path d="M59.0244 59.3C59.0296 59.5042 59.1148 59.6983 59.2616 59.8404C59.4084 59.9825 59.6051 60.0614 59.8094 60.06C59.9085 60.064 60.0074 60.0482 60.1003 60.0135C60.1932 59.9788 60.2782 59.9259 60.3504 59.8579C60.4225 59.7899 60.4804 59.7082 60.5206 59.6175C60.5608 59.5269 60.5825 59.4291 60.5844 59.33C60.5805 59.1262 60.4964 58.9321 60.3504 58.7899C60.2044 58.6476 60.0082 58.5686 59.8044 58.57C59.7049 58.5653 59.6055 58.5806 59.512 58.615C59.4186 58.6494 59.3329 58.7022 59.2602 58.7702C59.1875 58.8383 59.1291 58.9202 59.0886 59.0112C59.0481 59.1022 59.0263 59.2004 59.0244 59.3Z" fill="#282828"/>
<path d="M58.9097 56.555C59.0097 56.655 59.5847 56.195 60.4097 56.165C61.2347 56.135 61.9097 56.535 61.9697 56.425C62.0297 56.315 61.9097 56.2 61.6297 56.015C61.2587 55.7745 60.8213 55.6573 60.3797 55.68C59.9437 55.6939 59.5234 55.8463 59.1797 56.115C58.9397 56.325 58.8597 56.5 58.9097 56.555Z" fill="#282828"/>
<path d="M56.3794 62.935C55.9326 62.8132 55.4724 62.7477 55.0094 62.74C54.7944 62.74 54.5894 62.69 54.5494 62.545C54.5216 62.3243 54.5635 62.1006 54.6694 61.905L55.2394 60.25C56.0344 57.895 56.5994 55.96 56.5044 55.93C56.4094 55.9 55.6894 57.78 54.8944 60.14L54.3494 61.805C54.2258 62.0689 54.1975 62.3675 54.2694 62.65C54.3044 62.7238 54.3553 62.7889 54.4184 62.8408C54.4814 62.8926 54.5552 62.9299 54.6344 62.95C54.754 62.9774 54.8767 62.9891 54.9994 62.985C55.4596 63.0293 55.9236 63.0125 56.3794 62.935Z" fill="#282828"/>
<path d="M56.1748 73.085C59.0466 72.8923 61.8221 71.9717 64.2398 70.41C64.2398 70.41 62.3498 74.695 56.2398 74.355L56.1748 73.085Z" fill="#EB996E"/>
<path d="M57.0245 64.74C57.1768 64.5726 57.369 64.4463 57.5831 64.3729C57.7972 64.2995 58.0264 64.2813 58.2495 64.32C58.4093 64.335 58.5632 64.3883 58.6981 64.4753C58.833 64.5624 58.9449 64.6806 59.0245 64.82C59.1399 64.9889 59.2077 65.1856 59.2209 65.3897C59.2341 65.5938 59.1922 65.7977 59.0995 65.98C58.9717 66.1376 58.799 66.2527 58.6043 66.3098C58.4096 66.367 58.2022 66.3636 58.0095 66.3C57.6462 66.2171 57.3051 66.0568 57.0095 65.83C56.9141 65.7378 56.848 65.6195 56.8195 65.49C56.7995 65.3565 56.8098 65.2203 56.8496 65.0913C56.8894 64.9624 56.9577 64.844 57.0495 64.745" fill="#EB996E"/>
<path d="M58.9597 54.59C59.0497 54.815 59.8847 54.675 60.8697 54.76C61.8547 54.845 62.6697 55.08 62.7897 54.87C62.8447 54.77 62.6997 54.56 62.3697 54.37C61.9338 54.1092 61.4417 53.9566 60.9347 53.925C60.4231 53.8825 59.9088 53.963 59.4347 54.16C59.0947 54.295 58.9197 54.5 58.9597 54.59Z" fill="#282828"/>
<path d="M51.0443 53.07C51.1993 53.255 51.7693 53.035 52.4643 53C53.1593 52.965 53.7543 53.08 53.8793 52.875C53.9343 52.78 53.8343 52.59 53.5743 52.42C53.22 52.2164 52.8134 52.1224 52.4057 52.15C51.9981 52.1776 51.6078 52.3255 51.2843 52.575C51.0493 52.78 50.9993 53 51.0443 53.07Z" fill="#282828"/>
<path d="M70.9993 49.84C69.8143 46.34 64.6343 41.585 60.9593 41.91L55.1543 45.54C55.3639 46.5384 55.8392 47.4618 56.53 48.2125C57.2209 48.9632 58.1016 49.5134 59.0793 49.805C60.1243 50.1 61.3743 50.165 62.0093 51.045C62.6443 51.925 62.3143 53.28 62.9193 54.21C63.7543 55.5 65.9743 55.395 66.6143 56.795C66.8893 57.405 66.7643 58.14 67.0543 58.75C67.4393 59.555 69.5193 60.55 70.3693 60.25C71.2193 59.95 71.1893 58.51 71.4543 57.75C71.7887 56.8853 71.8152 55.9319 71.5293 55.05C71.1293 53.345 71.5693 51.5 70.9993 49.84Z" fill="#282828"/>
<path d="M67.8701 61.03C67.8701 60.575 68.3401 59.49 68.7851 59.4C69.9701 59.17 72.1251 59.185 72.2851 62.22C72.4701 66.365 68.2851 65.69 68.2551 65.575C68.2251 65.46 67.9251 62.595 67.8701 61.03Z" fill="#FFBE9D"/>
<path d="M69.4297 63.945C69.4297 63.945 69.5047 63.995 69.6247 64.045C69.7111 64.0809 69.8037 64.0993 69.8972 64.0993C69.9908 64.0993 70.0834 64.0809 70.1697 64.045C70.5997 63.865 70.9347 63.155 70.9247 62.41C70.9214 62.0536 70.8359 61.7028 70.6747 61.385C70.6315 61.2569 70.5573 61.1415 70.4588 61.049C70.3602 60.9566 70.2403 60.8899 70.1097 60.855C70.0256 60.8353 69.9372 60.8461 69.8603 60.8855C69.7834 60.9248 69.723 60.9902 69.6897 61.07C69.6397 61.19 69.6897 61.27 69.6497 61.275C69.6097 61.28 69.5547 61.21 69.5847 61.04C69.6005 60.9348 69.6538 60.8389 69.7347 60.77C69.8456 60.6797 69.9874 60.6366 70.1297 60.65C70.3015 60.6752 70.4638 60.7447 70.6005 60.8516C70.7373 60.9586 70.8439 61.0993 70.9097 61.26C71.1017 61.6117 71.2063 62.0044 71.2147 62.405C71.2147 63.24 70.8297 64.04 70.2147 64.24C70.105 64.2772 69.9882 64.2894 69.8732 64.2755C69.7581 64.2617 69.6476 64.2222 69.5497 64.16C69.4397 64.045 69.4147 63.955 69.4297 63.945Z" fill="#EB996E"/>
<path d="M74.7594 55.36C74.8848 54.9575 74.939 54.5361 74.9194 54.115C74.9306 52.0651 74.2546 50.0706 72.9994 48.45C72.7607 48.1041 72.4648 47.8015 72.1244 47.555C72.0444 47.605 73.4344 48.985 74.1644 51.21C74.5753 52.5544 74.776 53.9543 74.7594 55.36Z" fill="#FE9DA1"/>
<path d="M56.3645 44.29C55.9795 45.975 53.4145 48.135 52.2845 49.45C50.1345 51.95 49.7295 52.32 49.7445 59.875C48.6321 57.5298 48.0435 54.9705 48.0195 52.375C48.0699 50.1679 48.9252 48.0554 50.4245 46.435C51.1802 45.6411 52.1105 45.0343 53.1416 44.6629C54.1727 44.2914 55.2762 44.1654 56.3645 44.295" fill="#282828"/>
<path d="M73.115 49.785C72.8885 49.8677 72.6539 49.9263 72.415 49.96C72.185 50.01 71.915 50.065 71.575 50.105C71.235 50.145 70.87 50.215 70.45 50.235C69.473 50.3065 68.4921 50.3065 67.515 50.235C66.3158 50.1483 65.1253 49.966 63.955 49.69C62.7885 49.3974 61.648 49.0094 60.545 48.53C59.6469 48.1352 58.7795 47.6739 57.95 47.15C57.585 46.94 57.285 46.71 57.015 46.52C56.7799 46.3652 56.5529 46.1983 56.335 46.02C56.1406 45.8678 55.9584 45.7006 55.79 45.52C56.0034 45.6347 56.2059 45.7686 56.395 45.92C56.58 46.06 56.81 46.225 57.09 46.42C57.37 46.615 57.675 46.815 58.04 47.015C58.8735 47.5143 59.7406 47.9554 60.635 48.335C61.7252 48.8089 62.8502 49.1984 64 49.5C65.1514 49.7722 66.3212 49.9593 67.5 50.06C68.4684 50.1325 69.4406 50.1409 70.41 50.085C70.825 50.085 71.2 50.02 71.525 49.995C71.85 49.97 72.135 49.925 72.365 49.89C72.6118 49.8348 72.8626 49.7997 73.115 49.785Z" fill="#4A4949"/>
<path d="M73.5451 52.76C73.3841 52.8196 73.216 52.8582 73.0451 52.875C72.6039 52.9579 72.1581 53.0147 71.7101 53.045C68.7292 53.2636 65.7445 52.6746 63.0701 51.34C62.6662 51.1425 62.2739 50.9221 61.8951 50.68C61.7492 50.6 61.6146 50.5008 61.4951 50.385C61.4951 50.35 62.1201 50.715 63.1451 51.185C65.8232 52.416 68.7553 52.9935 71.7001 52.87C72.8451 52.825 73.5401 52.715 73.5451 52.76Z" fill="#4A4949"/>
<path d="M74.5951 52.86C74.6666 53.062 74.7136 53.2718 74.7351 53.485C74.8001 53.895 74.8651 54.485 74.9051 55.22C74.9501 56.0811 74.9501 56.9439 74.9051 57.805C74.8658 58.863 74.7234 59.9146 74.4801 60.945C73.992 62.8385 72.854 64.5003 71.2651 65.64C70.7828 65.9694 70.2665 66.246 69.7251 66.465C69.5327 66.5581 69.3295 66.6269 69.1201 66.67C69.2999 66.5561 69.4889 66.4574 69.6851 66.375C70.2014 66.125 70.6949 65.8305 71.1601 65.495C71.8423 64.9905 72.4369 64.3774 72.9201 63.68C73.5285 62.8382 73.9744 61.8903 74.2351 60.885C74.4716 59.8681 74.6188 58.8325 74.6751 57.79C74.7351 56.825 74.7451 55.955 74.7301 55.225C74.7151 54.495 74.6801 53.905 74.6401 53.5C74.606 53.2884 74.591 53.0742 74.5951 52.86Z" fill="#4A4949"/>
<path d="M58.0593 66.29C58.2838 66.2921 58.5054 66.2389 58.7043 66.135C58.8017 66.0751 58.8852 65.995 58.949 65.9001C59.0128 65.8052 59.0556 65.6978 59.0743 65.585C59.0968 65.4468 59.0887 65.3054 59.0507 65.1706C59.0127 65.0359 58.9457 64.9111 58.8543 64.805C58.6599 64.5966 58.3937 64.4697 58.1093 64.45C57.8699 64.4356 57.6312 64.4875 57.4193 64.6C57.0493 64.795 56.9193 65.035 56.8593 65.01C56.7993 64.985 56.9343 64.71 57.3243 64.44C57.559 64.2826 57.8369 64.2022 58.1193 64.21C58.2951 64.214 58.4682 64.2538 58.6281 64.3268C58.7879 64.3999 58.9313 64.5047 59.0493 64.635C59.1673 64.77 59.2523 64.9307 59.2974 65.1043C59.3425 65.2779 59.3466 65.4596 59.3093 65.635C59.2819 65.7765 59.2226 65.9099 59.136 66.0251C59.0494 66.1404 58.9377 66.2343 58.8093 66.3C58.3393 66.5 58.0343 66.31 58.0593 66.29Z" fill="#282828"/>
<path d="M83.6348 100.43L85.8648 95.675C86.2348 94.175 87.7448 93.675 89.5948 93.555L91.5498 92.755C91.5498 92.755 92.9748 90.7 94.2948 90.755C94.3982 90.7585 94.4981 90.7941 94.5805 90.8568C94.6629 90.9195 94.7238 91.0062 94.7548 91.105C94.777 91.1722 94.7837 91.2437 94.7741 91.3138C94.7646 91.384 94.7392 91.4511 94.6998 91.51L93.0948 93.98L91.8148 94.61C91.8148 94.61 93.0148 94.9 93.4898 94.455C93.9648 94.01 95.5698 92.74 95.5698 92.74C95.5698 92.74 96.7948 90.535 98.3848 90.7C98.4324 90.7043 98.4783 90.7203 98.5182 90.7466C98.5582 90.7729 98.591 90.8087 98.6138 90.8508C98.6365 90.8929 98.6485 90.9399 98.6487 90.9878C98.6489 91.0356 98.6372 91.0827 98.6148 91.125L97.3948 93.48C97.3948 93.48 99.6198 90.135 101.74 91.385L99.3898 93.94C99.3898 93.94 102.8 92.005 104.16 93.625L95.5298 97.19L90.5548 98.165L88.8148 102.885L87.2848 102L83.6348 100.43Z" fill="#FFBE9D"/>
<path d="M88.8048 106.605C88.8048 106.605 89.0698 115.055 87.5098 117.385C85.9499 119.715 83.0498 122.885 79.4598 120.345L77.2148 111.845C77.2148 111.845 80.8699 107.845 81.5349 106.195C83.1899 102.1 85.8648 95.695 85.8648 95.695L90.6248 97.815L88.8048 106.605Z" fill="#FFBE9D"/>
<path d="M82.0744 105.42C81.9273 105.792 81.7466 106.15 81.5345 106.49C81.1845 107.135 80.7145 108.035 80.2495 109.055C79.7845 110.075 79.4094 111.02 79.1444 111.71C79.0288 112.092 78.8765 112.462 78.6895 112.815C78.7363 112.416 78.832 112.025 78.9744 111.65C79.26 110.728 79.6057 109.826 80.0095 108.95C80.4115 108.071 80.8673 107.218 81.3745 106.395C81.5675 106.043 81.8025 105.715 82.0744 105.42Z" fill="#EB996E"/>
<path d="M93.0952 93.955C92.7533 94.2545 92.3581 94.4869 91.9302 94.64C91.5396 94.87 91.1084 95.0228 90.6602 95.09C91.0006 94.7911 91.3941 94.5588 91.8202 94.405C92.2127 94.1752 92.6454 94.0225 93.0952 93.955Z" fill="#EB996E"/>
<path d="M93.8096 96.19C93.8096 96.155 94.0346 96.005 94.4396 95.83L95.1596 95.535L95.5746 95.36C95.7131 95.3074 95.8355 95.2195 95.9296 95.105C96.3646 94.605 96.7196 94.105 97.0046 93.77C97.2896 93.435 97.5046 93.225 97.5296 93.27C97.5012 93.3284 97.4694 93.3852 97.4346 93.44L97.1546 93.88C96.8412 94.3692 96.4954 94.8369 96.1196 95.28C96.0591 95.3495 95.9921 95.4131 95.9196 95.47C95.8444 95.5203 95.7639 95.5622 95.6796 95.595L95.2446 95.76C94.9696 95.86 94.7146 95.935 94.5046 96.005C94.2813 96.0946 94.0479 96.1567 93.8096 96.19Z" fill="#EB996E"/>
</svg>
