<svg width="100" height="98" viewBox="0 0 100 98" fill="none" xmlns="http://www.w3.org/2000/svg">
<path d="M16.4338 75.09C16.0435 74.4121 15.1602 74.1861 14.4823 74.5764L10.908 76.6512V72.5222C10.908 71.7416 10.2711 71.1048 9.49054 71.1048C8.70993 71.1048 8.07312 71.7416 8.07312 72.5222V76.6512L4.49876 74.5764C3.82086 74.1861 2.93754 74.4121 2.54724 75.09C2.15693 75.7679 2.3829 76.6512 3.06079 77.0415L6.6557 79.1368L3.06079 81.2321C2.3829 81.6224 2.15693 82.5057 2.54724 83.1836C2.93754 83.8615 3.82086 84.0875 4.49876 83.6972L8.07312 81.6224V85.7514C8.07312 86.532 8.70993 87.1689 9.49054 87.1689C10.2711 87.1689 10.908 86.532 10.908 85.7514V81.6224L14.4823 83.6972C15.1602 84.0875 16.0435 83.8615 16.4338 83.1836C16.8241 82.5057 16.5982 81.6224 15.9203 81.2321L12.3254 79.1368L15.9203 77.0415C16.5982 76.6306 16.8447 75.7679 16.4338 75.09Z" fill="#008541"/>
<path d="M29.5604 83.1631C29.9507 83.841 30.834 84.067 31.5119 83.6767L35.0863 81.6019V85.7309C35.0863 86.5115 35.7231 87.1483 36.5037 87.1483C37.2843 87.1483 37.9211 86.5115 37.9211 85.7309V81.6019L41.4955 83.6767C42.1734 84.067 43.0567 83.841 43.447 83.1631C43.8373 82.4852 43.6114 81.6019 42.9335 81.2116L39.3386 79.1163L42.9335 77.021C43.6114 76.6307 43.8373 75.7473 43.447 75.0694C43.0567 74.3915 42.1734 74.1656 41.4955 74.5559L37.9211 76.6307V72.5016C37.9211 71.721 37.2843 71.0842 36.5037 71.0842C35.7231 71.0842 35.0863 71.721 35.0863 72.5016V76.6307L31.5119 74.5764C30.834 74.1861 29.9507 74.4121 29.5604 75.09C29.1701 75.7679 29.3961 76.6512 30.074 77.0415L33.6689 79.1368L30.074 81.2116C29.3961 81.6019 29.1701 82.4852 29.5604 83.1631Z" fill="#008541"/>
<path d="M27.0131 93.9273V96.4334C27.0131 97.0292 27.5061 97.5222 28.1019 97.5222H44.926C45.5217 97.5222 46.0148 97.0292 46.0148 96.4334V93.9273C46.0148 93.3315 45.5217 92.8385 44.926 92.8385H28.1019C27.4856 92.8385 27.0131 93.3315 27.0131 93.9273Z" fill="#008541"/>
<path d="M68.0156 23.878H67.8924V18.2905C67.8924 8.57396 59.9425 0.315948 50.2465 0.480286C40.8176 0.644625 33.1758 8.36854 33.1758 17.8385V18.3726C33.1758 19.1738 33.8332 19.8312 34.6343 19.8312H39.2974C40.0986 19.8312 40.756 19.1738 40.756 18.3726V18.2083C40.756 12.9906 44.6795 8.40962 49.8973 8.08094C55.567 7.73172 60.2917 12.2305 60.2917 17.818V23.8574H45.9121V23.878H32.6212C30.1561 23.9602 28.1635 25.9528 28.1635 28.4384V53.7054C28.1635 56.2321 30.2177 58.2864 32.7444 58.2864H67.9951C70.5218 58.2864 72.576 56.2321 72.576 53.7054V28.4589C72.5965 25.9322 70.5423 23.878 68.0156 23.878ZM53.1019 42.2223C52.7527 42.4688 52.65 42.7358 52.65 43.1467C52.6705 44.9955 52.6705 46.8443 52.65 48.7136C52.691 49.4943 52.3007 50.2338 51.6023 50.583C49.9795 51.4047 48.3566 50.2543 48.3566 48.7136C48.3566 48.7136 48.3566 48.7136 48.3566 48.6931C48.3566 46.8443 48.3566 44.9749 48.3566 43.1261C48.3566 42.7564 48.2744 42.4893 47.9458 42.2428C46.2613 41.0103 45.7067 38.8944 46.5489 37.0251C47.3706 35.2173 49.3632 34.1491 51.2325 34.5394C53.3279 34.9503 54.7864 36.6553 54.8069 38.7301C54.8685 40.1886 54.2728 41.38 53.1019 42.2223Z" fill="#008541"/>
<path d="M54.0057 93.9273V96.4334C54.0057 97.0292 54.4988 97.5222 55.0945 97.5222H71.9186C72.5144 97.5222 73.0074 97.0292 73.0074 96.4334V93.9273C73.0074 93.3315 72.5144 92.8385 71.9186 92.8385H55.0945C54.4988 92.8385 54.0057 93.3315 54.0057 93.9273Z" fill="#008541"/>
<path d="M56.553 83.1631C56.9433 83.841 57.8266 84.067 58.5045 83.6767L62.0789 81.6019V85.7309C62.0789 86.5115 62.7157 87.1483 63.4963 87.1483C64.2769 87.1483 64.9137 86.5115 64.9137 85.7309V81.6019L68.4881 83.6767C69.166 84.067 70.0493 83.841 70.4396 83.1631C70.8299 82.4852 70.6039 81.6019 69.9261 81.2116L66.3311 79.1163L69.9261 77.021C70.6039 76.6307 70.8299 75.7473 70.4396 75.0694C70.0493 74.3915 69.166 74.1656 68.4881 74.5559L64.9137 76.6307V72.5016C64.9137 71.721 64.2769 71.0842 63.4963 71.0842C62.7157 71.0842 62.0789 71.721 62.0789 72.5016V76.6307L58.5045 74.5559C57.8266 74.1656 56.9433 74.3915 56.553 75.0694C56.1627 75.7473 56.3887 76.6307 57.0666 77.021L60.6615 79.1163L57.0666 81.2116C56.3887 81.6019 56.1627 82.4852 56.553 83.1631Z" fill="#008541"/>
<path d="M98.9113 92.8385H82.0871C81.4914 92.8385 80.9984 93.3315 80.9984 93.9273V96.4334C80.9984 97.0292 81.4914 97.5222 82.0871 97.5222H98.9113C99.507 97.5222 100 97.0292 100 96.4334V93.9273C100 93.3315 99.507 92.8385 98.9113 92.8385Z" fill="#008541"/>
<path d="M1.08874 97.5222H17.9129C18.5086 97.5222 19.0016 97.0292 19.0016 96.4334V93.9273C19.0016 93.3315 18.5086 92.8385 17.9129 92.8385H1.08874C0.493016 92.8385 0 93.3315 0 93.9273V96.4334C0 97.0292 0.493016 97.5222 1.08874 97.5222Z" fill="#008541"/>
<path d="M83.5661 83.1631C83.9564 83.841 84.8398 84.067 85.5177 83.6767L89.092 81.6019V85.7309C89.092 86.5115 89.7288 87.1483 90.5094 87.1483C91.29 87.1483 91.9269 86.5115 91.9269 85.7309V81.6019L95.5012 83.6767C96.1791 84.067 97.0624 83.841 97.4527 83.1631C97.843 82.4852 97.6171 81.6019 96.9392 81.2116L93.3443 79.1163L96.9392 77.021C97.6171 76.6307 97.843 75.7473 97.4527 75.0694C97.0624 74.3915 96.1791 74.1656 95.5012 74.5559L91.9269 76.6307V72.5016C91.9269 71.721 91.29 71.0842 90.5094 71.0842C89.7288 71.0842 89.092 71.721 89.092 72.5016V76.6307L85.5177 74.5559C84.8398 74.1656 83.9564 74.3915 83.5661 75.0694C83.1758 75.7473 83.4018 76.6307 84.0797 77.021L87.6746 79.1163L84.0797 81.2116C83.4018 81.6019 83.1553 82.4852 83.5661 83.1631Z" fill="#008541"/>
</svg>
