<svg width="18" height="14" viewBox="0 0 18 14" fill="none" xmlns="http://www.w3.org/2000/svg">
<path d="M0.250732 3.43665H15.1507V4.2582H0.250732V3.43665Z" fill="#008541"/>
<path d="M15.151 2.35466C15.1503 1.94376 14.9855 1.54988 14.6926 1.25932C14.3997 0.968771 14.0027 0.805241 13.5885 0.804565H1.81348C1.39945 0.805768 1.00272 0.969467 0.709961 1.25991C0.417198 1.55035 0.252188 1.94392 0.250977 2.35466V2.81659H15.151V2.35466Z" fill="#008541"/>
<path d="M17.7446 9.35176V8.67282C17.745 8.63199 17.7372 8.5915 17.7216 8.5537C17.706 8.51591 17.683 8.48157 17.6539 8.4527C17.6248 8.42383 17.5902 8.40101 17.5521 8.38557C17.514 8.37014 17.4732 8.36239 17.4321 8.3628C17.2817 8.36213 17.1377 8.30238 17.0317 8.19662C16.9257 8.09086 16.8663 7.94772 16.8664 7.79856C16.8666 7.75781 16.8586 7.71743 16.8429 7.67975C16.8273 7.64208 16.8043 7.60784 16.7752 7.57903C16.7462 7.55021 16.7117 7.52738 16.6737 7.51185C16.6357 7.49632 16.595 7.4884 16.5539 7.48854H13.0383C12.9972 7.48814 12.9563 7.49588 12.9182 7.51132C12.8801 7.52676 12.8455 7.54958 12.8164 7.57845C12.7873 7.60731 12.7643 7.64165 12.7488 7.67945C12.7332 7.71724 12.7254 7.75774 12.7258 7.79856C12.7253 7.94804 12.6652 8.09124 12.5586 8.19694C12.4521 8.30263 12.3077 8.36225 12.1571 8.3628C12.1159 8.36239 12.0751 8.37014 12.037 8.38557C11.9989 8.40101 11.9643 8.42383 11.9352 8.4527C11.9061 8.48157 11.8831 8.51591 11.8675 8.5537C11.852 8.5915 11.8441 8.63199 11.8446 8.67282V9.33316C11.6971 11.1066 12.9498 12.9503 14.704 13.3386C15.3741 13.3175 16.1025 12.8493 16.6383 12.3435C17.0159 11.9442 17.3085 11.4734 17.4986 10.9594C17.6887 10.4454 17.7723 9.8986 17.7446 9.35176ZM15.5758 10.2694L14.8289 11.0104C14.7698 11.0682 14.6901 11.1005 14.6071 11.1003C14.4179 11.1253 14.1408 10.7392 14.0133 10.6383C13.9567 10.5796 13.9256 10.5012 13.9267 10.4199C13.9278 10.3387 13.961 10.2611 14.0191 10.2038C14.0772 10.1466 14.1556 10.1142 14.2375 10.1138C14.3194 10.1133 14.3983 10.1447 14.4571 10.2012L14.6071 10.3531L15.1321 9.83229C15.1909 9.77586 15.2697 9.74456 15.3515 9.74511C15.4334 9.74565 15.5117 9.778 15.5698 9.8352C15.6279 9.89241 15.661 9.96991 15.6621 10.0511C15.6633 10.1323 15.6323 10.2107 15.5758 10.2694H15.5758Z" fill="#008541"/>
<path d="M11.2195 8.67282C11.2198 8.43573 11.311 8.20764 11.4747 8.03489C11.6384 7.86214 11.8622 7.75769 12.1007 7.74276C12.1158 7.50614 12.2211 7.28409 12.3952 7.1217C12.5693 6.95932 12.7992 6.86879 13.0382 6.8685H15.1507V4.87817H0.250732V9.54707C0.251413 9.95798 0.416252 10.3519 0.70913 10.6424C1.00201 10.933 1.39904 11.0965 1.81323 11.0972H11.4726C11.1565 10.2238 11.2209 9.39531 11.2195 8.67282ZM3.88823 9.78889H2.54448C2.28631 9.78889 2.03871 9.68714 1.85616 9.50604C1.6736 9.32493 1.57104 9.0793 1.57104 8.82318C1.57104 8.56705 1.6736 8.32142 1.85616 8.14032C2.03871 7.95921 2.28631 7.85746 2.54448 7.85746H3.88823C4.14486 7.85979 4.39019 7.96256 4.57083 8.14341C4.75147 8.32426 4.85282 8.56857 4.85282 8.82317C4.85283 9.07778 4.75148 9.32208 4.57084 9.50294C4.3902 9.68379 4.14488 9.78656 3.88824 9.78889H3.88823Z" fill="#008541"/>
<path d="M3.88828 8.47754H2.54453C2.45326 8.47926 2.36631 8.51643 2.30238 8.58107C2.23845 8.64571 2.20263 8.73266 2.20264 8.82322C2.20264 8.91378 2.23846 9.00072 2.30239 9.06536C2.36633 9.13 2.45328 9.16717 2.54454 9.16888H3.88828C3.98069 9.16888 4.06931 9.13247 4.13466 9.06764C4.2 9.00281 4.23671 8.91489 4.23671 8.82321C4.23672 8.73153 4.20001 8.64361 4.13466 8.57879C4.06932 8.51396 3.98069 8.47754 3.88828 8.47754Z" fill="#008541"/>
</svg>
