<svg width="20" height="18" viewBox="0 0 20 18" fill="none" xmlns="http://www.w3.org/2000/svg">
<path d="M20 14.4546C20 14.6957 19.9042 14.9269 19.7337 15.0974C19.5632 15.2679 19.332 15.3637 19.0909 15.3637H18.1818V16.2728C18.1818 16.5139 18.086 16.7451 17.9155 16.9156C17.7451 17.0861 17.5138 17.1819 17.2727 17.1819C17.0316 17.1819 16.8004 17.0861 16.6299 16.9156C16.4594 16.7451 16.3636 16.5139 16.3636 16.2728V15.3637H15.4545C15.2134 15.3637 14.9822 15.2679 14.8117 15.0974C14.6412 14.9269 14.5454 14.6957 14.5454 14.4546C14.5454 14.2135 14.6412 13.9823 14.8117 13.8118C14.9822 13.6413 15.2134 13.5455 15.4545 13.5455H16.3636V12.6364C16.3636 12.3953 16.4594 12.1641 16.6299 11.9936C16.8004 11.8231 17.0316 11.7273 17.2727 11.7273C17.5138 11.7273 17.7451 11.8231 17.9155 11.9936C18.086 12.1641 18.1818 12.3953 18.1818 12.6364V13.5455H19.0909C19.332 13.5455 19.5632 13.6413 19.7337 13.8118C19.9042 13.9823 20 14.2135 20 14.4546ZM15.4545 0.818237H4.54544C3.94852 0.818237 3.35745 0.935809 2.80597 1.16424C2.25449 1.39267 1.7534 1.72749 1.33132 2.14957C0.47888 3.00201 -1.52588e-05 4.15816 -1.52588e-05 5.36369V6.27279H20V5.36369C20 4.76678 19.8824 4.1757 19.654 3.62422C19.4256 3.07274 19.0907 2.57166 18.6687 2.14957C18.2466 1.72749 17.7455 1.39267 17.194 1.16424C16.6425 0.935809 16.0515 0.818237 15.4545 0.818237ZM-1.52588e-05 8.09097H20V9.90915C20 10.1503 19.9042 10.3815 19.7337 10.552C19.5632 10.7225 19.332 10.8182 19.0909 10.8182H15C14.5178 10.8182 14.0553 11.0098 13.7143 11.3508C13.3734 11.6918 13.1818 12.1542 13.1818 12.6364V16.2728C13.1818 16.5139 13.086 16.7451 12.9155 16.9156C12.7451 17.0861 12.5138 17.1819 12.2727 17.1819H4.54544C3.94852 17.1819 3.35745 17.0643 2.80597 16.8359C2.25449 16.6074 1.7534 16.2726 1.33132 15.8505C0.47888 14.9981 -1.52588e-05 13.842 -1.52588e-05 12.6364V8.09097ZM2.72726 12.6364C2.72726 12.8775 2.82304 13.1088 2.99353 13.2792C3.16401 13.4497 3.39524 13.5455 3.63635 13.5455H7.27272C7.51382 13.5455 7.74505 13.4497 7.91554 13.2792C8.08603 13.1088 8.18181 12.8775 8.18181 12.6364C8.18181 12.3953 8.08603 12.1641 7.91554 11.9936C7.74505 11.8231 7.51382 11.7273 7.27272 11.7273H3.63635C3.39524 11.7273 3.16401 11.8231 2.99353 11.9936C2.82304 12.1641 2.72726 12.3953 2.72726 12.6364Z" fill="#008541"/>
</svg>
