<svg width="18" height="19" viewBox="0 0 18 19" fill="none" xmlns="http://www.w3.org/2000/svg">
<path d="M10.4797 10.7456L13.4413 9.22703C13.6951 9.09727 13.9798 9.02861 14.2645 9.02097V2.96939C14.2645 1.72549 13.2413 0.702881 11.9797 0.702881H5.20292C4.6029 0.702881 4.01057 0.947087 3.58746 1.3668L0.841252 4.09116C0.410626 4.51851 0.172119 5.09085 0.172119 5.69375V14.7902C0.172119 16.0341 1.19507 17.0567 2.45671 17.0567H10.9721C10.1385 15.74 9.65945 14.0754 9.472 12.6687C9.36439 11.8903 9.7644 11.1119 10.4797 10.7456ZM5.61063 3.75538H8.83366C9.25678 3.75538 9.6029 4.0988 9.6029 4.51851C9.6029 4.93827 9.25678 5.28164 8.83366 5.28164H5.61063C5.18752 5.28164 4.8414 4.93827 4.8414 4.51851C4.8414 4.0988 5.18752 3.75538 5.61063 3.75538ZM6.03356 12.0735H4.01827C3.59516 12.0735 3.24904 11.7301 3.24904 11.3103C3.24904 10.883 3.59516 10.5472 4.01827 10.5472H6.03356C6.45668 10.5472 6.80279 10.883 6.80279 11.3103C6.80279 11.7301 6.45668 12.0735 6.03356 12.0735ZM4.01827 8.67756C3.59516 8.67756 3.24904 8.33414 3.24904 7.91443C3.24904 7.49472 3.59516 7.1513 4.01827 7.1513H10.4258C10.849 7.1513 11.1951 7.49472 11.1951 7.91443C11.1951 8.33414 10.849 8.67756 10.4258 8.67756H4.01827Z" fill="#008541"/>
<path d="M17.826 12.4703C17.8414 12.3177 17.7644 12.1727 17.6259 12.104L14.472 10.5778C14.4029 10.5472 14.3336 10.5396 14.2645 10.5549C14.226 10.5549 14.1875 10.5625 14.149 10.5854L11.1876 12.104C11.049 12.1727 10.9722 12.3101 10.9953 12.4627C11.3191 14.6713 12.2085 17.1105 14.2568 18.0564C14.349 18.1022 14.4643 18.1022 14.5644 18.0564C16.6086 17.1285 17.5008 14.6799 17.826 12.4703Z" fill="#008541"/>
</svg>
