<svg width="18" height="18" viewBox="0 0 18 18" fill="none" xmlns="http://www.w3.org/2000/svg">
<path d="M7.33342 5.87496C7.2098 5.87496 7.08896 5.91162 6.98618 5.98029C6.8834 6.04897 6.8033 6.14658 6.75599 6.26078C6.70869 6.37499 6.69631 6.50065 6.72042 6.62189C6.74454 6.74313 6.80407 6.85449 6.89147 6.9419C6.97888 7.02931 7.09025 7.08883 7.21148 7.11295C7.33272 7.13707 7.45839 7.12469 7.57259 7.07738C7.6868 7.03008 7.78441 6.94997 7.85308 6.84719C7.92176 6.74441 7.95842 6.62357 7.95842 6.49996C7.95732 6.33454 7.89112 6.1762 7.77415 6.05922C7.65718 5.94225 7.49884 5.87605 7.33342 5.87496ZM7.33342 5.87496C7.2098 5.87496 7.08896 5.91162 6.98618 5.98029C6.8834 6.04897 6.8033 6.14658 6.75599 6.26078C6.70869 6.37499 6.69631 6.50065 6.72042 6.62189C6.74454 6.74313 6.80407 6.85449 6.89147 6.9419C6.97888 7.02931 7.09025 7.08883 7.21148 7.11295C7.33272 7.13707 7.45839 7.12469 7.57259 7.07738C7.6868 7.03008 7.78441 6.94997 7.85308 6.84719C7.92176 6.74441 7.95842 6.62357 7.95842 6.49996C7.95732 6.33454 7.89112 6.1762 7.77415 6.05922C7.65718 5.94225 7.49884 5.87605 7.33342 5.87496ZM16.8251 6.93329C16.5532 6.67265 16.3227 6.37195 16.1417 6.04163C16.0263 5.66385 15.9728 5.26985 15.9834 4.87496C16.0515 4.08337 15.8194 3.29513 15.3334 2.66663C14.7053 2.17978 13.9168 1.94768 13.1251 2.01663C12.7302 2.02723 12.3362 1.97376 11.9584 1.85829C11.6281 1.6773 11.3274 1.44686 11.0667 1.17496C10.5524 0.5417 9.81058 0.134909 9.00008 0.041626C8.18959 0.134909 7.44779 0.5417 6.93342 1.17496C6.67277 1.44686 6.37207 1.6773 6.04175 1.85829C5.66397 1.97376 5.26997 2.02723 4.87508 2.01663C4.0834 1.94768 3.29484 2.17978 2.66675 2.66663C2.18072 3.29513 1.94871 4.08337 2.01675 4.87496C2.02556 5.26917 1.97499 5.66246 1.86675 6.04163C1.67964 6.37014 1.44675 6.67037 1.17508 6.93329C0.541822 7.44767 0.135031 8.18947 0.041748 8.99996C0.135031 9.81045 0.541822 10.5522 1.17508 11.0666C1.44698 11.3273 1.67743 11.628 1.85841 11.9583C1.97388 12.3361 2.02735 12.7301 2.01675 13.125C1.94871 13.9165 2.18072 14.7048 2.66675 15.3333C3.29484 15.8201 4.0834 16.0522 4.87508 15.9833C5.26997 15.9727 5.66397 16.0262 6.04175 16.1416C6.37207 16.3226 6.67277 16.5531 6.93342 16.825C7.44779 17.4582 8.18959 17.865 9.00008 17.9583C9.81058 17.865 10.5524 17.4582 11.0667 16.825C11.3274 16.5531 11.6281 16.3226 11.9584 16.1416C12.3362 16.0262 12.7302 15.9727 13.1251 15.9833C13.9168 16.0522 14.7053 15.8201 15.3334 15.3333C15.8194 14.7048 16.0515 13.9165 15.9834 13.125C15.9746 12.7307 16.0252 12.3375 16.1334 11.9583C16.3205 11.6298 16.5534 11.3295 16.8251 11.0666C17.4583 10.5522 17.8651 9.81045 17.9584 8.99996C17.8651 8.18947 17.4583 7.44767 16.8251 6.93329ZM7.33342 4.62496C7.70426 4.62496 8.06677 4.73493 8.37511 4.94095C8.68345 5.14698 8.92377 5.43982 9.06569 5.78243C9.2076 6.12504 9.24473 6.50204 9.17239 6.86575C9.10004 7.22947 8.92146 7.56356 8.65924 7.82578C8.39702 8.08801 8.06292 8.26659 7.69921 8.33893C7.33549 8.41128 6.9585 8.37415 6.61588 8.23223C6.27327 8.09032 5.98044 7.85 5.77441 7.54165C5.56838 7.23331 5.45842 6.8708 5.45842 6.49996C5.45908 6.00288 5.65683 5.52635 6.00832 5.17486C6.35981 4.82338 6.83634 4.62562 7.33342 4.62496ZM6.50008 12.125C6.41798 12.1253 6.33664 12.1092 6.26081 12.0777C6.18498 12.0462 6.11618 12 6.05842 11.9416C5.94218 11.824 5.877 11.6653 5.877 11.5C5.877 11.3346 5.94218 11.1759 6.05842 11.0583L11.0584 6.05829C11.1769 5.94789 11.3336 5.88779 11.4955 5.89065C11.6574 5.8935 11.8119 5.9591 11.9264 6.07361C12.0409 6.18812 12.1065 6.34261 12.1094 6.50452C12.1123 6.66644 12.0521 6.82315 11.9417 6.94163L6.94175 11.9416C6.88399 12 6.81519 12.0462 6.73936 12.0777C6.66353 12.1092 6.58219 12.1253 6.50008 12.125ZM10.6667 13.375C10.2959 13.375 9.9334 13.265 9.62505 13.059C9.31671 12.8529 9.07639 12.5601 8.93447 12.2175C8.79256 11.8749 8.75543 11.4979 8.82778 11.1342C8.90012 10.7705 9.0787 10.4364 9.34092 10.1741C9.60315 9.91191 9.93724 9.73333 10.301 9.66099C10.6647 9.58864 11.0417 9.62577 11.3843 9.76769C11.7269 9.9096 12.0197 10.1499 12.2258 10.4583C12.4318 10.7666 12.5417 11.1291 12.5417 11.5C12.5411 11.997 12.3433 12.4736 11.9918 12.8251C11.6404 13.1765 11.1638 13.3743 10.6667 13.375ZM10.6667 10.875C10.5431 10.875 10.4223 10.9116 10.3195 10.9803C10.2167 11.049 10.1366 11.1466 10.0893 11.2608C10.042 11.375 10.0296 11.5007 10.0538 11.6219C10.0779 11.7431 10.1374 11.8545 10.2248 11.9419C10.3122 12.0293 10.4236 12.0888 10.5448 12.113C10.6661 12.1371 10.7917 12.1247 10.9059 12.0774C11.0201 12.0301 11.1177 11.95 11.1864 11.8472C11.2551 11.7444 11.2917 11.6236 11.2917 11.5C11.2907 11.3345 11.2245 11.1762 11.1075 11.0592C10.9905 10.9423 10.8322 10.8761 10.6667 10.875ZM7.33342 7.12496C7.45703 7.12496 7.57787 7.0883 7.68065 7.01963C7.78343 6.95095 7.86353 6.85334 7.91084 6.73914C7.95814 6.62493 7.97052 6.49927 7.94641 6.37803C7.92229 6.25679 7.86276 6.14543 7.77536 6.05802C7.68795 5.97061 7.57658 5.91108 7.45535 5.88697C7.33411 5.86285 7.20844 5.87523 7.09424 5.92254C6.98003 5.96984 6.88242 6.04995 6.81375 6.15273C6.74507 6.25551 6.70842 6.37635 6.70842 6.49996C6.70951 6.66538 6.77571 6.82372 6.89268 6.94069C7.00965 7.05767 7.16799 7.12387 7.33342 7.12496Z" fill="#008541"/>
</svg>
