<svg width="20" height="18" viewBox="0 0 20 18" fill="none" xmlns="http://www.w3.org/2000/svg">
<path d="M19.1816 1.27539V6.04297H0.818359V1.27539C0.818359 1.18163 0.855605 1.09171 0.921902 1.02542C0.988199 0.95912 1.07812 0.921875 1.17188 0.921875H18.8281C18.9219 0.921875 19.0118 0.95912 19.0781 1.02542C19.1444 1.09171 19.1816 1.18163 19.1816 1.27539ZM1.17188 10.8535H18.8281C18.9219 10.8535 19.0118 10.8908 19.0781 10.9571C19.1444 11.0234 19.1816 11.1133 19.1816 11.207C19.1816 11.3008 19.1444 11.3907 19.0781 11.457C19.0118 11.5233 18.9219 11.5605 18.8281 11.5605H1.17188C1.07812 11.5605 0.988199 11.5233 0.921902 11.457C0.855605 11.3907 0.818359 11.3008 0.818359 11.207C0.818359 11.1133 0.855605 11.0234 0.921902 10.9571C0.988199 10.8908 1.07812 10.8535 1.17188 10.8535ZM1.17188 16.3711H18.8281C18.9219 16.3711 19.0118 16.4083 19.0781 16.4746C19.1444 16.5409 19.1816 16.6308 19.1816 16.7246C19.1816 16.8184 19.1444 16.9083 19.0781 16.9746C19.0118 17.0409 18.9219 17.0781 18.8281 17.0781H1.17188C1.07812 17.0781 0.988198 17.0409 0.921902 16.9746C0.855605 16.9083 0.818359 16.8184 0.818359 16.7246C0.818359 16.6308 0.855605 16.5409 0.921902 16.4746C0.988198 16.4083 1.07812 16.3711 1.17188 16.3711Z" stroke="#888E9D" stroke-width="1.5"/>
</svg>
