<svg width="20" height="20" viewBox="0 0 20 20" fill="none" xmlns="http://www.w3.org/2000/svg">
<path d="M19.9316 2.27539V7.79297H0.0683594V2.27539C0.0683594 1.98272 0.184622 1.70204 0.391572 1.49509C0.598521 1.28814 0.879204 1.17187 1.17188 1.17188H18.8281C19.1208 1.17188 19.4015 1.28814 19.6084 1.49509C19.8154 1.70204 19.9316 1.98272 19.9316 2.27539ZM18.8281 11.1035H1.17188C0.879204 11.1035 0.598521 11.2198 0.391572 11.4267C0.184622 11.6337 0.0683594 11.9144 0.0683594 12.207C0.0683594 12.4997 0.184622 12.7804 0.391572 12.9873C0.598521 13.1943 0.879204 13.3105 1.17188 13.3105H18.8281C19.1208 13.3105 19.4015 13.1943 19.6084 12.9873C19.8154 12.7804 19.9316 12.4997 19.9316 12.207C19.9316 11.9144 19.8154 11.6337 19.6084 11.4267C19.4015 11.2198 19.1208 11.1035 18.8281 11.1035ZM18.8281 16.6211H1.17188C0.879204 16.6211 0.598521 16.7374 0.391572 16.9443C0.184622 17.1513 0.0683594 17.4319 0.0683594 17.7246C0.0683594 18.0173 0.184622 18.298 0.391572 18.5049C0.598521 18.7119 0.879204 18.8281 1.17188 18.8281H18.8281C19.1208 18.8281 19.4015 18.7119 19.6084 18.5049C19.8154 18.298 19.9316 18.0173 19.9316 17.7246C19.9316 17.4319 19.8154 17.1513 19.6084 16.9443C19.4015 16.7374 19.1208 16.6211 18.8281 16.6211Z" fill="#008541"/>
</svg>
