<svg width="15" height="15" viewBox="0 0 15 15" fill="none" xmlns="http://www.w3.org/2000/svg">
<path d="M6.75 0H3C1.34325 0 0 1.34325 0 3V12C0 13.6567 1.34325 15 3 15H12C13.6567 15 15 13.6567 15 12C15 10.2968 15 8.25 15 8.25C15 7.836 14.664 7.5 14.25 7.5C13.836 7.5 13.5 7.836 13.5 8.25V12C13.5 12.828 12.828 13.5 12 13.5C9.5025 13.5 5.49675 13.5 3 13.5C2.17125 13.5 1.5 12.828 1.5 12C1.5 9.5025 1.5 5.49675 1.5 3C1.5 2.17125 2.17125 1.5 3 1.5H6.75C7.164 1.5 7.5 1.164 7.5 0.75C7.5 0.336 7.164 0 6.75 0ZM12.4395 1.5H9.75C9.336 1.5 9 1.164 9 0.75C9 0.336 9.336 0 9.75 0H14.25C14.664 0 15 0.336 15 0.75V5.25C15 5.664 14.664 6 14.25 6C13.836 6 13.5 5.664 13.5 5.25V2.5605L8.03025 8.03025C7.73775 8.32275 7.26225 8.32275 6.96975 8.03025C6.6765 7.73775 6.6765 7.26225 6.96975 6.96975L12.4395 1.5Z" fill="black"/>
</svg>
