<svg width="106" height="106" viewBox="0 0 106 106" fill="none" xmlns="http://www.w3.org/2000/svg">
<path d="M100.363 61.7789L100.332 61.7943C96.6988 64.5807 95.1594 69.3223 96.4527 73.7101L96.468 73.741C98.5309 80.715 93.4199 87.7504 86.1531 87.9353H86.1224C81.5346 88.0584 77.501 90.9834 75.9769 95.3095V95.3248C73.5443 102.191 65.262 104.885 59.2732 100.744C55.5545 98.2044 50.6385 98.0719 46.7261 100.744H46.7107C40.7221 104.87 32.4394 102.191 30.0224 95.3093C29.2763 93.1978 27.907 91.3624 26.0956 90.0457C24.2841 88.729 22.1157 87.993 19.877 87.9351H19.8461C12.5798 87.7502 7.46837 80.7148 9.53144 73.7408L9.54676 73.7099C10.8397 69.3221 9.30018 64.5805 5.6672 61.794L5.63635 61.7787C-0.136922 57.3447 -0.136922 48.6621 5.63635 44.2283L5.6672 44.213C9.30018 41.4265 10.8397 36.6847 9.53144 32.2971V32.2662C7.45284 25.2924 12.5796 18.2566 19.8461 18.0719H19.877C24.4493 17.9488 28.4982 15.0236 30.0224 10.6977V10.6824C32.4392 3.81618 40.7221 1.12209 46.7107 5.26354H46.7261C50.4977 7.8653 55.4858 7.8653 59.2732 5.26354C65.3222 1.08627 73.5585 3.85738 75.9769 10.6824V10.6977C77.501 15.0083 81.5344 17.949 86.1224 18.0719H86.1531C93.4197 18.2566 98.5309 25.2924 96.468 32.2662L96.4527 32.2971C95.1594 36.6847 96.6988 41.4265 100.332 44.213L100.363 44.2283C106.136 48.6621 106.136 57.3449 100.363 61.7789Z" fill="#008541"/>
<path d="M52.9999 81.6773C68.8379 81.6773 81.6772 68.838 81.6772 53C81.6772 37.1619 68.8379 24.3226 52.9999 24.3226C37.1618 24.3226 24.3225 37.1619 24.3225 53C24.3225 68.838 37.1618 81.6773 52.9999 81.6773Z" fill="#55AE80"/>
<path opacity="0.1" d="M75.0186 34.6432C70.0584 30.5626 63.7122 28.1099 56.7941 28.1099C40.9562 28.1099 28.1099 40.9562 28.1099 56.7941C28.1099 63.7122 30.5626 70.0584 34.643 75.0186C28.3408 69.7615 24.3264 61.8535 24.3264 52.9996C24.3264 37.1615 37.1617 24.3264 52.9996 24.3264C61.8535 24.3264 69.7615 28.3408 75.0186 34.6432Z" fill="black"/>
<path d="M46.1772 64.2265L39.8357 57.4797C38.1749 55.7125 38.2606 52.934 40.0272 51.2732C41.7938 49.6103 44.5736 49.6995 46.2329 51.4655L49.2601 54.6848L62.1278 39.9777C63.7227 38.1526 66.4969 37.9675 68.3236 39.5647C70.1488 41.162 70.333 43.9354 68.7366 45.7605L52.6803 64.1108C50.9698 66.0637 47.9511 66.1148 46.1772 64.2265Z" fill="white"/>
</svg>
