<svg width="20" height="21" viewBox="0 0 20 21" fill="none" xmlns="http://www.w3.org/2000/svg">
<path d="M10.9438 16.6853C10.9438 15.3406 11.4715 14.0761 12.4301 13.1251C13.3887 12.1741 14.6629 11.6506 16.0187 11.6506C17.1316 11.6506 18.1898 12.004 19.0637 12.6566C19.1121 11.9544 19.1422 11.1689 19.1434 10.2896C19.141 8.078 18.9539 6.45854 18.7543 5.26845C18.4051 3.30757 16.6098 1.52651 14.6332 1.18006C13.4336 0.981651 11.8012 0.796026 9.57148 0.793701C7.34219 0.796026 5.70937 0.981651 4.50977 1.17968C2.53359 1.52612 0.738281 3.30719 0.389062 5.26806C0.189453 6.45815 0.00273437 8.07762 0 10.2892C0.00273437 12.5008 0.189453 14.1207 0.389062 15.3108C0.738281 17.2716 2.53359 19.0527 4.51016 19.3992C5.70977 19.5972 7.34219 19.7824 9.57187 19.7851C10.4582 19.784 11.25 19.7541 11.9578 19.7061C11.3 18.8392 10.9438 17.7898 10.9438 16.6853ZM4.84219 5.38277H14.3012C14.9129 5.38277 15.409 5.87493 15.409 6.48179C15.409 7.08865 14.9129 7.58081 14.3012 7.58081H4.84219C4.23047 7.58081 3.73438 7.08865 3.73438 6.48179C3.73438 5.87493 4.23047 5.38277 4.84219 5.38277ZM4.84219 12.1703C4.23047 12.1703 3.73438 11.6781 3.73438 11.0712C3.73438 10.4644 4.23047 9.97223 4.84219 9.97223H10.3949C11.0066 9.97223 11.5027 10.4644 11.5027 11.0712C11.5027 11.6781 11.0066 12.1703 10.3949 12.1703H4.84219Z" fill="#008541"/>
<path d="M16.0188 12.7357C13.82 12.7357 12.0376 14.504 12.0376 16.6854C12.0376 18.8667 13.82 20.635 16.0188 20.635C18.2177 20.635 20.0001 18.8667 20.0001 16.6854C20.0001 14.504 18.2177 12.7357 16.0188 12.7357ZM16.761 18.6451C16.761 19.0516 16.4286 19.3814 16.0188 19.3814C15.6091 19.3814 15.2767 19.0516 15.2767 18.6451V16.7024C15.2767 16.2959 15.6091 15.9661 16.0188 15.9661C16.4286 15.9661 16.761 16.2959 16.761 16.7024V18.6451ZM16.7306 15.1264C16.7032 15.2798 16.5626 15.4193 16.4079 15.4465C16.3142 15.462 16.186 15.4763 16.0114 15.4767C15.8368 15.4767 15.7091 15.462 15.6149 15.4465C15.4603 15.4193 15.3196 15.2798 15.2923 15.1264C15.2767 15.0334 15.2622 14.9062 15.2618 14.733C15.2618 14.5598 15.2767 14.4331 15.2923 14.3397C15.3196 14.1862 15.4603 14.0467 15.6149 14.0196C15.7087 14.0041 15.8368 13.9897 16.0114 13.9894C16.186 13.9894 16.3138 14.0041 16.4079 14.0196C16.5626 14.0467 16.7032 14.1862 16.7306 14.3397C16.7462 14.4327 16.7606 14.5598 16.761 14.733C16.761 14.9062 16.7462 15.033 16.7306 15.1264Z" fill="#008541"/>
</svg>
