<svg width="20" height="12" viewBox="0 0 20 12" fill="none" xmlns="http://www.w3.org/2000/svg">
<path d="M0.616477 2.14062V0.818182H8.49645V2.14062H5.3196V11H3.78835V2.14062H0.616477ZM11.4856 8.4098L11.4757 6.59517H11.7342L14.7768 3.36364H16.5566L13.0865 7.04261H12.8528L11.4856 8.4098ZM10.1184 11V0.818182H11.6049V11H10.1184ZM14.9409 11L12.2065 7.37074L13.2306 6.33168L16.7654 11H14.9409ZM18.8908 11.0945C18.619 11.0945 18.3854 10.9983 18.1898 10.8061C17.9943 10.6106 17.8965 10.3752 17.8965 10.1001C17.8965 9.82836 17.9943 9.59635 18.1898 9.40412C18.3854 9.20857 18.619 9.1108 18.8908 9.1108C19.1626 9.1108 19.3962 9.20857 19.5918 9.40412C19.7873 9.59635 19.8851 9.82836 19.8851 10.1001C19.8851 10.2824 19.8387 10.4498 19.7459 10.6023C19.6564 10.7514 19.5371 10.8707 19.388 10.9602C19.2388 11.0497 19.0731 11.0945 18.8908 11.0945Z" fill="#008541"/>
</svg>
