<svg width="23" height="23" viewBox="0 0 23 23" fill="none" xmlns="http://www.w3.org/2000/svg">
<path d="M11.5 22.4375C17.5312 22.4375 22.4375 17.5312 22.4375 11.5C22.4375 5.46875 17.5312 0.5625 11.5 0.5625C5.46875 0.5625 0.5625 5.46875 0.5625 11.5C0.5625 17.5312 5.46875 22.4375 11.5 22.4375ZM11.5 2.125C16.6719 2.125 20.875 6.32812 20.875 11.5C20.875 16.6719 16.6719 20.875 11.5 20.875C6.32812 20.875 2.125 16.6719 2.125 11.5C2.125 6.32812 6.32812 2.125 11.5 2.125Z" fill="#008541"/>
<path d="M6.8124 10.7188H16.1874C16.6192 10.7188 16.9686 10.3689 16.9686 9.93752C16.9686 9.50612 16.6192 9.15627 16.1874 9.15627H8.27232L9.02498 8.02713C9.2642 7.66815 9.16724 7.18291 8.80834 6.94377C8.44865 6.70385 7.96373 6.80112 7.72498 7.16041L6.16248 9.50416C6.00263 9.74369 5.98779 10.052 6.12357 10.306C6.25967 10.5601 6.52435 10.7188 6.8124 10.7188Z" fill="#008541"/>
<path d="M6.8125 13.8438H14.728L13.9749 14.9729C13.7354 15.3319 13.8323 15.8171 14.1916 16.0563C14.3252 16.1452 14.4755 16.1875 14.6242 16.1875C14.8767 16.1875 15.1247 16.0654 15.275 15.8396L16.8375 13.4959C16.997 13.2563 17.0122 12.948 16.8764 12.694C16.7406 12.4399 16.4759 12.2812 16.1875 12.2812H6.8125C6.38109 12.2812 6.03125 12.6311 6.03125 13.0625C6.03125 13.4939 6.38109 13.8438 6.8125 13.8438Z" fill="#008541"/>
</svg>
