<svg width="18" height="18" viewBox="0 0 18 18" fill="none" xmlns="http://www.w3.org/2000/svg">
<path d="M9.9375 11.8125V12.75C9.9375 13.9932 9.44364 15.1855 8.56456 16.0646C7.68549 16.9436 6.4932 17.4375 5.25 17.4375C4.0068 17.4375 2.81451 16.9436 1.93544 16.0646C1.05636 15.1855 0.5625 13.9932 0.5625 12.75V11.8125H2.75C2.99266 11.813 3.23206 11.7567 3.4491 11.6482C3.66614 11.5397 3.8548 11.3819 4 11.1875C4.1452 11.3819 4.33386 11.5397 4.5509 11.6482C4.76794 11.7567 5.00734 11.813 5.25 11.8125H9.9375ZM2.75 11.1875C2.99864 11.1875 3.2371 11.0887 3.41291 10.9129C3.58873 10.7371 3.6875 10.4986 3.6875 10.25C3.6875 10.1671 3.72042 10.0876 3.77903 10.029C3.83763 9.97042 3.91712 9.9375 4 9.9375C4.08288 9.9375 4.16237 9.97042 4.22097 10.029C4.27958 10.0876 4.3125 10.1671 4.3125 10.25C4.3125 10.4986 4.41127 10.7371 4.58709 10.9129C4.7629 11.0887 5.00136 11.1875 5.25 11.1875H9.91875C9.8324 10.0083 9.30303 8.90544 8.43698 8.10049C7.57093 7.29554 6.43236 6.84812 5.25 6.84812C4.06763 6.84812 2.92907 7.29554 2.06302 8.10049C1.19697 8.90544 0.667598 10.0083 0.58125 11.1875H2.75ZM17.4375 2.125V7.75C17.4375 8.1644 17.2729 8.56183 16.9799 8.85485C16.6868 9.14788 16.2894 9.3125 15.875 9.3125H15.5688L14.5813 11.0312C14.5549 11.0795 14.516 11.1198 14.4687 11.1478C14.4214 11.1759 14.3675 11.1907 14.3125 11.1907C14.2575 11.1907 14.2036 11.1759 14.1563 11.1478C14.109 11.1198 14.0701 11.0795 14.0437 11.0312L13.0562 9.3125H10.0875C9.66565 8.38264 8.98534 7.59367 8.12766 7.03961C7.26998 6.48555 6.27108 6.18976 5.25 6.1875C4.93549 6.18815 4.6217 6.21744 4.3125 6.275V2.125C4.3125 1.7106 4.47712 1.31317 4.77015 1.02015C5.06317 0.72712 5.4606 0.5625 5.875 0.5625H15.875C16.2894 0.5625 16.6868 0.72712 16.9799 1.02015C17.2729 1.31317 17.4375 1.7106 17.4375 2.125ZM16.1875 6.1875C16.1875 6.10462 16.1546 6.02513 16.096 5.96653C16.0374 5.90792 15.9579 5.875 15.875 5.875H10.25C10.1671 5.875 10.0876 5.90792 10.029 5.96653C9.97042 6.02513 9.9375 6.10462 9.9375 6.1875C9.9375 6.27038 9.97042 6.34987 10.029 6.40847C10.0876 6.46708 10.1671 6.5 10.25 6.5H15.875C15.9579 6.5 16.0374 6.46708 16.096 6.40847C16.1546 6.34987 16.1875 6.27038 16.1875 6.1875ZM16.1875 3.6875C16.1875 3.60462 16.1546 3.52513 16.096 3.46653C16.0374 3.40792 15.9579 3.375 15.875 3.375H5.875C5.79212 3.375 5.71263 3.40792 5.65403 3.46653C5.59542 3.52513 5.5625 3.60462 5.5625 3.6875C5.5625 3.77038 5.59542 3.84987 5.65403 3.90847C5.71263 3.96708 5.79212 4 5.875 4H15.875C15.9579 4 16.0374 3.96708 16.096 3.90847C16.1546 3.84987 16.1875 3.77038 16.1875 3.6875Z" fill="#008541"/>
</svg>
