<svg width="16" height="16" viewBox="0 0 16 16" fill="none" xmlns="http://www.w3.org/2000/svg">
<g clip-path="url(#clip0_146_196)">
<path d="M13.2978 6.31379C12.6045 3.55204 9.8037 1.87521 7.04195 2.56848C4.88371 3.11026 3.31658 4.9756 3.15512 7.19491C1.62268 7.44763 0.585242 8.89477 0.837959 10.4272C1.06261 11.7896 2.24309 12.7873 3.62382 12.7818H5.96731V11.8444H3.62382C2.5884 11.8444 1.74902 11.005 1.74902 9.96961C1.74902 8.9342 2.5884 8.09481 3.62382 8.09481C3.88268 8.09481 4.09251 7.88498 4.09251 7.62612C4.09017 5.29642 5.97689 3.40592 8.30658 3.40361C10.3233 3.40159 12.0593 4.82731 12.4494 6.80589C12.4879 7.00345 12.6483 7.15437 12.8478 7.18085C14.1292 7.36332 15.02 8.54998 14.8375 9.83131C14.6737 10.9819 13.6913 11.8386 12.5291 11.8444H10.6543V12.7818H12.5291C14.3411 12.7763 15.8055 11.303 15.8 9.49098C15.7955 7.98265 14.763 6.67173 13.2978 6.31379Z" fill="#008541"/>
<path d="M7.97807 8.23079L6.10327 10.1056L6.76414 10.7664L7.84214 9.69313V14.1879H8.77954V9.69313L9.85286 10.7664L10.5137 10.1056L8.63893 8.23079C8.45611 8.04905 8.16089 8.04905 7.97807 8.23079Z" fill="#008541"/>
</g>
<defs>
<clipPath id="clip0_146_196">
<rect width="15" height="15" fill="white" transform="translate(0.800049 0.800049)"/>
</clipPath>
</defs>
</svg>
