<svg width="29" height="9" viewBox="0 0 29 9" fill="none" xmlns="http://www.w3.org/2000/svg">
<path d="M0.261719 -2.38419e-07H1.63281L3.72266 3.63672H3.80859L5.89844 -2.38419e-07H7.26953L4.36719 4.85937V8H3.16406V4.85937L0.261719 -2.38419e-07ZM9.91309 8.12109C9.32194 8.12109 8.81283 7.99479 8.38574 7.74219C7.96126 7.48698 7.63314 7.12891 7.40137 6.66797C7.1722 6.20443 7.05762 5.66146 7.05762 5.03906C7.05762 4.42448 7.1722 3.88281 7.40137 3.41406C7.63314 2.94531 7.95605 2.57943 8.37012 2.31641C8.78678 2.05339 9.27376 1.92188 9.83105 1.92188C10.1696 1.92188 10.4977 1.97786 10.8154 2.08984C11.1331 2.20182 11.4183 2.3776 11.6709 2.61719C11.9235 2.85677 12.1227 3.16797 12.2686 3.55078C12.4144 3.93099 12.4873 4.39323 12.4873 4.9375V5.35156H7.71777V4.47656H11.3428C11.3428 4.16927 11.2803 3.89714 11.1553 3.66016C11.0303 3.42057 10.8545 3.23177 10.6279 3.09375C10.404 2.95573 10.141 2.88672 9.83887 2.88672C9.51074 2.88672 9.22428 2.96745 8.97949 3.12891C8.7373 3.28776 8.5498 3.49609 8.41699 3.75391C8.28678 4.00911 8.22168 4.28646 8.22168 4.58594V5.26953C8.22168 5.67057 8.29199 6.01172 8.43262 6.29297C8.57585 6.57422 8.77507 6.78906 9.03027 6.9375C9.28548 7.08333 9.58366 7.15625 9.9248 7.15625C10.1462 7.15625 10.348 7.125 10.5303 7.0625C10.7126 6.9974 10.8701 6.90104 11.0029 6.77344C11.1357 6.64583 11.2373 6.48828 11.3076 6.30078L12.4131 6.5C12.3245 6.82552 12.1657 7.11068 11.9365 7.35547C11.71 7.59766 11.4248 7.78646 11.0811 7.92187C10.7399 8.05469 10.3506 8.12109 9.91309 8.12109ZM15.5293 8.13281C15.1491 8.13281 14.8053 8.0625 14.498 7.92187C14.1908 7.77865 13.9473 7.57161 13.7676 7.30078C13.5905 7.02995 13.502 6.69792 13.502 6.30469C13.502 5.96615 13.5671 5.6875 13.6973 5.46875C13.8275 5.25 14.0033 5.07682 14.2246 4.94922C14.446 4.82161 14.6934 4.72526 14.9668 4.66016C15.2402 4.59505 15.5189 4.54557 15.8027 4.51172C16.1621 4.47005 16.4538 4.4362 16.6777 4.41016C16.9017 4.38151 17.0645 4.33594 17.166 4.27344C17.2676 4.21094 17.3184 4.10937 17.3184 3.96875V3.94141C17.3184 3.60026 17.222 3.33594 17.0293 3.14844C16.8392 2.96094 16.5553 2.86719 16.1777 2.86719C15.7845 2.86719 15.4746 2.95443 15.248 3.12891C15.0241 3.30078 14.8691 3.49219 14.7832 3.70312L13.6855 3.45312C13.8158 3.08854 14.0059 2.79427 14.2559 2.57031C14.5085 2.34375 14.7988 2.17969 15.127 2.07812C15.4551 1.97396 15.8001 1.92188 16.1621 1.92188C16.4017 1.92188 16.6556 1.95052 16.9238 2.00781C17.1947 2.0625 17.4473 2.16406 17.6816 2.3125C17.9186 2.46094 18.1126 2.67318 18.2637 2.94922C18.4147 3.22266 18.4902 3.57813 18.4902 4.01563V8H17.3496V7.17969H17.3027C17.2272 7.33073 17.1139 7.47917 16.9629 7.625C16.8118 7.77083 16.6178 7.89193 16.3809 7.98828C16.1439 8.08464 15.86 8.13281 15.5293 8.13281ZM15.7832 7.19531C16.1061 7.19531 16.3822 7.13151 16.6113 7.00391C16.8431 6.8763 17.0189 6.70964 17.1387 6.50391C17.2611 6.29557 17.3223 6.07292 17.3223 5.83594V5.0625C17.2806 5.10417 17.1999 5.14323 17.0801 5.17969C16.9629 5.21354 16.8288 5.24349 16.6777 5.26953C16.5267 5.29297 16.3796 5.3151 16.2363 5.33594C16.0931 5.35417 15.9733 5.36979 15.877 5.38281C15.6504 5.41146 15.4434 5.45964 15.2559 5.52734C15.071 5.59505 14.9225 5.69271 14.8105 5.82031C14.7012 5.94531 14.6465 6.11198 14.6465 6.32031C14.6465 6.60937 14.7533 6.82812 14.9668 6.97656C15.1803 7.1224 15.4525 7.19531 15.7832 7.19531ZM20.0459 8V2H21.1748V2.95312H21.2373C21.3467 2.63021 21.5394 2.3763 21.8154 2.19141C22.0941 2.00391 22.4092 1.91016 22.7607 1.91016C22.8337 1.91016 22.9196 1.91276 23.0186 1.91797C23.1201 1.92318 23.1995 1.92969 23.2568 1.9375V3.05469C23.21 3.04167 23.1266 3.02734 23.0068 3.01172C22.887 2.99349 22.7673 2.98437 22.6475 2.98437C22.3714 2.98437 22.1253 3.04297 21.9092 3.16016C21.6956 3.27474 21.5264 3.4349 21.4014 3.64062C21.2764 3.84375 21.2139 4.07552 21.2139 4.33594V8H20.0459ZM28.7637 3.46484L27.7051 3.65234C27.6608 3.51693 27.5905 3.38802 27.4941 3.26562C27.4004 3.14323 27.2728 3.04297 27.1113 2.96484C26.9499 2.88672 26.748 2.84766 26.5059 2.84766C26.1751 2.84766 25.8991 2.92187 25.6777 3.07031C25.4564 3.21615 25.3457 3.40495 25.3457 3.63672C25.3457 3.83724 25.4199 3.9987 25.5684 4.12109C25.7168 4.24349 25.9564 4.34375 26.2871 4.42187L27.2402 4.64062C27.7923 4.76823 28.2038 4.96484 28.4746 5.23047C28.7454 5.49609 28.8809 5.84115 28.8809 6.26563C28.8809 6.625 28.7767 6.94531 28.5684 7.22656C28.3626 7.50521 28.0749 7.72396 27.7051 7.88281C27.3379 8.04167 26.9121 8.12109 26.4277 8.12109C25.7559 8.12109 25.2077 7.97786 24.7832 7.69141C24.3587 7.40234 24.0983 6.99219 24.002 6.46094L25.1309 6.28906C25.2012 6.58333 25.3457 6.80599 25.5645 6.95703C25.7832 7.10547 26.0684 7.17969 26.4199 7.17969C26.8027 7.17969 27.1087 7.10026 27.3379 6.94141C27.5671 6.77995 27.6816 6.58333 27.6816 6.35156C27.6816 6.16406 27.6113 6.00651 27.4707 5.87891C27.3327 5.7513 27.1204 5.65495 26.834 5.58984L25.8184 5.36719C25.2585 5.23958 24.8444 5.03646 24.5762 4.75781C24.3105 4.47917 24.1777 4.1263 24.1777 3.69922C24.1777 3.34505 24.2767 3.03516 24.4746 2.76953C24.6725 2.50391 24.946 2.29687 25.2949 2.14844C25.6439 1.9974 26.0436 1.92188 26.4941 1.92188C27.1426 1.92188 27.653 2.0625 28.0254 2.34375C28.3978 2.6224 28.6439 2.99609 28.7637 3.46484Z" fill="#888E9D"/>
</svg>
